<?xml version="1.0" encoding="utf-8" standalone="no"?>
<!DOCTYPE svg PUBLIC "-//W3C//DTD SVG 1.1//EN"
  "http://www.w3.org/Graphics/SVG/1.1/DTD/svg11.dtd">
<svg height="288pt" version="1.1" viewBox="0 0 432 288" width="432pt" xmlns="http://www.w3.org/2000/svg" xmlns:xlink="http://www.w3.org/1999/xlink">
 <metadata>
  <rdf:RDF xmlns:cc="http://creativecommons.org/ns#" xmlns:dc="http://purl.org/dc/elements/1.1/" xmlns:rdf="http://www.w3.org/1999/02/22-rdf-syntax-ns#">
   <cc:Work>
    <dc:type rdf:resource="http://purl.org/dc/dcmitype/StillImage"/>
    <dc:date>2023-09-08T08:17:18.320291</dc:date>
    <dc:format>image/svg+xml</dc:format>
    <dc:creator>
     <cc:Agent>
      <dc:title>Matplotlib v3.4.3, https://matplotlib.org/</dc:title>
     </cc:Agent>
    </dc:creator>
   </cc:Work>
  </rdf:RDF>
 </metadata>
 <defs>
  <style type="text/css">*{stroke-linecap:butt;stroke-linejoin:round;}</style>
 </defs>
 <g id="figure_1">
  <g id="patch_1">
   <path d="M 0 288 
L 432 288 
L 432 0 
L 0 0 
z
" style="fill:none;"/>
  </g>
  <g id="axes_1">
   <g id="patch_2">
    <path d="M 54 252 
L 388.8 252 
L 388.8 34.56 
L 54 34.56 
z
" style="fill:#ffffff;"/>
   </g>
   <g id="matplotlib.axis_1">
    <g id="xtick_1">
     <g id="line2d_1">
      <defs>
       <path d="M 0 0 
L 0 3.5 
" id="mf72de9cf92" style="stroke:#000000;stroke-width:0.8;"/>
      </defs>
      <g>
       <use style="stroke:#000000;stroke-width:0.8;" x="69.218182" xlink:href="#mf72de9cf92" y="252"/>
      </g>
     </g>
     <g id="text_1">
      <!-- 2.0 -->
      <g transform="translate(56.495682 271.1575)scale(0.16 -0.16)">
       <defs>
        <path d="M 1228 531 
L 3431 531 
L 3431 0 
L 469 0 
L 469 531 
Q 828 903 1448 1529 
Q 2069 2156 2228 2338 
Q 2531 2678 2651 2914 
Q 2772 3150 2772 3378 
Q 2772 3750 2511 3984 
Q 2250 4219 1831 4219 
Q 1534 4219 1204 4116 
Q 875 4013 500 3803 
L 500 4441 
Q 881 4594 1212 4672 
Q 1544 4750 1819 4750 
Q 2544 4750 2975 4387 
Q 3406 4025 3406 3419 
Q 3406 3131 3298 2873 
Q 3191 2616 2906 2266 
Q 2828 2175 2409 1742 
Q 1991 1309 1228 531 
z
" id="DejaVuSans-32" transform="scale(0.015625)"/>
        <path d="M 684 794 
L 1344 794 
L 1344 0 
L 684 0 
L 684 794 
z
" id="DejaVuSans-2e" transform="scale(0.015625)"/>
        <path d="M 2034 4250 
Q 1547 4250 1301 3770 
Q 1056 3291 1056 2328 
Q 1056 1369 1301 889 
Q 1547 409 2034 409 
Q 2525 409 2770 889 
Q 3016 1369 3016 2328 
Q 3016 3291 2770 3770 
Q 2525 4250 2034 4250 
z
M 2034 4750 
Q 2819 4750 3233 4129 
Q 3647 3509 3647 2328 
Q 3647 1150 3233 529 
Q 2819 -91 2034 -91 
Q 1250 -91 836 529 
Q 422 1150 422 2328 
Q 422 3509 836 4129 
Q 1250 4750 2034 4750 
z
" id="DejaVuSans-30" transform="scale(0.015625)"/>
       </defs>
       <use xlink:href="#DejaVuSans-32"/>
       <use x="63.623047" xlink:href="#DejaVuSans-2e"/>
       <use x="95.410156" xlink:href="#DejaVuSans-30"/>
      </g>
     </g>
    </g>
    <g id="xtick_2">
     <g id="line2d_2">
      <g>
       <use style="stroke:#000000;stroke-width:0.8;" x="145.309091" xlink:href="#mf72de9cf92" y="252"/>
      </g>
     </g>
     <g id="text_2">
      <!-- 3.0 -->
      <g transform="translate(132.586591 271.1575)scale(0.16 -0.16)">
       <defs>
        <path d="M 2597 2516 
Q 3050 2419 3304 2112 
Q 3559 1806 3559 1356 
Q 3559 666 3084 287 
Q 2609 -91 1734 -91 
Q 1441 -91 1130 -33 
Q 819 25 488 141 
L 488 750 
Q 750 597 1062 519 
Q 1375 441 1716 441 
Q 2309 441 2620 675 
Q 2931 909 2931 1356 
Q 2931 1769 2642 2001 
Q 2353 2234 1838 2234 
L 1294 2234 
L 1294 2753 
L 1863 2753 
Q 2328 2753 2575 2939 
Q 2822 3125 2822 3475 
Q 2822 3834 2567 4026 
Q 2313 4219 1838 4219 
Q 1578 4219 1281 4162 
Q 984 4106 628 3988 
L 628 4550 
Q 988 4650 1302 4700 
Q 1616 4750 1894 4750 
Q 2613 4750 3031 4423 
Q 3450 4097 3450 3541 
Q 3450 3153 3228 2886 
Q 3006 2619 2597 2516 
z
" id="DejaVuSans-33" transform="scale(0.015625)"/>
       </defs>
       <use xlink:href="#DejaVuSans-33"/>
       <use x="63.623047" xlink:href="#DejaVuSans-2e"/>
       <use x="95.410156" xlink:href="#DejaVuSans-30"/>
      </g>
     </g>
    </g>
    <g id="xtick_3">
     <g id="line2d_3">
      <g>
       <use style="stroke:#000000;stroke-width:0.8;" x="221.4" xlink:href="#mf72de9cf92" y="252"/>
      </g>
     </g>
     <g id="text_3">
      <!-- 4.0 -->
      <g transform="translate(208.6775 271.1575)scale(0.16 -0.16)">
       <defs>
        <path d="M 2419 4116 
L 825 1625 
L 2419 1625 
L 2419 4116 
z
M 2253 4666 
L 3047 4666 
L 3047 1625 
L 3713 1625 
L 3713 1100 
L 3047 1100 
L 3047 0 
L 2419 0 
L 2419 1100 
L 313 1100 
L 313 1709 
L 2253 4666 
z
" id="DejaVuSans-34" transform="scale(0.015625)"/>
       </defs>
       <use xlink:href="#DejaVuSans-34"/>
       <use x="63.623047" xlink:href="#DejaVuSans-2e"/>
       <use x="95.410156" xlink:href="#DejaVuSans-30"/>
      </g>
     </g>
    </g>
    <g id="xtick_4">
     <g id="line2d_4">
      <g>
       <use style="stroke:#000000;stroke-width:0.8;" x="297.490909" xlink:href="#mf72de9cf92" y="252"/>
      </g>
     </g>
     <g id="text_4">
      <!-- 5.0 -->
      <g transform="translate(284.768409 271.1575)scale(0.16 -0.16)">
       <defs>
        <path d="M 691 4666 
L 3169 4666 
L 3169 4134 
L 1269 4134 
L 1269 2991 
Q 1406 3038 1543 3061 
Q 1681 3084 1819 3084 
Q 2600 3084 3056 2656 
Q 3513 2228 3513 1497 
Q 3513 744 3044 326 
Q 2575 -91 1722 -91 
Q 1428 -91 1123 -41 
Q 819 9 494 109 
L 494 744 
Q 775 591 1075 516 
Q 1375 441 1709 441 
Q 2250 441 2565 725 
Q 2881 1009 2881 1497 
Q 2881 1984 2565 2268 
Q 2250 2553 1709 2553 
Q 1456 2553 1204 2497 
Q 953 2441 691 2322 
L 691 4666 
z
" id="DejaVuSans-35" transform="scale(0.015625)"/>
       </defs>
       <use xlink:href="#DejaVuSans-35"/>
       <use x="63.623047" xlink:href="#DejaVuSans-2e"/>
       <use x="95.410156" xlink:href="#DejaVuSans-30"/>
      </g>
     </g>
    </g>
    <g id="xtick_5">
     <g id="line2d_5">
      <g>
       <use style="stroke:#000000;stroke-width:0.8;" x="373.581818" xlink:href="#mf72de9cf92" y="252"/>
      </g>
     </g>
     <g id="text_5">
      <!-- 6.0 -->
      <g transform="translate(360.859318 271.1575)scale(0.16 -0.16)">
       <defs>
        <path d="M 2113 2584 
Q 1688 2584 1439 2293 
Q 1191 2003 1191 1497 
Q 1191 994 1439 701 
Q 1688 409 2113 409 
Q 2538 409 2786 701 
Q 3034 994 3034 1497 
Q 3034 2003 2786 2293 
Q 2538 2584 2113 2584 
z
M 3366 4563 
L 3366 3988 
Q 3128 4100 2886 4159 
Q 2644 4219 2406 4219 
Q 1781 4219 1451 3797 
Q 1122 3375 1075 2522 
Q 1259 2794 1537 2939 
Q 1816 3084 2150 3084 
Q 2853 3084 3261 2657 
Q 3669 2231 3669 1497 
Q 3669 778 3244 343 
Q 2819 -91 2113 -91 
Q 1303 -91 875 529 
Q 447 1150 447 2328 
Q 447 3434 972 4092 
Q 1497 4750 2381 4750 
Q 2619 4750 2861 4703 
Q 3103 4656 3366 4563 
z
" id="DejaVuSans-36" transform="scale(0.015625)"/>
       </defs>
       <use xlink:href="#DejaVuSans-36"/>
       <use x="63.623047" xlink:href="#DejaVuSans-2e"/>
       <use x="95.410156" xlink:href="#DejaVuSans-30"/>
      </g>
     </g>
    </g>
    <g id="text_6">
     <!-- Concentration ($\times 10^{-2} / d_{IRE1}^2$) -->
     <g transform="translate(95.94 294.865)scale(0.18 -0.18)">
      <defs>
       <path d="M 4122 4306 
L 4122 3641 
Q 3803 3938 3442 4084 
Q 3081 4231 2675 4231 
Q 1875 4231 1450 3742 
Q 1025 3253 1025 2328 
Q 1025 1406 1450 917 
Q 1875 428 2675 428 
Q 3081 428 3442 575 
Q 3803 722 4122 1019 
L 4122 359 
Q 3791 134 3420 21 
Q 3050 -91 2638 -91 
Q 1578 -91 968 557 
Q 359 1206 359 2328 
Q 359 3453 968 4101 
Q 1578 4750 2638 4750 
Q 3056 4750 3426 4639 
Q 3797 4528 4122 4306 
z
" id="DejaVuSans-43" transform="scale(0.015625)"/>
       <path d="M 1959 3097 
Q 1497 3097 1228 2736 
Q 959 2375 959 1747 
Q 959 1119 1226 758 
Q 1494 397 1959 397 
Q 2419 397 2687 759 
Q 2956 1122 2956 1747 
Q 2956 2369 2687 2733 
Q 2419 3097 1959 3097 
z
M 1959 3584 
Q 2709 3584 3137 3096 
Q 3566 2609 3566 1747 
Q 3566 888 3137 398 
Q 2709 -91 1959 -91 
Q 1206 -91 779 398 
Q 353 888 353 1747 
Q 353 2609 779 3096 
Q 1206 3584 1959 3584 
z
" id="DejaVuSans-6f" transform="scale(0.015625)"/>
       <path d="M 3513 2113 
L 3513 0 
L 2938 0 
L 2938 2094 
Q 2938 2591 2744 2837 
Q 2550 3084 2163 3084 
Q 1697 3084 1428 2787 
Q 1159 2491 1159 1978 
L 1159 0 
L 581 0 
L 581 3500 
L 1159 3500 
L 1159 2956 
Q 1366 3272 1645 3428 
Q 1925 3584 2291 3584 
Q 2894 3584 3203 3211 
Q 3513 2838 3513 2113 
z
" id="DejaVuSans-6e" transform="scale(0.015625)"/>
       <path d="M 3122 3366 
L 3122 2828 
Q 2878 2963 2633 3030 
Q 2388 3097 2138 3097 
Q 1578 3097 1268 2742 
Q 959 2388 959 1747 
Q 959 1106 1268 751 
Q 1578 397 2138 397 
Q 2388 397 2633 464 
Q 2878 531 3122 666 
L 3122 134 
Q 2881 22 2623 -34 
Q 2366 -91 2075 -91 
Q 1284 -91 818 406 
Q 353 903 353 1747 
Q 353 2603 823 3093 
Q 1294 3584 2113 3584 
Q 2378 3584 2631 3529 
Q 2884 3475 3122 3366 
z
" id="DejaVuSans-63" transform="scale(0.015625)"/>
       <path d="M 3597 1894 
L 3597 1613 
L 953 1613 
Q 991 1019 1311 708 
Q 1631 397 2203 397 
Q 2534 397 2845 478 
Q 3156 559 3463 722 
L 3463 178 
Q 3153 47 2828 -22 
Q 2503 -91 2169 -91 
Q 1331 -91 842 396 
Q 353 884 353 1716 
Q 353 2575 817 3079 
Q 1281 3584 2069 3584 
Q 2775 3584 3186 3129 
Q 3597 2675 3597 1894 
z
M 3022 2063 
Q 3016 2534 2758 2815 
Q 2500 3097 2075 3097 
Q 1594 3097 1305 2825 
Q 1016 2553 972 2059 
L 3022 2063 
z
" id="DejaVuSans-65" transform="scale(0.015625)"/>
       <path d="M 1172 4494 
L 1172 3500 
L 2356 3500 
L 2356 3053 
L 1172 3053 
L 1172 1153 
Q 1172 725 1289 603 
Q 1406 481 1766 481 
L 2356 481 
L 2356 0 
L 1766 0 
Q 1100 0 847 248 
Q 594 497 594 1153 
L 594 3053 
L 172 3053 
L 172 3500 
L 594 3500 
L 594 4494 
L 1172 4494 
z
" id="DejaVuSans-74" transform="scale(0.015625)"/>
       <path d="M 2631 2963 
Q 2534 3019 2420 3045 
Q 2306 3072 2169 3072 
Q 1681 3072 1420 2755 
Q 1159 2438 1159 1844 
L 1159 0 
L 581 0 
L 581 3500 
L 1159 3500 
L 1159 2956 
Q 1341 3275 1631 3429 
Q 1922 3584 2338 3584 
Q 2397 3584 2469 3576 
Q 2541 3569 2628 3553 
L 2631 2963 
z
" id="DejaVuSans-72" transform="scale(0.015625)"/>
       <path d="M 2194 1759 
Q 1497 1759 1228 1600 
Q 959 1441 959 1056 
Q 959 750 1161 570 
Q 1363 391 1709 391 
Q 2188 391 2477 730 
Q 2766 1069 2766 1631 
L 2766 1759 
L 2194 1759 
z
M 3341 1997 
L 3341 0 
L 2766 0 
L 2766 531 
Q 2569 213 2275 61 
Q 1981 -91 1556 -91 
Q 1019 -91 701 211 
Q 384 513 384 1019 
Q 384 1609 779 1909 
Q 1175 2209 1959 2209 
L 2766 2209 
L 2766 2266 
Q 2766 2663 2505 2880 
Q 2244 3097 1772 3097 
Q 1472 3097 1187 3025 
Q 903 2953 641 2809 
L 641 3341 
Q 956 3463 1253 3523 
Q 1550 3584 1831 3584 
Q 2591 3584 2966 3190 
Q 3341 2797 3341 1997 
z
" id="DejaVuSans-61" transform="scale(0.015625)"/>
       <path d="M 603 3500 
L 1178 3500 
L 1178 0 
L 603 0 
L 603 3500 
z
M 603 4863 
L 1178 4863 
L 1178 4134 
L 603 4134 
L 603 4863 
z
" id="DejaVuSans-69" transform="scale(0.015625)"/>
       <path id="DejaVuSans-20" transform="scale(0.015625)"/>
       <path d="M 1984 4856 
Q 1566 4138 1362 3434 
Q 1159 2731 1159 2009 
Q 1159 1288 1364 580 
Q 1569 -128 1984 -844 
L 1484 -844 
Q 1016 -109 783 600 
Q 550 1309 550 2009 
Q 550 2706 781 3412 
Q 1013 4119 1484 4856 
L 1984 4856 
z
" id="DejaVuSans-28" transform="scale(0.015625)"/>
       <path d="M 4488 3438 
L 3059 2003 
L 4488 575 
L 4116 197 
L 2681 1631 
L 1247 197 
L 878 575 
L 2303 2003 
L 878 3438 
L 1247 3816 
L 2681 2381 
L 4116 3816 
L 4488 3438 
z
" id="DejaVuSans-d7" transform="scale(0.015625)"/>
       <path d="M 794 531 
L 1825 531 
L 1825 4091 
L 703 3866 
L 703 4441 
L 1819 4666 
L 2450 4666 
L 2450 531 
L 3481 531 
L 3481 0 
L 794 0 
L 794 531 
z
" id="DejaVuSans-31" transform="scale(0.015625)"/>
       <path d="M 678 2272 
L 4684 2272 
L 4684 1741 
L 678 1741 
L 678 2272 
z
" id="DejaVuSans-2212" transform="scale(0.015625)"/>
       <path d="M 1625 4666 
L 2156 4666 
L 531 -594 
L 0 -594 
L 1625 4666 
z
" id="DejaVuSans-2f" transform="scale(0.015625)"/>
       <path d="M 2675 525 
Q 2444 222 2128 65 
Q 1813 -91 1428 -91 
Q 903 -91 598 267 
Q 294 625 294 1247 
Q 294 1766 478 2236 
Q 663 2706 1013 3078 
Q 1244 3325 1534 3454 
Q 1825 3584 2144 3584 
Q 2481 3584 2739 3421 
Q 2997 3259 3138 2956 
L 3513 4863 
L 4091 4863 
L 3144 0 
L 2566 0 
L 2675 525 
z
M 891 1350 
Q 891 897 1095 644 
Q 1300 391 1663 391 
Q 1931 391 2161 520 
Q 2391 650 2566 903 
Q 2750 1166 2856 1509 
Q 2963 1853 2963 2188 
Q 2963 2622 2758 2865 
Q 2553 3109 2194 3109 
Q 1922 3109 1687 2981 
Q 1453 2853 1288 2613 
Q 1106 2353 998 2009 
Q 891 1666 891 1350 
z
" id="DejaVuSans-Oblique-64" transform="scale(0.015625)"/>
       <path d="M 1081 4666 
L 1716 4666 
L 806 0 
L 172 0 
L 1081 4666 
z
" id="DejaVuSans-Oblique-49" transform="scale(0.015625)"/>
       <path d="M 1613 4147 
L 1294 2491 
L 2106 2491 
Q 2584 2491 2879 2755 
Q 3175 3019 3175 3444 
Q 3175 3784 2976 3965 
Q 2778 4147 2406 4147 
L 1613 4147 
z
M 2772 2241 
Q 2972 2194 3105 2009 
Q 3238 1825 3413 1275 
L 3809 0 
L 3144 0 
L 2778 1197 
Q 2638 1659 2453 1815 
Q 2269 1972 1888 1972 
L 1191 1972 
L 806 0 
L 172 0 
L 1081 4666 
L 2503 4666 
Q 3150 4666 3495 4373 
Q 3841 4081 3841 3531 
Q 3841 3044 3547 2687 
Q 3253 2331 2772 2241 
z
" id="DejaVuSans-Oblique-52" transform="scale(0.015625)"/>
       <path d="M 1081 4666 
L 4031 4666 
L 3928 4134 
L 1606 4134 
L 1338 2753 
L 3566 2753 
L 3463 2222 
L 1234 2222 
L 909 531 
L 3284 531 
L 3181 0 
L 172 0 
L 1081 4666 
z
" id="DejaVuSans-Oblique-45" transform="scale(0.015625)"/>
       <path d="M 513 4856 
L 1013 4856 
Q 1481 4119 1714 3412 
Q 1947 2706 1947 2009 
Q 1947 1309 1714 600 
Q 1481 -109 1013 -844 
L 513 -844 
Q 928 -128 1133 580 
Q 1338 1288 1338 2009 
Q 1338 2731 1133 3434 
Q 928 4138 513 4856 
z
" id="DejaVuSans-29" transform="scale(0.015625)"/>
      </defs>
      <use transform="translate(0 0.765625)" xlink:href="#DejaVuSans-43"/>
      <use transform="translate(69.824219 0.765625)" xlink:href="#DejaVuSans-6f"/>
      <use transform="translate(131.005859 0.765625)" xlink:href="#DejaVuSans-6e"/>
      <use transform="translate(194.384766 0.765625)" xlink:href="#DejaVuSans-63"/>
      <use transform="translate(249.365234 0.765625)" xlink:href="#DejaVuSans-65"/>
      <use transform="translate(310.888672 0.765625)" xlink:href="#DejaVuSans-6e"/>
      <use transform="translate(374.267578 0.765625)" xlink:href="#DejaVuSans-74"/>
      <use transform="translate(413.476562 0.765625)" xlink:href="#DejaVuSans-72"/>
      <use transform="translate(454.589844 0.765625)" xlink:href="#DejaVuSans-61"/>
      <use transform="translate(515.869141 0.765625)" xlink:href="#DejaVuSans-74"/>
      <use transform="translate(555.078125 0.765625)" xlink:href="#DejaVuSans-69"/>
      <use transform="translate(582.861328 0.765625)" xlink:href="#DejaVuSans-6f"/>
      <use transform="translate(644.042969 0.765625)" xlink:href="#DejaVuSans-6e"/>
      <use transform="translate(707.421875 0.765625)" xlink:href="#DejaVuSans-20"/>
      <use transform="translate(739.208984 0.765625)" xlink:href="#DejaVuSans-28"/>
      <use transform="translate(778.222656 0.765625)" xlink:href="#DejaVuSans-d7"/>
      <use transform="translate(862.011719 0.765625)" xlink:href="#DejaVuSans-31"/>
      <use transform="translate(925.634766 0.765625)" xlink:href="#DejaVuSans-30"/>
      <use transform="translate(990.214844 39.046875)scale(0.7)" xlink:href="#DejaVuSans-2212"/>
      <use transform="translate(1048.867188 39.046875)scale(0.7)" xlink:href="#DejaVuSans-32"/>
      <use transform="translate(1096.137695 0.765625)" xlink:href="#DejaVuSans-2f"/>
      <use transform="translate(1129.829102 0.765625)" xlink:href="#DejaVuSans-Oblique-64"/>
      <use transform="translate(1200.753372 39.046875)scale(0.7)" xlink:href="#DejaVuSans-32"/>
      <use transform="translate(1193.305664 -26.578125)scale(0.7)" xlink:href="#DejaVuSans-Oblique-49"/>
      <use transform="translate(1213.950195 -26.578125)scale(0.7)" xlink:href="#DejaVuSans-Oblique-52"/>
      <use transform="translate(1262.587891 -26.578125)scale(0.7)" xlink:href="#DejaVuSans-Oblique-45"/>
      <use transform="translate(1306.816406 -26.578125)scale(0.7)" xlink:href="#DejaVuSans-31"/>
      <use transform="translate(1354.086914 0.765625)" xlink:href="#DejaVuSans-29"/>
     </g>
    </g>
   </g>
   <g id="matplotlib.axis_2">
    <g id="ytick_1">
     <g id="line2d_6">
      <defs>
       <path d="M 0 0 
L -3.5 0 
" id="m854fef6991" style="stroke:#000000;stroke-width:0.8;"/>
      </defs>
      <g>
       <use style="stroke:#000000;stroke-width:0.8;" x="54" xlink:href="#m854fef6991" y="243.247171"/>
      </g>
     </g>
     <g id="text_7">
      <!-- 0.0 -->
      <g transform="translate(21.555 249.325921)scale(0.16 -0.16)">
       <use xlink:href="#DejaVuSans-30"/>
       <use x="63.623047" xlink:href="#DejaVuSans-2e"/>
       <use x="95.410156" xlink:href="#DejaVuSans-30"/>
      </g>
     </g>
    </g>
    <g id="ytick_2">
     <g id="line2d_7">
      <g>
       <use style="stroke:#000000;stroke-width:0.8;" x="54" xlink:href="#m854fef6991" y="203.493696"/>
      </g>
     </g>
     <g id="text_8">
      <!-- 2.5 -->
      <g transform="translate(21.555 209.572446)scale(0.16 -0.16)">
       <use xlink:href="#DejaVuSans-32"/>
       <use x="63.623047" xlink:href="#DejaVuSans-2e"/>
       <use x="95.410156" xlink:href="#DejaVuSans-35"/>
      </g>
     </g>
    </g>
    <g id="ytick_3">
     <g id="line2d_8">
      <g>
       <use style="stroke:#000000;stroke-width:0.8;" x="54" xlink:href="#m854fef6991" y="163.740221"/>
      </g>
     </g>
     <g id="text_9">
      <!-- 5.0 -->
      <g transform="translate(21.555 169.818971)scale(0.16 -0.16)">
       <use xlink:href="#DejaVuSans-35"/>
       <use x="63.623047" xlink:href="#DejaVuSans-2e"/>
       <use x="95.410156" xlink:href="#DejaVuSans-30"/>
      </g>
     </g>
    </g>
    <g id="ytick_4">
     <g id="line2d_9">
      <g>
       <use style="stroke:#000000;stroke-width:0.8;" x="54" xlink:href="#m854fef6991" y="123.986746"/>
      </g>
     </g>
     <g id="text_10">
      <!-- 7.5 -->
      <g transform="translate(21.555 130.065496)scale(0.16 -0.16)">
       <defs>
        <path d="M 525 4666 
L 3525 4666 
L 3525 4397 
L 1831 0 
L 1172 0 
L 2766 4134 
L 525 4134 
L 525 4666 
z
" id="DejaVuSans-37" transform="scale(0.015625)"/>
       </defs>
       <use xlink:href="#DejaVuSans-37"/>
       <use x="63.623047" xlink:href="#DejaVuSans-2e"/>
       <use x="95.410156" xlink:href="#DejaVuSans-35"/>
      </g>
     </g>
    </g>
    <g id="ytick_5">
     <g id="line2d_10">
      <g>
       <use style="stroke:#000000;stroke-width:0.8;" x="54" xlink:href="#m854fef6991" y="84.233272"/>
      </g>
     </g>
     <g id="text_11">
      <!-- 10.0 -->
      <g transform="translate(11.375 90.312022)scale(0.16 -0.16)">
       <use xlink:href="#DejaVuSans-31"/>
       <use x="63.623047" xlink:href="#DejaVuSans-30"/>
       <use x="127.246094" xlink:href="#DejaVuSans-2e"/>
       <use x="159.033203" xlink:href="#DejaVuSans-30"/>
      </g>
     </g>
    </g>
    <g id="ytick_6">
     <g id="line2d_11">
      <g>
       <use style="stroke:#000000;stroke-width:0.8;" x="54" xlink:href="#m854fef6991" y="44.479797"/>
      </g>
     </g>
     <g id="text_12">
      <!-- 12.5 -->
      <g transform="translate(11.375 50.558547)scale(0.16 -0.16)">
       <use xlink:href="#DejaVuSans-31"/>
       <use x="63.623047" xlink:href="#DejaVuSans-32"/>
       <use x="127.246094" xlink:href="#DejaVuSans-2e"/>
       <use x="159.033203" xlink:href="#DejaVuSans-35"/>
      </g>
     </g>
    </g>
    <g id="text_13">
     <!-- Transition frequency ($/(10^4 \cdot s \cdot d_{IRE1}^2/\mu m^2)$) -->
     <g style="fill:#440154;" transform="translate(4.015 269.04)rotate(-90)scale(0.12 -0.12)">
      <defs>
       <path d="M -19 4666 
L 3928 4666 
L 3928 4134 
L 2272 4134 
L 2272 0 
L 1638 0 
L 1638 4134 
L -19 4134 
L -19 4666 
z
" id="DejaVuSans-54" transform="scale(0.015625)"/>
       <path d="M 2834 3397 
L 2834 2853 
Q 2591 2978 2328 3040 
Q 2066 3103 1784 3103 
Q 1356 3103 1142 2972 
Q 928 2841 928 2578 
Q 928 2378 1081 2264 
Q 1234 2150 1697 2047 
L 1894 2003 
Q 2506 1872 2764 1633 
Q 3022 1394 3022 966 
Q 3022 478 2636 193 
Q 2250 -91 1575 -91 
Q 1294 -91 989 -36 
Q 684 19 347 128 
L 347 722 
Q 666 556 975 473 
Q 1284 391 1588 391 
Q 1994 391 2212 530 
Q 2431 669 2431 922 
Q 2431 1156 2273 1281 
Q 2116 1406 1581 1522 
L 1381 1569 
Q 847 1681 609 1914 
Q 372 2147 372 2553 
Q 372 3047 722 3315 
Q 1072 3584 1716 3584 
Q 2034 3584 2315 3537 
Q 2597 3491 2834 3397 
z
" id="DejaVuSans-73" transform="scale(0.015625)"/>
       <path d="M 2375 4863 
L 2375 4384 
L 1825 4384 
Q 1516 4384 1395 4259 
Q 1275 4134 1275 3809 
L 1275 3500 
L 2222 3500 
L 2222 3053 
L 1275 3053 
L 1275 0 
L 697 0 
L 697 3053 
L 147 3053 
L 147 3500 
L 697 3500 
L 697 3744 
Q 697 4328 969 4595 
Q 1241 4863 1831 4863 
L 2375 4863 
z
" id="DejaVuSans-66" transform="scale(0.015625)"/>
       <path d="M 947 1747 
Q 947 1113 1208 752 
Q 1469 391 1925 391 
Q 2381 391 2643 752 
Q 2906 1113 2906 1747 
Q 2906 2381 2643 2742 
Q 2381 3103 1925 3103 
Q 1469 3103 1208 2742 
Q 947 2381 947 1747 
z
M 2906 525 
Q 2725 213 2448 61 
Q 2172 -91 1784 -91 
Q 1150 -91 751 415 
Q 353 922 353 1747 
Q 353 2572 751 3078 
Q 1150 3584 1784 3584 
Q 2172 3584 2448 3432 
Q 2725 3281 2906 2969 
L 2906 3500 
L 3481 3500 
L 3481 -1331 
L 2906 -1331 
L 2906 525 
z
" id="DejaVuSans-71" transform="scale(0.015625)"/>
       <path d="M 544 1381 
L 544 3500 
L 1119 3500 
L 1119 1403 
Q 1119 906 1312 657 
Q 1506 409 1894 409 
Q 2359 409 2629 706 
Q 2900 1003 2900 1516 
L 2900 3500 
L 3475 3500 
L 3475 0 
L 2900 0 
L 2900 538 
Q 2691 219 2414 64 
Q 2138 -91 1772 -91 
Q 1169 -91 856 284 
Q 544 659 544 1381 
z
M 1991 3584 
L 1991 3584 
z
" id="DejaVuSans-75" transform="scale(0.015625)"/>
       <path d="M 2059 -325 
Q 1816 -950 1584 -1140 
Q 1353 -1331 966 -1331 
L 506 -1331 
L 506 -850 
L 844 -850 
Q 1081 -850 1212 -737 
Q 1344 -625 1503 -206 
L 1606 56 
L 191 3500 
L 800 3500 
L 1894 763 
L 2988 3500 
L 3597 3500 
L 2059 -325 
z
" id="DejaVuSans-79" transform="scale(0.015625)"/>
       <path d="M 684 2619 
L 1344 2619 
L 1344 1825 
L 684 1825 
L 684 2619 
z
" id="DejaVuSans-22c5" transform="scale(0.015625)"/>
       <path d="M 3200 3397 
L 3091 2853 
Q 2863 2978 2609 3040 
Q 2356 3103 2088 3103 
Q 1634 3103 1373 2948 
Q 1113 2794 1113 2528 
Q 1113 2219 1719 2053 
Q 1766 2041 1788 2034 
L 1972 1978 
Q 2547 1819 2739 1644 
Q 2931 1469 2931 1166 
Q 2931 609 2489 259 
Q 2047 -91 1331 -91 
Q 1053 -91 747 -37 
Q 441 16 72 128 
L 184 722 
Q 500 559 806 475 
Q 1113 391 1394 391 
Q 1816 391 2080 572 
Q 2344 753 2344 1031 
Q 2344 1331 1650 1516 
L 1591 1531 
L 1394 1581 
Q 956 1697 753 1886 
Q 550 2075 550 2369 
Q 550 2928 970 3256 
Q 1391 3584 2113 3584 
Q 2397 3584 2667 3537 
Q 2938 3491 3200 3397 
z
" id="DejaVuSans-Oblique-73" transform="scale(0.015625)"/>
       <path d="M -84 -1331 
L 856 3500 
L 1434 3500 
L 1009 1322 
Q 997 1256 987 1175 
Q 978 1094 978 1013 
Q 978 722 1161 565 
Q 1344 409 1684 409 
Q 2147 409 2431 671 
Q 2716 934 2816 1459 
L 3213 3500 
L 3788 3500 
L 3266 809 
Q 3253 750 3248 706 
Q 3244 663 3244 628 
Q 3244 531 3283 486 
Q 3322 441 3406 441 
Q 3438 441 3492 456 
Q 3547 472 3647 513 
L 3559 50 
Q 3422 -19 3297 -55 
Q 3172 -91 3053 -91 
Q 2847 -91 2730 40 
Q 2613 172 2613 403 
Q 2438 153 2195 31 
Q 1953 -91 1625 -91 
Q 1334 -91 1117 43 
Q 900 178 831 397 
L 494 -1331 
L -84 -1331 
z
" id="DejaVuSans-Oblique-3bc" transform="scale(0.015625)"/>
       <path d="M 5747 2113 
L 5338 0 
L 4763 0 
L 5166 2094 
Q 5191 2228 5203 2325 
Q 5216 2422 5216 2491 
Q 5216 2772 5059 2928 
Q 4903 3084 4622 3084 
Q 4203 3084 3875 2770 
Q 3547 2456 3450 1953 
L 3066 0 
L 2491 0 
L 2900 2094 
Q 2925 2209 2937 2307 
Q 2950 2406 2950 2484 
Q 2950 2769 2794 2926 
Q 2638 3084 2363 3084 
Q 1938 3084 1609 2770 
Q 1281 2456 1184 1953 
L 800 0 
L 225 0 
L 909 3500 
L 1484 3500 
L 1375 2956 
Q 1609 3263 1923 3423 
Q 2238 3584 2597 3584 
Q 2978 3584 3223 3384 
Q 3469 3184 3519 2828 
Q 3781 3197 4126 3390 
Q 4472 3584 4856 3584 
Q 5306 3584 5551 3325 
Q 5797 3066 5797 2591 
Q 5797 2488 5784 2364 
Q 5772 2241 5747 2113 
z
" id="DejaVuSans-Oblique-6d" transform="scale(0.015625)"/>
      </defs>
      <use transform="translate(0 0.765625)" xlink:href="#DejaVuSans-54"/>
      <use transform="translate(61.083984 0.765625)" xlink:href="#DejaVuSans-72"/>
      <use transform="translate(102.197266 0.765625)" xlink:href="#DejaVuSans-61"/>
      <use transform="translate(163.476562 0.765625)" xlink:href="#DejaVuSans-6e"/>
      <use transform="translate(226.855469 0.765625)" xlink:href="#DejaVuSans-73"/>
      <use transform="translate(278.955078 0.765625)" xlink:href="#DejaVuSans-69"/>
      <use transform="translate(306.738281 0.765625)" xlink:href="#DejaVuSans-74"/>
      <use transform="translate(345.947266 0.765625)" xlink:href="#DejaVuSans-69"/>
      <use transform="translate(373.730469 0.765625)" xlink:href="#DejaVuSans-6f"/>
      <use transform="translate(434.912109 0.765625)" xlink:href="#DejaVuSans-6e"/>
      <use transform="translate(498.291016 0.765625)" xlink:href="#DejaVuSans-20"/>
      <use transform="translate(530.078125 0.765625)" xlink:href="#DejaVuSans-66"/>
      <use transform="translate(565.283203 0.765625)" xlink:href="#DejaVuSans-72"/>
      <use transform="translate(606.396484 0.765625)" xlink:href="#DejaVuSans-65"/>
      <use transform="translate(667.919922 0.765625)" xlink:href="#DejaVuSans-71"/>
      <use transform="translate(731.396484 0.765625)" xlink:href="#DejaVuSans-75"/>
      <use transform="translate(794.775391 0.765625)" xlink:href="#DejaVuSans-65"/>
      <use transform="translate(856.298828 0.765625)" xlink:href="#DejaVuSans-6e"/>
      <use transform="translate(919.677734 0.765625)" xlink:href="#DejaVuSans-63"/>
      <use transform="translate(974.658203 0.765625)" xlink:href="#DejaVuSans-79"/>
      <use transform="translate(1033.837891 0.765625)" xlink:href="#DejaVuSans-20"/>
      <use transform="translate(1065.625 0.765625)" xlink:href="#DejaVuSans-28"/>
      <use transform="translate(1104.638672 0.765625)" xlink:href="#DejaVuSans-2f"/>
      <use transform="translate(1138.330078 0.765625)" xlink:href="#DejaVuSans-28"/>
      <use transform="translate(1177.34375 0.765625)" xlink:href="#DejaVuSans-31"/>
      <use transform="translate(1240.966797 0.765625)" xlink:href="#DejaVuSans-30"/>
      <use transform="translate(1305.546875 39.046875)scale(0.7)" xlink:href="#DejaVuSans-34"/>
      <use transform="translate(1372.299805 0.765625)" xlink:href="#DejaVuSans-22c5"/>
      <use transform="translate(1423.569336 0.765625)" xlink:href="#DejaVuSans-Oblique-73"/>
      <use transform="translate(1495.151367 0.765625)" xlink:href="#DejaVuSans-22c5"/>
      <use transform="translate(1546.420898 0.765625)" xlink:href="#DejaVuSans-Oblique-64"/>
      <use transform="translate(1617.345169 39.046875)scale(0.7)" xlink:href="#DejaVuSans-32"/>
      <use transform="translate(1609.897461 -26.578125)scale(0.7)" xlink:href="#DejaVuSans-Oblique-49"/>
      <use transform="translate(1630.541992 -26.578125)scale(0.7)" xlink:href="#DejaVuSans-Oblique-52"/>
      <use transform="translate(1679.179688 -26.578125)scale(0.7)" xlink:href="#DejaVuSans-Oblique-45"/>
      <use transform="translate(1723.408203 -26.578125)scale(0.7)" xlink:href="#DejaVuSans-31"/>
      <use transform="translate(1770.678711 0.765625)" xlink:href="#DejaVuSans-2f"/>
      <use transform="translate(1804.370117 0.765625)" xlink:href="#DejaVuSans-Oblique-3bc"/>
      <use transform="translate(1867.993164 0.765625)" xlink:href="#DejaVuSans-Oblique-6d"/>
      <use transform="translate(1970.055169 39.046875)scale(0.7)" xlink:href="#DejaVuSans-32"/>
      <use transform="translate(2017.325677 0.765625)" xlink:href="#DejaVuSans-29"/>
      <use transform="translate(2056.339349 0.765625)" xlink:href="#DejaVuSans-29"/>
     </g>
    </g>
   </g>
   <g id="LineCollection_1">
    <path clip-path="url(#p677147e9e8)" d="M 69.218182 242.116364 
L 69.218182 241.762937 
" style="fill:none;stroke:#440154;stroke-width:2;"/>
    <path clip-path="url(#p677147e9e8)" d="M 76.827273 240.515003 
L 76.827273 239.353821 
" style="fill:none;stroke:#440154;stroke-width:2;"/>
    <path clip-path="url(#p677147e9e8)" d="M 84.436364 240.468438 
L 84.436364 239.564171 
" style="fill:none;stroke:#440154;stroke-width:2;"/>
    <path clip-path="url(#p677147e9e8)" d="M 92.045455 239.094807 
L 92.045455 237.863328 
" style="fill:none;stroke:#440154;stroke-width:2;"/>
    <path clip-path="url(#p677147e9e8)" d="M 99.654545 234.940475 
L 99.654545 233.392901 
" style="fill:none;stroke:#440154;stroke-width:2;"/>
    <path clip-path="url(#p677147e9e8)" d="M 107.263636 232.068678 
L 107.263636 230.251768 
" style="fill:none;stroke:#440154;stroke-width:2;"/>
    <path clip-path="url(#p677147e9e8)" d="M 114.872727 225.986857 
L 114.872727 223.137944 
" style="fill:none;stroke:#440154;stroke-width:2;"/>
    <path clip-path="url(#p677147e9e8)" d="M 122.481818 220.696769 
L 122.481818 217.328331 
" style="fill:none;stroke:#440154;stroke-width:2;"/>
    <path clip-path="url(#p677147e9e8)" d="M 130.090909 201.187382 
L 130.090909 196.762388 
" style="fill:none;stroke:#440154;stroke-width:2;"/>
    <path clip-path="url(#p677147e9e8)" d="M 137.7 181.889129 
L 137.7 175.051649 
" style="fill:none;stroke:#440154;stroke-width:2;"/>
    <path clip-path="url(#p677147e9e8)" d="M 145.309091 188.854905 
L 145.309091 183.142242 
" style="fill:none;stroke:#440154;stroke-width:2;"/>
    <path clip-path="url(#p677147e9e8)" d="M 152.918182 176.767517 
L 152.918182 172.090466 
" style="fill:none;stroke:#440154;stroke-width:2;"/>
    <path clip-path="url(#p677147e9e8)" d="M 160.527273 150.411685 
L 160.527273 144.972166 
" style="fill:none;stroke:#440154;stroke-width:2;"/>
    <path clip-path="url(#p677147e9e8)" d="M 168.136364 143.678156 
L 168.136364 136.692533 
" style="fill:none;stroke:#440154;stroke-width:2;"/>
    <path clip-path="url(#p677147e9e8)" d="M 175.745455 115.399249 
L 175.745455 106.546765 
" style="fill:none;stroke:#440154;stroke-width:2;"/>
    <path clip-path="url(#p677147e9e8)" d="M 183.354545 94.040066 
L 183.354545 84.27088 
" style="fill:none;stroke:#440154;stroke-width:2;"/>
    <path clip-path="url(#p677147e9e8)" d="M 190.963636 77.474229 
L 190.963636 66.000602 
" style="fill:none;stroke:#440154;stroke-width:2;"/>
    <path clip-path="url(#p677147e9e8)" d="M 198.572727 70.534625 
L 198.572727 61.055579 
" style="fill:none;stroke:#440154;stroke-width:2;"/>
    <path clip-path="url(#p677147e9e8)" d="M 206.181818 71.519615 
L 206.181818 61.965542 
" style="fill:none;stroke:#440154;stroke-width:2;"/>
    <path clip-path="url(#p677147e9e8)" d="M 213.790909 56.130745 
L 213.790909 44.443636 
" style="fill:none;stroke:#440154;stroke-width:2;"/>
    <path clip-path="url(#p677147e9e8)" d="M 221.4 76.95497 
L 221.4 68.294885 
" style="fill:none;stroke:#440154;stroke-width:2;"/>
    <path clip-path="url(#p677147e9e8)" d="M 229.009091 82.663205 
L 229.009091 70.197835 
" style="fill:none;stroke:#440154;stroke-width:2;"/>
    <path clip-path="url(#p677147e9e8)" d="M 236.618182 109.558619 
L 236.618182 98.181579 
" style="fill:none;stroke:#440154;stroke-width:2;"/>
    <path clip-path="url(#p677147e9e8)" d="M 244.227273 126.639483 
L 244.227273 115.604723 
" style="fill:none;stroke:#440154;stroke-width:2;"/>
    <path clip-path="url(#p677147e9e8)" d="M 251.836364 145.648077 
L 251.836364 136.765724 
" style="fill:none;stroke:#440154;stroke-width:2;"/>
    <path clip-path="url(#p677147e9e8)" d="M 259.445455 156.09707 
L 259.445455 144.297763 
" style="fill:none;stroke:#440154;stroke-width:2;"/>
    <path clip-path="url(#p677147e9e8)" d="M 267.054545 172.604849 
L 267.054545 165.056835 
" style="fill:none;stroke:#440154;stroke-width:2;"/>
    <path clip-path="url(#p677147e9e8)" d="M 274.663636 183.511875 
L 274.663636 175.047813 
" style="fill:none;stroke:#440154;stroke-width:2;"/>
    <path clip-path="url(#p677147e9e8)" d="M 282.272727 191.486191 
L 282.272727 179.891046 
" style="fill:none;stroke:#440154;stroke-width:2;"/>
    <path clip-path="url(#p677147e9e8)" d="M 289.881818 203.063893 
L 289.881818 195.394986 
" style="fill:none;stroke:#440154;stroke-width:2;"/>
    <path clip-path="url(#p677147e9e8)" d="M 297.490909 205.30873 
L 297.490909 197.576951 
" style="fill:none;stroke:#440154;stroke-width:2;"/>
    <path clip-path="url(#p677147e9e8)" d="M 305.1 213.0705 
L 305.1 205.592758 
" style="fill:none;stroke:#440154;stroke-width:2;"/>
    <path clip-path="url(#p677147e9e8)" d="M 312.709091 219.063089 
L 312.709091 211.126277 
" style="fill:none;stroke:#440154;stroke-width:2;"/>
    <path clip-path="url(#p677147e9e8)" d="M 320.318182 227.450239 
L 320.318182 221.134618 
" style="fill:none;stroke:#440154;stroke-width:2;"/>
    <path clip-path="url(#p677147e9e8)" d="M 327.927273 228.577803 
L 327.927273 225.524896 
" style="fill:none;stroke:#440154;stroke-width:2;"/>
    <path clip-path="url(#p677147e9e8)" d="M 335.536364 235.78796 
L 335.536364 232.446852 
" style="fill:none;stroke:#440154;stroke-width:2;"/>
    <path clip-path="url(#p677147e9e8)" d="M 343.145455 238.890886 
L 343.145455 236.134047 
" style="fill:none;stroke:#440154;stroke-width:2;"/>
    <path clip-path="url(#p677147e9e8)" d="M 350.754545 236.223857 
L 350.754545 233.634662 
" style="fill:none;stroke:#440154;stroke-width:2;"/>
    <path clip-path="url(#p677147e9e8)" d="M 358.363636 236.75762 
L 358.363636 233.16612 
" style="fill:none;stroke:#440154;stroke-width:2;"/>
    <path clip-path="url(#p677147e9e8)" d="M 365.972727 237.742118 
L 365.972727 235.307652 
" style="fill:none;stroke:#440154;stroke-width:2;"/>
    <path clip-path="url(#p677147e9e8)" d="M 373.581818 240.505378 
L 373.581818 239.006186 
" style="fill:none;stroke:#440154;stroke-width:2;"/>
   </g>
   <g id="line2d_12">
    <defs>
     <path d="M 4 0 
L -4 -0 
" id="m669f39c202" style="stroke:#440154;"/>
    </defs>
    <g clip-path="url(#p677147e9e8)">
     <use style="fill:#440154;stroke:#440154;" x="69.218182" xlink:href="#m669f39c202" y="242.116364"/>
     <use style="fill:#440154;stroke:#440154;" x="76.827273" xlink:href="#m669f39c202" y="240.515003"/>
     <use style="fill:#440154;stroke:#440154;" x="84.436364" xlink:href="#m669f39c202" y="240.468438"/>
     <use style="fill:#440154;stroke:#440154;" x="92.045455" xlink:href="#m669f39c202" y="239.094807"/>
     <use style="fill:#440154;stroke:#440154;" x="99.654545" xlink:href="#m669f39c202" y="234.940475"/>
     <use style="fill:#440154;stroke:#440154;" x="107.263636" xlink:href="#m669f39c202" y="232.068678"/>
     <use style="fill:#440154;stroke:#440154;" x="114.872727" xlink:href="#m669f39c202" y="225.986857"/>
     <use style="fill:#440154;stroke:#440154;" x="122.481818" xlink:href="#m669f39c202" y="220.696769"/>
     <use style="fill:#440154;stroke:#440154;" x="130.090909" xlink:href="#m669f39c202" y="201.187382"/>
     <use style="fill:#440154;stroke:#440154;" x="137.7" xlink:href="#m669f39c202" y="181.889129"/>
     <use style="fill:#440154;stroke:#440154;" x="145.309091" xlink:href="#m669f39c202" y="188.854905"/>
     <use style="fill:#440154;stroke:#440154;" x="152.918182" xlink:href="#m669f39c202" y="176.767517"/>
     <use style="fill:#440154;stroke:#440154;" x="160.527273" xlink:href="#m669f39c202" y="150.411685"/>
     <use style="fill:#440154;stroke:#440154;" x="168.136364" xlink:href="#m669f39c202" y="143.678156"/>
     <use style="fill:#440154;stroke:#440154;" x="175.745455" xlink:href="#m669f39c202" y="115.399249"/>
     <use style="fill:#440154;stroke:#440154;" x="183.354545" xlink:href="#m669f39c202" y="94.040066"/>
     <use style="fill:#440154;stroke:#440154;" x="190.963636" xlink:href="#m669f39c202" y="77.474229"/>
     <use style="fill:#440154;stroke:#440154;" x="198.572727" xlink:href="#m669f39c202" y="70.534625"/>
     <use style="fill:#440154;stroke:#440154;" x="206.181818" xlink:href="#m669f39c202" y="71.519615"/>
     <use style="fill:#440154;stroke:#440154;" x="213.790909" xlink:href="#m669f39c202" y="56.130745"/>
     <use style="fill:#440154;stroke:#440154;" x="221.4" xlink:href="#m669f39c202" y="76.95497"/>
     <use style="fill:#440154;stroke:#440154;" x="229.009091" xlink:href="#m669f39c202" y="82.663205"/>
     <use style="fill:#440154;stroke:#440154;" x="236.618182" xlink:href="#m669f39c202" y="109.558619"/>
     <use style="fill:#440154;stroke:#440154;" x="244.227273" xlink:href="#m669f39c202" y="126.639483"/>
     <use style="fill:#440154;stroke:#440154;" x="251.836364" xlink:href="#m669f39c202" y="145.648077"/>
     <use style="fill:#440154;stroke:#440154;" x="259.445455" xlink:href="#m669f39c202" y="156.09707"/>
     <use style="fill:#440154;stroke:#440154;" x="267.054545" xlink:href="#m669f39c202" y="172.604849"/>
     <use style="fill:#440154;stroke:#440154;" x="274.663636" xlink:href="#m669f39c202" y="183.511875"/>
     <use style="fill:#440154;stroke:#440154;" x="282.272727" xlink:href="#m669f39c202" y="191.486191"/>
     <use style="fill:#440154;stroke:#440154;" x="289.881818" xlink:href="#m669f39c202" y="203.063893"/>
     <use style="fill:#440154;stroke:#440154;" x="297.490909" xlink:href="#m669f39c202" y="205.30873"/>
     <use style="fill:#440154;stroke:#440154;" x="305.1" xlink:href="#m669f39c202" y="213.0705"/>
     <use style="fill:#440154;stroke:#440154;" x="312.709091" xlink:href="#m669f39c202" y="219.063089"/>
     <use style="fill:#440154;stroke:#440154;" x="320.318182" xlink:href="#m669f39c202" y="227.450239"/>
     <use style="fill:#440154;stroke:#440154;" x="327.927273" xlink:href="#m669f39c202" y="228.577803"/>
     <use style="fill:#440154;stroke:#440154;" x="335.536364" xlink:href="#m669f39c202" y="235.78796"/>
     <use style="fill:#440154;stroke:#440154;" x="343.145455" xlink:href="#m669f39c202" y="238.890886"/>
     <use style="fill:#440154;stroke:#440154;" x="350.754545" xlink:href="#m669f39c202" y="236.223857"/>
     <use style="fill:#440154;stroke:#440154;" x="358.363636" xlink:href="#m669f39c202" y="236.75762"/>
     <use style="fill:#440154;stroke:#440154;" x="365.972727" xlink:href="#m669f39c202" y="237.742118"/>
     <use style="fill:#440154;stroke:#440154;" x="373.581818" xlink:href="#m669f39c202" y="240.505378"/>
    </g>
   </g>
   <g id="line2d_13">
    <g clip-path="url(#p677147e9e8)">
     <use style="fill:#440154;stroke:#440154;" x="69.218182" xlink:href="#m669f39c202" y="241.762937"/>
     <use style="fill:#440154;stroke:#440154;" x="76.827273" xlink:href="#m669f39c202" y="239.353821"/>
     <use style="fill:#440154;stroke:#440154;" x="84.436364" xlink:href="#m669f39c202" y="239.564171"/>
     <use style="fill:#440154;stroke:#440154;" x="92.045455" xlink:href="#m669f39c202" y="237.863328"/>
     <use style="fill:#440154;stroke:#440154;" x="99.654545" xlink:href="#m669f39c202" y="233.392901"/>
     <use style="fill:#440154;stroke:#440154;" x="107.263636" xlink:href="#m669f39c202" y="230.251768"/>
     <use style="fill:#440154;stroke:#440154;" x="114.872727" xlink:href="#m669f39c202" y="223.137944"/>
     <use style="fill:#440154;stroke:#440154;" x="122.481818" xlink:href="#m669f39c202" y="217.328331"/>
     <use style="fill:#440154;stroke:#440154;" x="130.090909" xlink:href="#m669f39c202" y="196.762388"/>
     <use style="fill:#440154;stroke:#440154;" x="137.7" xlink:href="#m669f39c202" y="175.051649"/>
     <use style="fill:#440154;stroke:#440154;" x="145.309091" xlink:href="#m669f39c202" y="183.142242"/>
     <use style="fill:#440154;stroke:#440154;" x="152.918182" xlink:href="#m669f39c202" y="172.090466"/>
     <use style="fill:#440154;stroke:#440154;" x="160.527273" xlink:href="#m669f39c202" y="144.972166"/>
     <use style="fill:#440154;stroke:#440154;" x="168.136364" xlink:href="#m669f39c202" y="136.692533"/>
     <use style="fill:#440154;stroke:#440154;" x="175.745455" xlink:href="#m669f39c202" y="106.546765"/>
     <use style="fill:#440154;stroke:#440154;" x="183.354545" xlink:href="#m669f39c202" y="84.27088"/>
     <use style="fill:#440154;stroke:#440154;" x="190.963636" xlink:href="#m669f39c202" y="66.000602"/>
     <use style="fill:#440154;stroke:#440154;" x="198.572727" xlink:href="#m669f39c202" y="61.055579"/>
     <use style="fill:#440154;stroke:#440154;" x="206.181818" xlink:href="#m669f39c202" y="61.965542"/>
     <use style="fill:#440154;stroke:#440154;" x="213.790909" xlink:href="#m669f39c202" y="44.443636"/>
     <use style="fill:#440154;stroke:#440154;" x="221.4" xlink:href="#m669f39c202" y="68.294885"/>
     <use style="fill:#440154;stroke:#440154;" x="229.009091" xlink:href="#m669f39c202" y="70.197835"/>
     <use style="fill:#440154;stroke:#440154;" x="236.618182" xlink:href="#m669f39c202" y="98.181579"/>
     <use style="fill:#440154;stroke:#440154;" x="244.227273" xlink:href="#m669f39c202" y="115.604723"/>
     <use style="fill:#440154;stroke:#440154;" x="251.836364" xlink:href="#m669f39c202" y="136.765724"/>
     <use style="fill:#440154;stroke:#440154;" x="259.445455" xlink:href="#m669f39c202" y="144.297763"/>
     <use style="fill:#440154;stroke:#440154;" x="267.054545" xlink:href="#m669f39c202" y="165.056835"/>
     <use style="fill:#440154;stroke:#440154;" x="274.663636" xlink:href="#m669f39c202" y="175.047813"/>
     <use style="fill:#440154;stroke:#440154;" x="282.272727" xlink:href="#m669f39c202" y="179.891046"/>
     <use style="fill:#440154;stroke:#440154;" x="289.881818" xlink:href="#m669f39c202" y="195.394986"/>
     <use style="fill:#440154;stroke:#440154;" x="297.490909" xlink:href="#m669f39c202" y="197.576951"/>
     <use style="fill:#440154;stroke:#440154;" x="305.1" xlink:href="#m669f39c202" y="205.592758"/>
     <use style="fill:#440154;stroke:#440154;" x="312.709091" xlink:href="#m669f39c202" y="211.126277"/>
     <use style="fill:#440154;stroke:#440154;" x="320.318182" xlink:href="#m669f39c202" y="221.134618"/>
     <use style="fill:#440154;stroke:#440154;" x="327.927273" xlink:href="#m669f39c202" y="225.524896"/>
     <use style="fill:#440154;stroke:#440154;" x="335.536364" xlink:href="#m669f39c202" y="232.446852"/>
     <use style="fill:#440154;stroke:#440154;" x="343.145455" xlink:href="#m669f39c202" y="236.134047"/>
     <use style="fill:#440154;stroke:#440154;" x="350.754545" xlink:href="#m669f39c202" y="233.634662"/>
     <use style="fill:#440154;stroke:#440154;" x="358.363636" xlink:href="#m669f39c202" y="233.16612"/>
     <use style="fill:#440154;stroke:#440154;" x="365.972727" xlink:href="#m669f39c202" y="235.307652"/>
     <use style="fill:#440154;stroke:#440154;" x="373.581818" xlink:href="#m669f39c202" y="239.006186"/>
    </g>
   </g>
   <g id="line2d_14">
    <path clip-path="url(#p677147e9e8)" d="M 69.218182 241.93965 
L 76.827273 239.934412 
L 84.436364 240.016305 
L 92.045455 238.479067 
L 99.654545 234.166688 
L 107.263636 231.160223 
L 114.872727 224.5624 
L 122.481818 219.01255 
L 130.090909 198.974885 
L 137.7 178.470389 
L 145.309091 185.998574 
L 152.918182 174.428992 
L 160.527273 147.691925 
L 168.136364 140.185345 
L 175.745455 110.973007 
L 183.354545 89.155473 
L 190.963636 71.737415 
L 198.572727 65.795102 
L 206.181818 66.742578 
L 213.790909 50.287191 
L 221.4 72.624928 
L 229.009091 76.43052 
L 236.618182 103.870099 
L 244.227273 121.122103 
L 251.836364 141.2069 
L 259.445455 150.197416 
L 267.054545 168.830842 
L 274.663636 179.279844 
L 282.272727 185.688619 
L 289.881818 199.22944 
L 297.490909 201.44284 
L 305.1 209.331629 
L 312.709091 215.094683 
L 320.318182 224.292428 
L 327.927273 227.051349 
L 335.536364 234.117406 
L 343.145455 237.512467 
L 350.754545 234.929259 
L 358.363636 234.96187 
L 365.972727 236.524885 
L 373.581818 239.755782 
" style="fill:none;stroke:#440154;stroke-linecap:square;stroke-width:2;"/>
    <defs>
     <path d="M 0 3 
C 0.795609 3 1.55874 2.683901 2.12132 2.12132 
C 2.683901 1.55874 3 0.795609 3 0 
C 3 -0.795609 2.683901 -1.55874 2.12132 -2.12132 
C 1.55874 -2.683901 0.795609 -3 0 -3 
C -0.795609 -3 -1.55874 -2.683901 -2.12132 -2.12132 
C -2.683901 -1.55874 -3 -0.795609 -3 0 
C -3 0.795609 -2.683901 1.55874 -2.12132 2.12132 
C -1.55874 2.683901 -0.795609 3 0 3 
z
" id="m87cc8adf76" style="stroke:#440154;"/>
    </defs>
    <g clip-path="url(#p677147e9e8)">
     <use style="fill:#440154;stroke:#440154;" x="69.218182" xlink:href="#m87cc8adf76" y="241.93965"/>
     <use style="fill:#440154;stroke:#440154;" x="76.827273" xlink:href="#m87cc8adf76" y="239.934412"/>
     <use style="fill:#440154;stroke:#440154;" x="84.436364" xlink:href="#m87cc8adf76" y="240.016305"/>
     <use style="fill:#440154;stroke:#440154;" x="92.045455" xlink:href="#m87cc8adf76" y="238.479067"/>
     <use style="fill:#440154;stroke:#440154;" x="99.654545" xlink:href="#m87cc8adf76" y="234.166688"/>
     <use style="fill:#440154;stroke:#440154;" x="107.263636" xlink:href="#m87cc8adf76" y="231.160223"/>
     <use style="fill:#440154;stroke:#440154;" x="114.872727" xlink:href="#m87cc8adf76" y="224.5624"/>
     <use style="fill:#440154;stroke:#440154;" x="122.481818" xlink:href="#m87cc8adf76" y="219.01255"/>
     <use style="fill:#440154;stroke:#440154;" x="130.090909" xlink:href="#m87cc8adf76" y="198.974885"/>
     <use style="fill:#440154;stroke:#440154;" x="137.7" xlink:href="#m87cc8adf76" y="178.470389"/>
     <use style="fill:#440154;stroke:#440154;" x="145.309091" xlink:href="#m87cc8adf76" y="185.998574"/>
     <use style="fill:#440154;stroke:#440154;" x="152.918182" xlink:href="#m87cc8adf76" y="174.428992"/>
     <use style="fill:#440154;stroke:#440154;" x="160.527273" xlink:href="#m87cc8adf76" y="147.691925"/>
     <use style="fill:#440154;stroke:#440154;" x="168.136364" xlink:href="#m87cc8adf76" y="140.185345"/>
     <use style="fill:#440154;stroke:#440154;" x="175.745455" xlink:href="#m87cc8adf76" y="110.973007"/>
     <use style="fill:#440154;stroke:#440154;" x="183.354545" xlink:href="#m87cc8adf76" y="89.155473"/>
     <use style="fill:#440154;stroke:#440154;" x="190.963636" xlink:href="#m87cc8adf76" y="71.737415"/>
     <use style="fill:#440154;stroke:#440154;" x="198.572727" xlink:href="#m87cc8adf76" y="65.795102"/>
     <use style="fill:#440154;stroke:#440154;" x="206.181818" xlink:href="#m87cc8adf76" y="66.742578"/>
     <use style="fill:#440154;stroke:#440154;" x="213.790909" xlink:href="#m87cc8adf76" y="50.287191"/>
     <use style="fill:#440154;stroke:#440154;" x="221.4" xlink:href="#m87cc8adf76" y="72.624928"/>
     <use style="fill:#440154;stroke:#440154;" x="229.009091" xlink:href="#m87cc8adf76" y="76.43052"/>
     <use style="fill:#440154;stroke:#440154;" x="236.618182" xlink:href="#m87cc8adf76" y="103.870099"/>
     <use style="fill:#440154;stroke:#440154;" x="244.227273" xlink:href="#m87cc8adf76" y="121.122103"/>
     <use style="fill:#440154;stroke:#440154;" x="251.836364" xlink:href="#m87cc8adf76" y="141.2069"/>
     <use style="fill:#440154;stroke:#440154;" x="259.445455" xlink:href="#m87cc8adf76" y="150.197416"/>
     <use style="fill:#440154;stroke:#440154;" x="267.054545" xlink:href="#m87cc8adf76" y="168.830842"/>
     <use style="fill:#440154;stroke:#440154;" x="274.663636" xlink:href="#m87cc8adf76" y="179.279844"/>
     <use style="fill:#440154;stroke:#440154;" x="282.272727" xlink:href="#m87cc8adf76" y="185.688619"/>
     <use style="fill:#440154;stroke:#440154;" x="289.881818" xlink:href="#m87cc8adf76" y="199.22944"/>
     <use style="fill:#440154;stroke:#440154;" x="297.490909" xlink:href="#m87cc8adf76" y="201.44284"/>
     <use style="fill:#440154;stroke:#440154;" x="305.1" xlink:href="#m87cc8adf76" y="209.331629"/>
     <use style="fill:#440154;stroke:#440154;" x="312.709091" xlink:href="#m87cc8adf76" y="215.094683"/>
     <use style="fill:#440154;stroke:#440154;" x="320.318182" xlink:href="#m87cc8adf76" y="224.292428"/>
     <use style="fill:#440154;stroke:#440154;" x="327.927273" xlink:href="#m87cc8adf76" y="227.051349"/>
     <use style="fill:#440154;stroke:#440154;" x="335.536364" xlink:href="#m87cc8adf76" y="234.117406"/>
     <use style="fill:#440154;stroke:#440154;" x="343.145455" xlink:href="#m87cc8adf76" y="237.512467"/>
     <use style="fill:#440154;stroke:#440154;" x="350.754545" xlink:href="#m87cc8adf76" y="234.929259"/>
     <use style="fill:#440154;stroke:#440154;" x="358.363636" xlink:href="#m87cc8adf76" y="234.96187"/>
     <use style="fill:#440154;stroke:#440154;" x="365.972727" xlink:href="#m87cc8adf76" y="236.524885"/>
     <use style="fill:#440154;stroke:#440154;" x="373.581818" xlink:href="#m87cc8adf76" y="239.755782"/>
    </g>
   </g>
   <g id="patch_3">
    <path d="M 54 252 
L 54 34.56 
" style="fill:none;stroke:#000000;stroke-linecap:square;stroke-linejoin:miter;stroke-width:0.8;"/>
   </g>
   <g id="patch_4">
    <path d="M 388.8 252 
L 388.8 34.56 
" style="fill:none;stroke:#000000;stroke-linecap:square;stroke-linejoin:miter;stroke-width:0.8;"/>
   </g>
   <g id="patch_5">
    <path d="M 54 252 
L 388.8 252 
" style="fill:none;stroke:#000000;stroke-linecap:square;stroke-linejoin:miter;stroke-width:0.8;"/>
   </g>
   <g id="patch_6">
    <path d="M 54 34.56 
L 388.8 34.56 
" style="fill:none;stroke:#000000;stroke-linecap:square;stroke-linejoin:miter;stroke-width:0.8;"/>
   </g>
  </g>
  <g id="axes_2">
   <g id="matplotlib.axis_3">
    <g id="ytick_7">
     <g id="line2d_15">
      <defs>
       <path d="M 0 0 
L 3.5 0 
" id="mf0d5df8b78" style="stroke:#000000;stroke-width:0.8;"/>
      </defs>
      <g>
       <use style="stroke:#000000;stroke-width:0.8;" x="388.8" xlink:href="#mf0d5df8b78" y="242.125109"/>
      </g>
     </g>
     <g id="text_14">
      <!-- 0.0 -->
      <g transform="translate(395.8 248.203859)scale(0.16 -0.16)">
       <use xlink:href="#DejaVuSans-30"/>
       <use x="63.623047" xlink:href="#DejaVuSans-2e"/>
       <use x="95.410156" xlink:href="#DejaVuSans-30"/>
      </g>
     </g>
    </g>
    <g id="ytick_8">
     <g id="line2d_16">
      <g>
       <use style="stroke:#000000;stroke-width:0.8;" x="388.8" xlink:href="#mf0d5df8b78" y="202.49837"/>
      </g>
     </g>
     <g id="text_15">
      <!-- 0.2 -->
      <g transform="translate(395.8 208.57712)scale(0.16 -0.16)">
       <use xlink:href="#DejaVuSans-30"/>
       <use x="63.623047" xlink:href="#DejaVuSans-2e"/>
       <use x="95.410156" xlink:href="#DejaVuSans-32"/>
      </g>
     </g>
    </g>
    <g id="ytick_9">
     <g id="line2d_17">
      <g>
       <use style="stroke:#000000;stroke-width:0.8;" x="388.8" xlink:href="#mf0d5df8b78" y="162.871631"/>
      </g>
     </g>
     <g id="text_16">
      <!-- 0.4 -->
      <g transform="translate(395.8 168.950381)scale(0.16 -0.16)">
       <use xlink:href="#DejaVuSans-30"/>
       <use x="63.623047" xlink:href="#DejaVuSans-2e"/>
       <use x="95.410156" xlink:href="#DejaVuSans-34"/>
      </g>
     </g>
    </g>
    <g id="ytick_10">
     <g id="line2d_18">
      <g>
       <use style="stroke:#000000;stroke-width:0.8;" x="388.8" xlink:href="#mf0d5df8b78" y="123.244892"/>
      </g>
     </g>
     <g id="text_17">
      <!-- 0.6 -->
      <g transform="translate(395.8 129.323642)scale(0.16 -0.16)">
       <use xlink:href="#DejaVuSans-30"/>
       <use x="63.623047" xlink:href="#DejaVuSans-2e"/>
       <use x="95.410156" xlink:href="#DejaVuSans-36"/>
      </g>
     </g>
    </g>
    <g id="ytick_11">
     <g id="line2d_19">
      <g>
       <use style="stroke:#000000;stroke-width:0.8;" x="388.8" xlink:href="#mf0d5df8b78" y="83.618152"/>
      </g>
     </g>
     <g id="text_18">
      <!-- 0.8 -->
      <g transform="translate(395.8 89.696902)scale(0.16 -0.16)">
       <defs>
        <path d="M 2034 2216 
Q 1584 2216 1326 1975 
Q 1069 1734 1069 1313 
Q 1069 891 1326 650 
Q 1584 409 2034 409 
Q 2484 409 2743 651 
Q 3003 894 3003 1313 
Q 3003 1734 2745 1975 
Q 2488 2216 2034 2216 
z
M 1403 2484 
Q 997 2584 770 2862 
Q 544 3141 544 3541 
Q 544 4100 942 4425 
Q 1341 4750 2034 4750 
Q 2731 4750 3128 4425 
Q 3525 4100 3525 3541 
Q 3525 3141 3298 2862 
Q 3072 2584 2669 2484 
Q 3125 2378 3379 2068 
Q 3634 1759 3634 1313 
Q 3634 634 3220 271 
Q 2806 -91 2034 -91 
Q 1263 -91 848 271 
Q 434 634 434 1313 
Q 434 1759 690 2068 
Q 947 2378 1403 2484 
z
M 1172 3481 
Q 1172 3119 1398 2916 
Q 1625 2713 2034 2713 
Q 2441 2713 2670 2916 
Q 2900 3119 2900 3481 
Q 2900 3844 2670 4047 
Q 2441 4250 2034 4250 
Q 1625 4250 1398 4047 
Q 1172 3844 1172 3481 
z
" id="DejaVuSans-38" transform="scale(0.015625)"/>
       </defs>
       <use xlink:href="#DejaVuSans-30"/>
       <use x="63.623047" xlink:href="#DejaVuSans-2e"/>
       <use x="95.410156" xlink:href="#DejaVuSans-38"/>
      </g>
     </g>
    </g>
    <g id="ytick_12">
     <g id="line2d_20">
      <g>
       <use style="stroke:#000000;stroke-width:0.8;" x="388.8" xlink:href="#mf0d5df8b78" y="43.991413"/>
      </g>
     </g>
     <g id="text_19">
      <!-- 1.0 -->
      <g transform="translate(395.8 50.070163)scale(0.16 -0.16)">
       <use xlink:href="#DejaVuSans-31"/>
       <use x="63.623047" xlink:href="#DejaVuSans-2e"/>
       <use x="95.410156" xlink:href="#DejaVuSans-30"/>
      </g>
     </g>
    </g>
    <g id="text_20">
     <!-- Wrapping probability -->
     <g style="fill:#21918c;" transform="translate(438.922188 237.210469)rotate(-90)scale(0.18 -0.18)">
      <defs>
       <path d="M 213 4666 
L 850 4666 
L 1831 722 
L 2809 4666 
L 3519 4666 
L 4500 722 
L 5478 4666 
L 6119 4666 
L 4947 0 
L 4153 0 
L 3169 4050 
L 2175 0 
L 1381 0 
L 213 4666 
z
" id="DejaVuSans-57" transform="scale(0.015625)"/>
       <path d="M 1159 525 
L 1159 -1331 
L 581 -1331 
L 581 3500 
L 1159 3500 
L 1159 2969 
Q 1341 3281 1617 3432 
Q 1894 3584 2278 3584 
Q 2916 3584 3314 3078 
Q 3713 2572 3713 1747 
Q 3713 922 3314 415 
Q 2916 -91 2278 -91 
Q 1894 -91 1617 61 
Q 1341 213 1159 525 
z
M 3116 1747 
Q 3116 2381 2855 2742 
Q 2594 3103 2138 3103 
Q 1681 3103 1420 2742 
Q 1159 2381 1159 1747 
Q 1159 1113 1420 752 
Q 1681 391 2138 391 
Q 2594 391 2855 752 
Q 3116 1113 3116 1747 
z
" id="DejaVuSans-70" transform="scale(0.015625)"/>
       <path d="M 2906 1791 
Q 2906 2416 2648 2759 
Q 2391 3103 1925 3103 
Q 1463 3103 1205 2759 
Q 947 2416 947 1791 
Q 947 1169 1205 825 
Q 1463 481 1925 481 
Q 2391 481 2648 825 
Q 2906 1169 2906 1791 
z
M 3481 434 
Q 3481 -459 3084 -895 
Q 2688 -1331 1869 -1331 
Q 1566 -1331 1297 -1286 
Q 1028 -1241 775 -1147 
L 775 -588 
Q 1028 -725 1275 -790 
Q 1522 -856 1778 -856 
Q 2344 -856 2625 -561 
Q 2906 -266 2906 331 
L 2906 616 
Q 2728 306 2450 153 
Q 2172 0 1784 0 
Q 1141 0 747 490 
Q 353 981 353 1791 
Q 353 2603 747 3093 
Q 1141 3584 1784 3584 
Q 2172 3584 2450 3431 
Q 2728 3278 2906 2969 
L 2906 3500 
L 3481 3500 
L 3481 434 
z
" id="DejaVuSans-67" transform="scale(0.015625)"/>
       <path d="M 3116 1747 
Q 3116 2381 2855 2742 
Q 2594 3103 2138 3103 
Q 1681 3103 1420 2742 
Q 1159 2381 1159 1747 
Q 1159 1113 1420 752 
Q 1681 391 2138 391 
Q 2594 391 2855 752 
Q 3116 1113 3116 1747 
z
M 1159 2969 
Q 1341 3281 1617 3432 
Q 1894 3584 2278 3584 
Q 2916 3584 3314 3078 
Q 3713 2572 3713 1747 
Q 3713 922 3314 415 
Q 2916 -91 2278 -91 
Q 1894 -91 1617 61 
Q 1341 213 1159 525 
L 1159 0 
L 581 0 
L 581 4863 
L 1159 4863 
L 1159 2969 
z
" id="DejaVuSans-62" transform="scale(0.015625)"/>
       <path d="M 603 4863 
L 1178 4863 
L 1178 0 
L 603 0 
L 603 4863 
z
" id="DejaVuSans-6c" transform="scale(0.015625)"/>
      </defs>
      <use xlink:href="#DejaVuSans-57"/>
      <use x="94.376953" xlink:href="#DejaVuSans-72"/>
      <use x="135.490234" xlink:href="#DejaVuSans-61"/>
      <use x="196.769531" xlink:href="#DejaVuSans-70"/>
      <use x="260.246094" xlink:href="#DejaVuSans-70"/>
      <use x="323.722656" xlink:href="#DejaVuSans-69"/>
      <use x="351.505859" xlink:href="#DejaVuSans-6e"/>
      <use x="414.884766" xlink:href="#DejaVuSans-67"/>
      <use x="478.361328" xlink:href="#DejaVuSans-20"/>
      <use x="510.148438" xlink:href="#DejaVuSans-70"/>
      <use x="573.625" xlink:href="#DejaVuSans-72"/>
      <use x="612.488281" xlink:href="#DejaVuSans-6f"/>
      <use x="673.669922" xlink:href="#DejaVuSans-62"/>
      <use x="737.146484" xlink:href="#DejaVuSans-61"/>
      <use x="798.425781" xlink:href="#DejaVuSans-62"/>
      <use x="861.902344" xlink:href="#DejaVuSans-69"/>
      <use x="889.685547" xlink:href="#DejaVuSans-6c"/>
      <use x="917.46875" xlink:href="#DejaVuSans-69"/>
      <use x="945.251953" xlink:href="#DejaVuSans-74"/>
      <use x="984.460938" xlink:href="#DejaVuSans-79"/>
     </g>
    </g>
   </g>
   <g id="LineCollection_2">
    <path clip-path="url(#p677147e9e8)" d="M 69.218182 242.116364 
L 69.218182 242.110537 
" style="fill:none;stroke:#21918c;stroke-width:2;"/>
    <path clip-path="url(#p677147e9e8)" d="M 76.827273 242.09048 
L 76.827273 241.976425 
" style="fill:none;stroke:#21918c;stroke-width:2;"/>
    <path clip-path="url(#p677147e9e8)" d="M 84.436364 242.09558 
L 84.436364 242.067834 
" style="fill:none;stroke:#21918c;stroke-width:2;"/>
    <path clip-path="url(#p677147e9e8)" d="M 92.045455 242.055142 
L 92.045455 242.001502 
" style="fill:none;stroke:#21918c;stroke-width:2;"/>
    <path clip-path="url(#p677147e9e8)" d="M 99.654545 241.965538 
L 99.654545 241.839892 
" style="fill:none;stroke:#21918c;stroke-width:2;"/>
    <path clip-path="url(#p677147e9e8)" d="M 107.263636 241.839636 
L 107.263636 241.747724 
" style="fill:none;stroke:#21918c;stroke-width:2;"/>
    <path clip-path="url(#p677147e9e8)" d="M 114.872727 241.551255 
L 114.872727 241.360427 
" style="fill:none;stroke:#21918c;stroke-width:2;"/>
    <path clip-path="url(#p677147e9e8)" d="M 122.481818 241.069708 
L 122.481818 240.722843 
" style="fill:none;stroke:#21918c;stroke-width:2;"/>
    <path clip-path="url(#p677147e9e8)" d="M 130.090909 239.374164 
L 130.090909 238.702152 
" style="fill:none;stroke:#21918c;stroke-width:2;"/>
    <path clip-path="url(#p677147e9e8)" d="M 137.7 237.798178 
L 137.7 236.807439 
" style="fill:none;stroke:#21918c;stroke-width:2;"/>
    <path clip-path="url(#p677147e9e8)" d="M 145.309091 237.786028 
L 145.309091 237.077969 
" style="fill:none;stroke:#21918c;stroke-width:2;"/>
    <path clip-path="url(#p677147e9e8)" d="M 152.918182 236.281316 
L 152.918182 235.313402 
" style="fill:none;stroke:#21918c;stroke-width:2;"/>
    <path clip-path="url(#p677147e9e8)" d="M 160.527273 230.950035 
L 160.527273 229.372222 
" style="fill:none;stroke:#21918c;stroke-width:2;"/>
    <path clip-path="url(#p677147e9e8)" d="M 168.136364 228.468702 
L 168.136364 226.174167 
" style="fill:none;stroke:#21918c;stroke-width:2;"/>
    <path clip-path="url(#p677147e9e8)" d="M 175.745455 219.568858 
L 175.745455 215.825379 
" style="fill:none;stroke:#21918c;stroke-width:2;"/>
    <path clip-path="url(#p677147e9e8)" d="M 183.354545 209.637937 
L 183.354545 204.965551 
" style="fill:none;stroke:#21918c;stroke-width:2;"/>
    <path clip-path="url(#p677147e9e8)" d="M 190.963636 198.047207 
L 190.963636 193.425504 
" style="fill:none;stroke:#21918c;stroke-width:2;"/>
    <path clip-path="url(#p677147e9e8)" d="M 198.572727 183.623874 
L 198.572727 178.946141 
" style="fill:none;stroke:#21918c;stroke-width:2;"/>
    <path clip-path="url(#p677147e9e8)" d="M 206.181818 161.881956 
L 206.181818 155.449548 
" style="fill:none;stroke:#21918c;stroke-width:2;"/>
    <path clip-path="url(#p677147e9e8)" d="M 213.790909 154.049687 
L 213.790909 147.580292 
" style="fill:none;stroke:#21918c;stroke-width:2;"/>
    <path clip-path="url(#p677147e9e8)" d="M 221.4 128.139534 
L 221.4 119.027394 
" style="fill:none;stroke:#21918c;stroke-width:2;"/>
    <path clip-path="url(#p677147e9e8)" d="M 229.009091 120.907336 
L 229.009091 113.515963 
" style="fill:none;stroke:#21918c;stroke-width:2;"/>
    <path clip-path="url(#p677147e9e8)" d="M 236.618182 93.464098 
L 236.618182 87.914683 
" style="fill:none;stroke:#21918c;stroke-width:2;"/>
    <path clip-path="url(#p677147e9e8)" d="M 244.227273 90.7577 
L 244.227273 84.797671 
" style="fill:none;stroke:#21918c;stroke-width:2;"/>
    <path clip-path="url(#p677147e9e8)" d="M 251.836364 80.070494 
L 251.836364 74.746983 
" style="fill:none;stroke:#21918c;stroke-width:2;"/>
    <path clip-path="url(#p677147e9e8)" d="M 259.445455 77.272107 
L 259.445455 71.410513 
" style="fill:none;stroke:#21918c;stroke-width:2;"/>
    <path clip-path="url(#p677147e9e8)" d="M 267.054545 68.080762 
L 267.054545 64.230785 
" style="fill:none;stroke:#21918c;stroke-width:2;"/>
    <path clip-path="url(#p677147e9e8)" d="M 274.663636 61.505683 
L 274.663636 57.661515 
" style="fill:none;stroke:#21918c;stroke-width:2;"/>
    <path clip-path="url(#p677147e9e8)" d="M 282.272727 62.909507 
L 282.272727 58.735712 
" style="fill:none;stroke:#21918c;stroke-width:2;"/>
    <path clip-path="url(#p677147e9e8)" d="M 289.881818 55.984237 
L 289.881818 53.673478 
" style="fill:none;stroke:#21918c;stroke-width:2;"/>
    <path clip-path="url(#p677147e9e8)" d="M 297.490909 55.295264 
L 297.490909 52.551671 
" style="fill:none;stroke:#21918c;stroke-width:2;"/>
    <path clip-path="url(#p677147e9e8)" d="M 305.1 52.060602 
L 305.1 49.335018 
" style="fill:none;stroke:#21918c;stroke-width:2;"/>
    <path clip-path="url(#p677147e9e8)" d="M 312.709091 49.50472 
L 312.709091 47.62694 
" style="fill:none;stroke:#21918c;stroke-width:2;"/>
    <path clip-path="url(#p677147e9e8)" d="M 320.318182 47.620731 
L 320.318182 46.529597 
" style="fill:none;stroke:#21918c;stroke-width:2;"/>
    <path clip-path="url(#p677147e9e8)" d="M 327.927273 47.432357 
L 327.927273 46.559829 
" style="fill:none;stroke:#21918c;stroke-width:2;"/>
    <path clip-path="url(#p677147e9e8)" d="M 335.536364 45.264547 
L 335.536364 44.795945 
" style="fill:none;stroke:#21918c;stroke-width:2;"/>
    <path clip-path="url(#p677147e9e8)" d="M 343.145455 45.459435 
L 343.145455 44.486538 
" style="fill:none;stroke:#21918c;stroke-width:2;"/>
    <path clip-path="url(#p677147e9e8)" d="M 350.754545 45.62872 
L 350.754545 45.024642 
" style="fill:none;stroke:#21918c;stroke-width:2;"/>
    <path clip-path="url(#p677147e9e8)" d="M 358.363636 45.744803 
L 358.363636 44.967025 
" style="fill:none;stroke:#21918c;stroke-width:2;"/>
    <path clip-path="url(#p677147e9e8)" d="M 365.972727 45.03302 
L 365.972727 44.697947 
" style="fill:none;stroke:#21918c;stroke-width:2;"/>
    <path clip-path="url(#p677147e9e8)" d="M 373.581818 44.828041 
L 373.581818 44.443636 
" style="fill:none;stroke:#21918c;stroke-width:2;"/>
   </g>
   <g id="line2d_21">
    <defs>
     <path d="M 4 0 
L -4 -0 
" id="mabec58db03" style="stroke:#21918c;"/>
    </defs>
    <g clip-path="url(#p677147e9e8)">
     <use style="fill:#21918c;stroke:#21918c;" x="69.218182" xlink:href="#mabec58db03" y="242.116364"/>
     <use style="fill:#21918c;stroke:#21918c;" x="76.827273" xlink:href="#mabec58db03" y="242.09048"/>
     <use style="fill:#21918c;stroke:#21918c;" x="84.436364" xlink:href="#mabec58db03" y="242.09558"/>
     <use style="fill:#21918c;stroke:#21918c;" x="92.045455" xlink:href="#mabec58db03" y="242.055142"/>
     <use style="fill:#21918c;stroke:#21918c;" x="99.654545" xlink:href="#mabec58db03" y="241.965538"/>
     <use style="fill:#21918c;stroke:#21918c;" x="107.263636" xlink:href="#mabec58db03" y="241.839636"/>
     <use style="fill:#21918c;stroke:#21918c;" x="114.872727" xlink:href="#mabec58db03" y="241.551255"/>
     <use style="fill:#21918c;stroke:#21918c;" x="122.481818" xlink:href="#mabec58db03" y="241.069708"/>
     <use style="fill:#21918c;stroke:#21918c;" x="130.090909" xlink:href="#mabec58db03" y="239.374164"/>
     <use style="fill:#21918c;stroke:#21918c;" x="137.7" xlink:href="#mabec58db03" y="237.798178"/>
     <use style="fill:#21918c;stroke:#21918c;" x="145.309091" xlink:href="#mabec58db03" y="237.786028"/>
     <use style="fill:#21918c;stroke:#21918c;" x="152.918182" xlink:href="#mabec58db03" y="236.281316"/>
     <use style="fill:#21918c;stroke:#21918c;" x="160.527273" xlink:href="#mabec58db03" y="230.950035"/>
     <use style="fill:#21918c;stroke:#21918c;" x="168.136364" xlink:href="#mabec58db03" y="228.468702"/>
     <use style="fill:#21918c;stroke:#21918c;" x="175.745455" xlink:href="#mabec58db03" y="219.568858"/>
     <use style="fill:#21918c;stroke:#21918c;" x="183.354545" xlink:href="#mabec58db03" y="209.637937"/>
     <use style="fill:#21918c;stroke:#21918c;" x="190.963636" xlink:href="#mabec58db03" y="198.047207"/>
     <use style="fill:#21918c;stroke:#21918c;" x="198.572727" xlink:href="#mabec58db03" y="183.623874"/>
     <use style="fill:#21918c;stroke:#21918c;" x="206.181818" xlink:href="#mabec58db03" y="161.881956"/>
     <use style="fill:#21918c;stroke:#21918c;" x="213.790909" xlink:href="#mabec58db03" y="154.049687"/>
     <use style="fill:#21918c;stroke:#21918c;" x="221.4" xlink:href="#mabec58db03" y="128.139534"/>
     <use style="fill:#21918c;stroke:#21918c;" x="229.009091" xlink:href="#mabec58db03" y="120.907336"/>
     <use style="fill:#21918c;stroke:#21918c;" x="236.618182" xlink:href="#mabec58db03" y="93.464098"/>
     <use style="fill:#21918c;stroke:#21918c;" x="244.227273" xlink:href="#mabec58db03" y="90.7577"/>
     <use style="fill:#21918c;stroke:#21918c;" x="251.836364" xlink:href="#mabec58db03" y="80.070494"/>
     <use style="fill:#21918c;stroke:#21918c;" x="259.445455" xlink:href="#mabec58db03" y="77.272107"/>
     <use style="fill:#21918c;stroke:#21918c;" x="267.054545" xlink:href="#mabec58db03" y="68.080762"/>
     <use style="fill:#21918c;stroke:#21918c;" x="274.663636" xlink:href="#mabec58db03" y="61.505683"/>
     <use style="fill:#21918c;stroke:#21918c;" x="282.272727" xlink:href="#mabec58db03" y="62.909507"/>
     <use style="fill:#21918c;stroke:#21918c;" x="289.881818" xlink:href="#mabec58db03" y="55.984237"/>
     <use style="fill:#21918c;stroke:#21918c;" x="297.490909" xlink:href="#mabec58db03" y="55.295264"/>
     <use style="fill:#21918c;stroke:#21918c;" x="305.1" xlink:href="#mabec58db03" y="52.060602"/>
     <use style="fill:#21918c;stroke:#21918c;" x="312.709091" xlink:href="#mabec58db03" y="49.50472"/>
     <use style="fill:#21918c;stroke:#21918c;" x="320.318182" xlink:href="#mabec58db03" y="47.620731"/>
     <use style="fill:#21918c;stroke:#21918c;" x="327.927273" xlink:href="#mabec58db03" y="47.432357"/>
     <use style="fill:#21918c;stroke:#21918c;" x="335.536364" xlink:href="#mabec58db03" y="45.264547"/>
     <use style="fill:#21918c;stroke:#21918c;" x="343.145455" xlink:href="#mabec58db03" y="45.459435"/>
     <use style="fill:#21918c;stroke:#21918c;" x="350.754545" xlink:href="#mabec58db03" y="45.62872"/>
     <use style="fill:#21918c;stroke:#21918c;" x="358.363636" xlink:href="#mabec58db03" y="45.744803"/>
     <use style="fill:#21918c;stroke:#21918c;" x="365.972727" xlink:href="#mabec58db03" y="45.03302"/>
     <use style="fill:#21918c;stroke:#21918c;" x="373.581818" xlink:href="#mabec58db03" y="44.828041"/>
    </g>
   </g>
   <g id="line2d_22">
    <g clip-path="url(#p677147e9e8)">
     <use style="fill:#21918c;stroke:#21918c;" x="69.218182" xlink:href="#mabec58db03" y="242.110537"/>
     <use style="fill:#21918c;stroke:#21918c;" x="76.827273" xlink:href="#mabec58db03" y="241.976425"/>
     <use style="fill:#21918c;stroke:#21918c;" x="84.436364" xlink:href="#mabec58db03" y="242.067834"/>
     <use style="fill:#21918c;stroke:#21918c;" x="92.045455" xlink:href="#mabec58db03" y="242.001502"/>
     <use style="fill:#21918c;stroke:#21918c;" x="99.654545" xlink:href="#mabec58db03" y="241.839892"/>
     <use style="fill:#21918c;stroke:#21918c;" x="107.263636" xlink:href="#mabec58db03" y="241.747724"/>
     <use style="fill:#21918c;stroke:#21918c;" x="114.872727" xlink:href="#mabec58db03" y="241.360427"/>
     <use style="fill:#21918c;stroke:#21918c;" x="122.481818" xlink:href="#mabec58db03" y="240.722843"/>
     <use style="fill:#21918c;stroke:#21918c;" x="130.090909" xlink:href="#mabec58db03" y="238.702152"/>
     <use style="fill:#21918c;stroke:#21918c;" x="137.7" xlink:href="#mabec58db03" y="236.807439"/>
     <use style="fill:#21918c;stroke:#21918c;" x="145.309091" xlink:href="#mabec58db03" y="237.077969"/>
     <use style="fill:#21918c;stroke:#21918c;" x="152.918182" xlink:href="#mabec58db03" y="235.313402"/>
     <use style="fill:#21918c;stroke:#21918c;" x="160.527273" xlink:href="#mabec58db03" y="229.372222"/>
     <use style="fill:#21918c;stroke:#21918c;" x="168.136364" xlink:href="#mabec58db03" y="226.174167"/>
     <use style="fill:#21918c;stroke:#21918c;" x="175.745455" xlink:href="#mabec58db03" y="215.825379"/>
     <use style="fill:#21918c;stroke:#21918c;" x="183.354545" xlink:href="#mabec58db03" y="204.965551"/>
     <use style="fill:#21918c;stroke:#21918c;" x="190.963636" xlink:href="#mabec58db03" y="193.425504"/>
     <use style="fill:#21918c;stroke:#21918c;" x="198.572727" xlink:href="#mabec58db03" y="178.946141"/>
     <use style="fill:#21918c;stroke:#21918c;" x="206.181818" xlink:href="#mabec58db03" y="155.449548"/>
     <use style="fill:#21918c;stroke:#21918c;" x="213.790909" xlink:href="#mabec58db03" y="147.580292"/>
     <use style="fill:#21918c;stroke:#21918c;" x="221.4" xlink:href="#mabec58db03" y="119.027394"/>
     <use style="fill:#21918c;stroke:#21918c;" x="229.009091" xlink:href="#mabec58db03" y="113.515963"/>
     <use style="fill:#21918c;stroke:#21918c;" x="236.618182" xlink:href="#mabec58db03" y="87.914683"/>
     <use style="fill:#21918c;stroke:#21918c;" x="244.227273" xlink:href="#mabec58db03" y="84.797671"/>
     <use style="fill:#21918c;stroke:#21918c;" x="251.836364" xlink:href="#mabec58db03" y="74.746983"/>
     <use style="fill:#21918c;stroke:#21918c;" x="259.445455" xlink:href="#mabec58db03" y="71.410513"/>
     <use style="fill:#21918c;stroke:#21918c;" x="267.054545" xlink:href="#mabec58db03" y="64.230785"/>
     <use style="fill:#21918c;stroke:#21918c;" x="274.663636" xlink:href="#mabec58db03" y="57.661515"/>
     <use style="fill:#21918c;stroke:#21918c;" x="282.272727" xlink:href="#mabec58db03" y="58.735712"/>
     <use style="fill:#21918c;stroke:#21918c;" x="289.881818" xlink:href="#mabec58db03" y="53.673478"/>
     <use style="fill:#21918c;stroke:#21918c;" x="297.490909" xlink:href="#mabec58db03" y="52.551671"/>
     <use style="fill:#21918c;stroke:#21918c;" x="305.1" xlink:href="#mabec58db03" y="49.335018"/>
     <use style="fill:#21918c;stroke:#21918c;" x="312.709091" xlink:href="#mabec58db03" y="47.62694"/>
     <use style="fill:#21918c;stroke:#21918c;" x="320.318182" xlink:href="#mabec58db03" y="46.529597"/>
     <use style="fill:#21918c;stroke:#21918c;" x="327.927273" xlink:href="#mabec58db03" y="46.559829"/>
     <use style="fill:#21918c;stroke:#21918c;" x="335.536364" xlink:href="#mabec58db03" y="44.795945"/>
     <use style="fill:#21918c;stroke:#21918c;" x="343.145455" xlink:href="#mabec58db03" y="44.486538"/>
     <use style="fill:#21918c;stroke:#21918c;" x="350.754545" xlink:href="#mabec58db03" y="45.024642"/>
     <use style="fill:#21918c;stroke:#21918c;" x="358.363636" xlink:href="#mabec58db03" y="44.967025"/>
     <use style="fill:#21918c;stroke:#21918c;" x="365.972727" xlink:href="#mabec58db03" y="44.697947"/>
     <use style="fill:#21918c;stroke:#21918c;" x="373.581818" xlink:href="#mabec58db03" y="44.443636"/>
    </g>
   </g>
   <g id="line2d_23">
    <path clip-path="url(#p677147e9e8)" d="M 69.218182 242.11345 
L 76.827273 242.033452 
L 84.436364 242.081707 
L 92.045455 242.028322 
L 99.654545 241.902715 
L 107.263636 241.79368 
L 114.872727 241.455841 
L 122.481818 240.896276 
L 130.090909 239.038158 
L 137.7 237.302808 
L 145.309091 237.431998 
L 152.918182 235.797359 
L 160.527273 230.161129 
L 168.136364 227.321435 
L 175.745455 217.697119 
L 183.354545 207.301744 
L 190.963636 195.736355 
L 198.572727 181.285007 
L 206.181818 158.665752 
L 213.790909 150.81499 
L 221.4 123.583464 
L 229.009091 117.211649 
L 236.618182 90.68939 
L 244.227273 87.777685 
L 251.836364 77.408738 
L 259.445455 74.34131 
L 267.054545 66.155774 
L 274.663636 59.583599 
L 282.272727 60.822609 
L 289.881818 54.828858 
L 297.490909 53.923467 
L 305.1 50.69781 
L 312.709091 48.56583 
L 320.318182 47.075164 
L 327.927273 46.996093 
L 335.536364 45.030246 
L 343.145455 44.972987 
L 350.754545 45.326681 
L 358.363636 45.355914 
L 365.972727 44.865483 
L 373.581818 44.635839 
" style="fill:none;stroke:#21918c;stroke-dasharray:7.4,3.2;stroke-dashoffset:0;stroke-width:2;"/>
    <defs>
     <path d="M 0 3 
C 0.795609 3 1.55874 2.683901 2.12132 2.12132 
C 2.683901 1.55874 3 0.795609 3 0 
C 3 -0.795609 2.683901 -1.55874 2.12132 -2.12132 
C 1.55874 -2.683901 0.795609 -3 0 -3 
C -0.795609 -3 -1.55874 -2.683901 -2.12132 -2.12132 
C -2.683901 -1.55874 -3 -0.795609 -3 0 
C -3 0.795609 -2.683901 1.55874 -2.12132 2.12132 
C -1.55874 2.683901 -0.795609 3 0 3 
z
" id="m9b2ea295f3" style="stroke:#21918c;"/>
    </defs>
    <g clip-path="url(#p677147e9e8)">
     <use style="fill:#21918c;stroke:#21918c;" x="69.218182" xlink:href="#m9b2ea295f3" y="242.11345"/>
     <use style="fill:#21918c;stroke:#21918c;" x="76.827273" xlink:href="#m9b2ea295f3" y="242.033452"/>
     <use style="fill:#21918c;stroke:#21918c;" x="84.436364" xlink:href="#m9b2ea295f3" y="242.081707"/>
     <use style="fill:#21918c;stroke:#21918c;" x="92.045455" xlink:href="#m9b2ea295f3" y="242.028322"/>
     <use style="fill:#21918c;stroke:#21918c;" x="99.654545" xlink:href="#m9b2ea295f3" y="241.902715"/>
     <use style="fill:#21918c;stroke:#21918c;" x="107.263636" xlink:href="#m9b2ea295f3" y="241.79368"/>
     <use style="fill:#21918c;stroke:#21918c;" x="114.872727" xlink:href="#m9b2ea295f3" y="241.455841"/>
     <use style="fill:#21918c;stroke:#21918c;" x="122.481818" xlink:href="#m9b2ea295f3" y="240.896276"/>
     <use style="fill:#21918c;stroke:#21918c;" x="130.090909" xlink:href="#m9b2ea295f3" y="239.038158"/>
     <use style="fill:#21918c;stroke:#21918c;" x="137.7" xlink:href="#m9b2ea295f3" y="237.302808"/>
     <use style="fill:#21918c;stroke:#21918c;" x="145.309091" xlink:href="#m9b2ea295f3" y="237.431998"/>
     <use style="fill:#21918c;stroke:#21918c;" x="152.918182" xlink:href="#m9b2ea295f3" y="235.797359"/>
     <use style="fill:#21918c;stroke:#21918c;" x="160.527273" xlink:href="#m9b2ea295f3" y="230.161129"/>
     <use style="fill:#21918c;stroke:#21918c;" x="168.136364" xlink:href="#m9b2ea295f3" y="227.321435"/>
     <use style="fill:#21918c;stroke:#21918c;" x="175.745455" xlink:href="#m9b2ea295f3" y="217.697119"/>
     <use style="fill:#21918c;stroke:#21918c;" x="183.354545" xlink:href="#m9b2ea295f3" y="207.301744"/>
     <use style="fill:#21918c;stroke:#21918c;" x="190.963636" xlink:href="#m9b2ea295f3" y="195.736355"/>
     <use style="fill:#21918c;stroke:#21918c;" x="198.572727" xlink:href="#m9b2ea295f3" y="181.285007"/>
     <use style="fill:#21918c;stroke:#21918c;" x="206.181818" xlink:href="#m9b2ea295f3" y="158.665752"/>
     <use style="fill:#21918c;stroke:#21918c;" x="213.790909" xlink:href="#m9b2ea295f3" y="150.81499"/>
     <use style="fill:#21918c;stroke:#21918c;" x="221.4" xlink:href="#m9b2ea295f3" y="123.583464"/>
     <use style="fill:#21918c;stroke:#21918c;" x="229.009091" xlink:href="#m9b2ea295f3" y="117.211649"/>
     <use style="fill:#21918c;stroke:#21918c;" x="236.618182" xlink:href="#m9b2ea295f3" y="90.68939"/>
     <use style="fill:#21918c;stroke:#21918c;" x="244.227273" xlink:href="#m9b2ea295f3" y="87.777685"/>
     <use style="fill:#21918c;stroke:#21918c;" x="251.836364" xlink:href="#m9b2ea295f3" y="77.408738"/>
     <use style="fill:#21918c;stroke:#21918c;" x="259.445455" xlink:href="#m9b2ea295f3" y="74.34131"/>
     <use style="fill:#21918c;stroke:#21918c;" x="267.054545" xlink:href="#m9b2ea295f3" y="66.155774"/>
     <use style="fill:#21918c;stroke:#21918c;" x="274.663636" xlink:href="#m9b2ea295f3" y="59.583599"/>
     <use style="fill:#21918c;stroke:#21918c;" x="282.272727" xlink:href="#m9b2ea295f3" y="60.822609"/>
     <use style="fill:#21918c;stroke:#21918c;" x="289.881818" xlink:href="#m9b2ea295f3" y="54.828858"/>
     <use style="fill:#21918c;stroke:#21918c;" x="297.490909" xlink:href="#m9b2ea295f3" y="53.923467"/>
     <use style="fill:#21918c;stroke:#21918c;" x="305.1" xlink:href="#m9b2ea295f3" y="50.69781"/>
     <use style="fill:#21918c;stroke:#21918c;" x="312.709091" xlink:href="#m9b2ea295f3" y="48.56583"/>
     <use style="fill:#21918c;stroke:#21918c;" x="320.318182" xlink:href="#m9b2ea295f3" y="47.075164"/>
     <use style="fill:#21918c;stroke:#21918c;" x="327.927273" xlink:href="#m9b2ea295f3" y="46.996093"/>
     <use style="fill:#21918c;stroke:#21918c;" x="335.536364" xlink:href="#m9b2ea295f3" y="45.030246"/>
     <use style="fill:#21918c;stroke:#21918c;" x="343.145455" xlink:href="#m9b2ea295f3" y="44.972987"/>
     <use style="fill:#21918c;stroke:#21918c;" x="350.754545" xlink:href="#m9b2ea295f3" y="45.326681"/>
     <use style="fill:#21918c;stroke:#21918c;" x="358.363636" xlink:href="#m9b2ea295f3" y="45.355914"/>
     <use style="fill:#21918c;stroke:#21918c;" x="365.972727" xlink:href="#m9b2ea295f3" y="44.865483"/>
     <use style="fill:#21918c;stroke:#21918c;" x="373.581818" xlink:href="#m9b2ea295f3" y="44.635839"/>
    </g>
   </g>
   <g id="patch_7">
    <path d="M 54 252 
L 54 34.56 
" style="fill:none;stroke:#000000;stroke-linecap:square;stroke-linejoin:miter;stroke-width:0.8;"/>
   </g>
   <g id="patch_8">
    <path d="M 388.8 252 
L 388.8 34.56 
" style="fill:none;stroke:#000000;stroke-linecap:square;stroke-linejoin:miter;stroke-width:0.8;"/>
   </g>
   <g id="patch_9">
    <path d="M 54 252 
L 388.8 252 
" style="fill:none;stroke:#000000;stroke-linecap:square;stroke-linejoin:miter;stroke-width:0.8;"/>
   </g>
   <g id="patch_10">
    <path d="M 54 34.56 
L 388.8 34.56 
" style="fill:none;stroke:#000000;stroke-linecap:square;stroke-linejoin:miter;stroke-width:0.8;"/>
   </g>
  </g>
 </g>
 <defs>
  <clipPath id="p677147e9e8">
   <rect height="217.44" width="334.8" x="54" y="34.56"/>
  </clipPath>
 </defs>
</svg>
