<?xml version="1.0" encoding="utf-8" standalone="no"?>
<!DOCTYPE svg PUBLIC "-//W3C//DTD SVG 1.1//EN"
  "http://www.w3.org/Graphics/SVG/1.1/DTD/svg11.dtd">
<svg height="288pt" version="1.1" viewBox="0 0 432 288" width="432pt" xmlns="http://www.w3.org/2000/svg" xmlns:xlink="http://www.w3.org/1999/xlink">
 <metadata>
  <rdf:RDF xmlns:cc="http://creativecommons.org/ns#" xmlns:dc="http://purl.org/dc/elements/1.1/" xmlns:rdf="http://www.w3.org/1999/02/22-rdf-syntax-ns#">
   <cc:Work>
    <dc:type rdf:resource="http://purl.org/dc/dcmitype/StillImage"/>
    <dc:date>2023-09-19T16:30:40.693451</dc:date>
    <dc:format>image/svg+xml</dc:format>
    <dc:creator>
     <cc:Agent>
      <dc:title>Matplotlib v3.4.3, https://matplotlib.org/</dc:title>
     </cc:Agent>
    </dc:creator>
   </cc:Work>
  </rdf:RDF>
 </metadata>
 <defs>
  <style type="text/css">*{stroke-linecap:butt;stroke-linejoin:round;}</style>
 </defs>
 <g id="figure_1">
  <g id="patch_1">
   <path d="M 0 288 
L 432 288 
L 432 0 
L 0 0 
z
" style="fill:#ffffff;"/>
  </g>
  <g id="axes_1">
   <g id="patch_2">
    <path d="M 54 252 
L 388.8 252 
L 388.8 34.56 
L 54 34.56 
z
" style="fill:#ffffff;"/>
   </g>
   <g id="matplotlib.axis_1">
    <g id="xtick_1">
     <g id="line2d_1">
      <defs>
       <path d="M 0 0 
L 0 3.5 
" id="mda782f46d1" style="stroke:#000000;stroke-width:0.8;"/>
      </defs>
      <g>
       <use style="stroke:#000000;stroke-width:0.8;" x="69.218182" xlink:href="#mda782f46d1" y="252"/>
      </g>
     </g>
     <g id="text_1">
      <!-- 0 -->
      <g transform="translate(64.128182 271.1575)scale(0.16 -0.16)">
       <defs>
        <path d="M 2034 4250 
Q 1547 4250 1301 3770 
Q 1056 3291 1056 2328 
Q 1056 1369 1301 889 
Q 1547 409 2034 409 
Q 2525 409 2770 889 
Q 3016 1369 3016 2328 
Q 3016 3291 2770 3770 
Q 2525 4250 2034 4250 
z
M 2034 4750 
Q 2819 4750 3233 4129 
Q 3647 3509 3647 2328 
Q 3647 1150 3233 529 
Q 2819 -91 2034 -91 
Q 1250 -91 836 529 
Q 422 1150 422 2328 
Q 422 3509 836 4129 
Q 1250 4750 2034 4750 
z
" id="DejaVuSans-30" transform="scale(0.015625)"/>
       </defs>
       <use xlink:href="#DejaVuSans-30"/>
      </g>
     </g>
    </g>
    <g id="xtick_2">
     <g id="line2d_2">
      <g>
       <use style="stroke:#000000;stroke-width:0.8;" x="130.090909" xlink:href="#mda782f46d1" y="252"/>
      </g>
     </g>
     <g id="text_2">
      <!-- 20 -->
      <g transform="translate(119.910909 271.1575)scale(0.16 -0.16)">
       <defs>
        <path d="M 1228 531 
L 3431 531 
L 3431 0 
L 469 0 
L 469 531 
Q 828 903 1448 1529 
Q 2069 2156 2228 2338 
Q 2531 2678 2651 2914 
Q 2772 3150 2772 3378 
Q 2772 3750 2511 3984 
Q 2250 4219 1831 4219 
Q 1534 4219 1204 4116 
Q 875 4013 500 3803 
L 500 4441 
Q 881 4594 1212 4672 
Q 1544 4750 1819 4750 
Q 2544 4750 2975 4387 
Q 3406 4025 3406 3419 
Q 3406 3131 3298 2873 
Q 3191 2616 2906 2266 
Q 2828 2175 2409 1742 
Q 1991 1309 1228 531 
z
" id="DejaVuSans-32" transform="scale(0.015625)"/>
       </defs>
       <use xlink:href="#DejaVuSans-32"/>
       <use x="63.623047" xlink:href="#DejaVuSans-30"/>
      </g>
     </g>
    </g>
    <g id="xtick_3">
     <g id="line2d_3">
      <g>
       <use style="stroke:#000000;stroke-width:0.8;" x="190.963636" xlink:href="#mda782f46d1" y="252"/>
      </g>
     </g>
     <g id="text_3">
      <!-- 40 -->
      <g transform="translate(180.783636 271.1575)scale(0.16 -0.16)">
       <defs>
        <path d="M 2419 4116 
L 825 1625 
L 2419 1625 
L 2419 4116 
z
M 2253 4666 
L 3047 4666 
L 3047 1625 
L 3713 1625 
L 3713 1100 
L 3047 1100 
L 3047 0 
L 2419 0 
L 2419 1100 
L 313 1100 
L 313 1709 
L 2253 4666 
z
" id="DejaVuSans-34" transform="scale(0.015625)"/>
       </defs>
       <use xlink:href="#DejaVuSans-34"/>
       <use x="63.623047" xlink:href="#DejaVuSans-30"/>
      </g>
     </g>
    </g>
    <g id="xtick_4">
     <g id="line2d_4">
      <g>
       <use style="stroke:#000000;stroke-width:0.8;" x="251.836364" xlink:href="#mda782f46d1" y="252"/>
      </g>
     </g>
     <g id="text_4">
      <!-- 60 -->
      <g transform="translate(241.656364 271.1575)scale(0.16 -0.16)">
       <defs>
        <path d="M 2113 2584 
Q 1688 2584 1439 2293 
Q 1191 2003 1191 1497 
Q 1191 994 1439 701 
Q 1688 409 2113 409 
Q 2538 409 2786 701 
Q 3034 994 3034 1497 
Q 3034 2003 2786 2293 
Q 2538 2584 2113 2584 
z
M 3366 4563 
L 3366 3988 
Q 3128 4100 2886 4159 
Q 2644 4219 2406 4219 
Q 1781 4219 1451 3797 
Q 1122 3375 1075 2522 
Q 1259 2794 1537 2939 
Q 1816 3084 2150 3084 
Q 2853 3084 3261 2657 
Q 3669 2231 3669 1497 
Q 3669 778 3244 343 
Q 2819 -91 2113 -91 
Q 1303 -91 875 529 
Q 447 1150 447 2328 
Q 447 3434 972 4092 
Q 1497 4750 2381 4750 
Q 2619 4750 2861 4703 
Q 3103 4656 3366 4563 
z
" id="DejaVuSans-36" transform="scale(0.015625)"/>
       </defs>
       <use xlink:href="#DejaVuSans-36"/>
       <use x="63.623047" xlink:href="#DejaVuSans-30"/>
      </g>
     </g>
    </g>
    <g id="xtick_5">
     <g id="line2d_5">
      <g>
       <use style="stroke:#000000;stroke-width:0.8;" x="312.709091" xlink:href="#mda782f46d1" y="252"/>
      </g>
     </g>
     <g id="text_5">
      <!-- 80 -->
      <g transform="translate(302.529091 271.1575)scale(0.16 -0.16)">
       <defs>
        <path d="M 2034 2216 
Q 1584 2216 1326 1975 
Q 1069 1734 1069 1313 
Q 1069 891 1326 650 
Q 1584 409 2034 409 
Q 2484 409 2743 651 
Q 3003 894 3003 1313 
Q 3003 1734 2745 1975 
Q 2488 2216 2034 2216 
z
M 1403 2484 
Q 997 2584 770 2862 
Q 544 3141 544 3541 
Q 544 4100 942 4425 
Q 1341 4750 2034 4750 
Q 2731 4750 3128 4425 
Q 3525 4100 3525 3541 
Q 3525 3141 3298 2862 
Q 3072 2584 2669 2484 
Q 3125 2378 3379 2068 
Q 3634 1759 3634 1313 
Q 3634 634 3220 271 
Q 2806 -91 2034 -91 
Q 1263 -91 848 271 
Q 434 634 434 1313 
Q 434 1759 690 2068 
Q 947 2378 1403 2484 
z
M 1172 3481 
Q 1172 3119 1398 2916 
Q 1625 2713 2034 2713 
Q 2441 2713 2670 2916 
Q 2900 3119 2900 3481 
Q 2900 3844 2670 4047 
Q 2441 4250 2034 4250 
Q 1625 4250 1398 4047 
Q 1172 3844 1172 3481 
z
" id="DejaVuSans-38" transform="scale(0.015625)"/>
       </defs>
       <use xlink:href="#DejaVuSans-38"/>
       <use x="63.623047" xlink:href="#DejaVuSans-30"/>
      </g>
     </g>
    </g>
    <g id="xtick_6">
     <g id="line2d_6">
      <g>
       <use style="stroke:#000000;stroke-width:0.8;" x="373.581818" xlink:href="#mda782f46d1" y="252"/>
      </g>
     </g>
     <g id="text_6">
      <!-- 100 -->
      <g transform="translate(358.311818 271.1575)scale(0.16 -0.16)">
       <defs>
        <path d="M 794 531 
L 1825 531 
L 1825 4091 
L 703 3866 
L 703 4441 
L 1819 4666 
L 2450 4666 
L 2450 531 
L 3481 531 
L 3481 0 
L 794 0 
L 794 531 
z
" id="DejaVuSans-31" transform="scale(0.015625)"/>
       </defs>
       <use xlink:href="#DejaVuSans-31"/>
       <use x="63.623047" xlink:href="#DejaVuSans-30"/>
       <use x="127.246094" xlink:href="#DejaVuSans-30"/>
      </g>
     </g>
    </g>
    <g id="text_7">
     <!-- Cluster size (proteins) -->
     <g transform="translate(122.587031 292.162188)scale(0.18 -0.18)">
      <defs>
       <path d="M 4122 4306 
L 4122 3641 
Q 3803 3938 3442 4084 
Q 3081 4231 2675 4231 
Q 1875 4231 1450 3742 
Q 1025 3253 1025 2328 
Q 1025 1406 1450 917 
Q 1875 428 2675 428 
Q 3081 428 3442 575 
Q 3803 722 4122 1019 
L 4122 359 
Q 3791 134 3420 21 
Q 3050 -91 2638 -91 
Q 1578 -91 968 557 
Q 359 1206 359 2328 
Q 359 3453 968 4101 
Q 1578 4750 2638 4750 
Q 3056 4750 3426 4639 
Q 3797 4528 4122 4306 
z
" id="DejaVuSans-43" transform="scale(0.015625)"/>
       <path d="M 603 4863 
L 1178 4863 
L 1178 0 
L 603 0 
L 603 4863 
z
" id="DejaVuSans-6c" transform="scale(0.015625)"/>
       <path d="M 544 1381 
L 544 3500 
L 1119 3500 
L 1119 1403 
Q 1119 906 1312 657 
Q 1506 409 1894 409 
Q 2359 409 2629 706 
Q 2900 1003 2900 1516 
L 2900 3500 
L 3475 3500 
L 3475 0 
L 2900 0 
L 2900 538 
Q 2691 219 2414 64 
Q 2138 -91 1772 -91 
Q 1169 -91 856 284 
Q 544 659 544 1381 
z
M 1991 3584 
L 1991 3584 
z
" id="DejaVuSans-75" transform="scale(0.015625)"/>
       <path d="M 2834 3397 
L 2834 2853 
Q 2591 2978 2328 3040 
Q 2066 3103 1784 3103 
Q 1356 3103 1142 2972 
Q 928 2841 928 2578 
Q 928 2378 1081 2264 
Q 1234 2150 1697 2047 
L 1894 2003 
Q 2506 1872 2764 1633 
Q 3022 1394 3022 966 
Q 3022 478 2636 193 
Q 2250 -91 1575 -91 
Q 1294 -91 989 -36 
Q 684 19 347 128 
L 347 722 
Q 666 556 975 473 
Q 1284 391 1588 391 
Q 1994 391 2212 530 
Q 2431 669 2431 922 
Q 2431 1156 2273 1281 
Q 2116 1406 1581 1522 
L 1381 1569 
Q 847 1681 609 1914 
Q 372 2147 372 2553 
Q 372 3047 722 3315 
Q 1072 3584 1716 3584 
Q 2034 3584 2315 3537 
Q 2597 3491 2834 3397 
z
" id="DejaVuSans-73" transform="scale(0.015625)"/>
       <path d="M 1172 4494 
L 1172 3500 
L 2356 3500 
L 2356 3053 
L 1172 3053 
L 1172 1153 
Q 1172 725 1289 603 
Q 1406 481 1766 481 
L 2356 481 
L 2356 0 
L 1766 0 
Q 1100 0 847 248 
Q 594 497 594 1153 
L 594 3053 
L 172 3053 
L 172 3500 
L 594 3500 
L 594 4494 
L 1172 4494 
z
" id="DejaVuSans-74" transform="scale(0.015625)"/>
       <path d="M 3597 1894 
L 3597 1613 
L 953 1613 
Q 991 1019 1311 708 
Q 1631 397 2203 397 
Q 2534 397 2845 478 
Q 3156 559 3463 722 
L 3463 178 
Q 3153 47 2828 -22 
Q 2503 -91 2169 -91 
Q 1331 -91 842 396 
Q 353 884 353 1716 
Q 353 2575 817 3079 
Q 1281 3584 2069 3584 
Q 2775 3584 3186 3129 
Q 3597 2675 3597 1894 
z
M 3022 2063 
Q 3016 2534 2758 2815 
Q 2500 3097 2075 3097 
Q 1594 3097 1305 2825 
Q 1016 2553 972 2059 
L 3022 2063 
z
" id="DejaVuSans-65" transform="scale(0.015625)"/>
       <path d="M 2631 2963 
Q 2534 3019 2420 3045 
Q 2306 3072 2169 3072 
Q 1681 3072 1420 2755 
Q 1159 2438 1159 1844 
L 1159 0 
L 581 0 
L 581 3500 
L 1159 3500 
L 1159 2956 
Q 1341 3275 1631 3429 
Q 1922 3584 2338 3584 
Q 2397 3584 2469 3576 
Q 2541 3569 2628 3553 
L 2631 2963 
z
" id="DejaVuSans-72" transform="scale(0.015625)"/>
       <path id="DejaVuSans-20" transform="scale(0.015625)"/>
       <path d="M 603 3500 
L 1178 3500 
L 1178 0 
L 603 0 
L 603 3500 
z
M 603 4863 
L 1178 4863 
L 1178 4134 
L 603 4134 
L 603 4863 
z
" id="DejaVuSans-69" transform="scale(0.015625)"/>
       <path d="M 353 3500 
L 3084 3500 
L 3084 2975 
L 922 459 
L 3084 459 
L 3084 0 
L 275 0 
L 275 525 
L 2438 3041 
L 353 3041 
L 353 3500 
z
" id="DejaVuSans-7a" transform="scale(0.015625)"/>
       <path d="M 1984 4856 
Q 1566 4138 1362 3434 
Q 1159 2731 1159 2009 
Q 1159 1288 1364 580 
Q 1569 -128 1984 -844 
L 1484 -844 
Q 1016 -109 783 600 
Q 550 1309 550 2009 
Q 550 2706 781 3412 
Q 1013 4119 1484 4856 
L 1984 4856 
z
" id="DejaVuSans-28" transform="scale(0.015625)"/>
       <path d="M 1159 525 
L 1159 -1331 
L 581 -1331 
L 581 3500 
L 1159 3500 
L 1159 2969 
Q 1341 3281 1617 3432 
Q 1894 3584 2278 3584 
Q 2916 3584 3314 3078 
Q 3713 2572 3713 1747 
Q 3713 922 3314 415 
Q 2916 -91 2278 -91 
Q 1894 -91 1617 61 
Q 1341 213 1159 525 
z
M 3116 1747 
Q 3116 2381 2855 2742 
Q 2594 3103 2138 3103 
Q 1681 3103 1420 2742 
Q 1159 2381 1159 1747 
Q 1159 1113 1420 752 
Q 1681 391 2138 391 
Q 2594 391 2855 752 
Q 3116 1113 3116 1747 
z
" id="DejaVuSans-70" transform="scale(0.015625)"/>
       <path d="M 1959 3097 
Q 1497 3097 1228 2736 
Q 959 2375 959 1747 
Q 959 1119 1226 758 
Q 1494 397 1959 397 
Q 2419 397 2687 759 
Q 2956 1122 2956 1747 
Q 2956 2369 2687 2733 
Q 2419 3097 1959 3097 
z
M 1959 3584 
Q 2709 3584 3137 3096 
Q 3566 2609 3566 1747 
Q 3566 888 3137 398 
Q 2709 -91 1959 -91 
Q 1206 -91 779 398 
Q 353 888 353 1747 
Q 353 2609 779 3096 
Q 1206 3584 1959 3584 
z
" id="DejaVuSans-6f" transform="scale(0.015625)"/>
       <path d="M 3513 2113 
L 3513 0 
L 2938 0 
L 2938 2094 
Q 2938 2591 2744 2837 
Q 2550 3084 2163 3084 
Q 1697 3084 1428 2787 
Q 1159 2491 1159 1978 
L 1159 0 
L 581 0 
L 581 3500 
L 1159 3500 
L 1159 2956 
Q 1366 3272 1645 3428 
Q 1925 3584 2291 3584 
Q 2894 3584 3203 3211 
Q 3513 2838 3513 2113 
z
" id="DejaVuSans-6e" transform="scale(0.015625)"/>
       <path d="M 513 4856 
L 1013 4856 
Q 1481 4119 1714 3412 
Q 1947 2706 1947 2009 
Q 1947 1309 1714 600 
Q 1481 -109 1013 -844 
L 513 -844 
Q 928 -128 1133 580 
Q 1338 1288 1338 2009 
Q 1338 2731 1133 3434 
Q 928 4138 513 4856 
z
" id="DejaVuSans-29" transform="scale(0.015625)"/>
      </defs>
      <use xlink:href="#DejaVuSans-43"/>
      <use x="69.824219" xlink:href="#DejaVuSans-6c"/>
      <use x="97.607422" xlink:href="#DejaVuSans-75"/>
      <use x="160.986328" xlink:href="#DejaVuSans-73"/>
      <use x="213.085938" xlink:href="#DejaVuSans-74"/>
      <use x="252.294922" xlink:href="#DejaVuSans-65"/>
      <use x="313.818359" xlink:href="#DejaVuSans-72"/>
      <use x="354.931641" xlink:href="#DejaVuSans-20"/>
      <use x="386.71875" xlink:href="#DejaVuSans-73"/>
      <use x="438.818359" xlink:href="#DejaVuSans-69"/>
      <use x="466.601562" xlink:href="#DejaVuSans-7a"/>
      <use x="519.091797" xlink:href="#DejaVuSans-65"/>
      <use x="580.615234" xlink:href="#DejaVuSans-20"/>
      <use x="612.402344" xlink:href="#DejaVuSans-28"/>
      <use x="651.416016" xlink:href="#DejaVuSans-70"/>
      <use x="714.892578" xlink:href="#DejaVuSans-72"/>
      <use x="753.755859" xlink:href="#DejaVuSans-6f"/>
      <use x="814.9375" xlink:href="#DejaVuSans-74"/>
      <use x="854.146484" xlink:href="#DejaVuSans-65"/>
      <use x="915.669922" xlink:href="#DejaVuSans-69"/>
      <use x="943.453125" xlink:href="#DejaVuSans-6e"/>
      <use x="1006.832031" xlink:href="#DejaVuSans-73"/>
      <use x="1058.931641" xlink:href="#DejaVuSans-29"/>
     </g>
    </g>
   </g>
   <g id="matplotlib.axis_2">
    <g id="ytick_1">
     <g id="line2d_7">
      <defs>
       <path d="M 0 0 
L -3.5 0 
" id="m75225732f1" style="stroke:#000000;stroke-width:0.8;"/>
      </defs>
      <g>
       <use style="stroke:#000000;stroke-width:0.8;" x="54" xlink:href="#m75225732f1" y="242.116364"/>
      </g>
     </g>
     <g id="text_8">
      <!-- 0 -->
      <g transform="translate(36.82 248.195114)scale(0.16 -0.16)">
       <use xlink:href="#DejaVuSans-30"/>
      </g>
     </g>
    </g>
    <g id="ytick_2">
     <g id="line2d_8">
      <g>
       <use style="stroke:#000000;stroke-width:0.8;" x="54" xlink:href="#m75225732f1" y="186.353917"/>
      </g>
     </g>
     <g id="text_9">
      <!-- 100 -->
      <g transform="translate(16.46 192.432667)scale(0.16 -0.16)">
       <use xlink:href="#DejaVuSans-31"/>
       <use x="63.623047" xlink:href="#DejaVuSans-30"/>
       <use x="127.246094" xlink:href="#DejaVuSans-30"/>
      </g>
     </g>
    </g>
    <g id="ytick_3">
     <g id="line2d_9">
      <g>
       <use style="stroke:#000000;stroke-width:0.8;" x="54" xlink:href="#m75225732f1" y="130.59147"/>
      </g>
     </g>
     <g id="text_10">
      <!-- 200 -->
      <g transform="translate(16.46 136.67022)scale(0.16 -0.16)">
       <use xlink:href="#DejaVuSans-32"/>
       <use x="63.623047" xlink:href="#DejaVuSans-30"/>
       <use x="127.246094" xlink:href="#DejaVuSans-30"/>
      </g>
     </g>
    </g>
    <g id="ytick_4">
     <g id="line2d_10">
      <g>
       <use style="stroke:#000000;stroke-width:0.8;" x="54" xlink:href="#m75225732f1" y="74.829023"/>
      </g>
     </g>
     <g id="text_11">
      <!-- 300 -->
      <g transform="translate(16.46 80.907773)scale(0.16 -0.16)">
       <defs>
        <path d="M 2597 2516 
Q 3050 2419 3304 2112 
Q 3559 1806 3559 1356 
Q 3559 666 3084 287 
Q 2609 -91 1734 -91 
Q 1441 -91 1130 -33 
Q 819 25 488 141 
L 488 750 
Q 750 597 1062 519 
Q 1375 441 1716 441 
Q 2309 441 2620 675 
Q 2931 909 2931 1356 
Q 2931 1769 2642 2001 
Q 2353 2234 1838 2234 
L 1294 2234 
L 1294 2753 
L 1863 2753 
Q 2328 2753 2575 2939 
Q 2822 3125 2822 3475 
Q 2822 3834 2567 4026 
Q 2313 4219 1838 4219 
Q 1578 4219 1281 4162 
Q 984 4106 628 3988 
L 628 4550 
Q 988 4650 1302 4700 
Q 1616 4750 1894 4750 
Q 2613 4750 3031 4423 
Q 3450 4097 3450 3541 
Q 3450 3153 3228 2886 
Q 3006 2619 2597 2516 
z
" id="DejaVuSans-33" transform="scale(0.015625)"/>
       </defs>
       <use xlink:href="#DejaVuSans-33"/>
       <use x="63.623047" xlink:href="#DejaVuSans-30"/>
       <use x="127.246094" xlink:href="#DejaVuSans-30"/>
      </g>
     </g>
    </g>
    <g id="text_12">
     <!-- Interface length (nm) -->
     <g transform="translate(8.716562 239.475937)rotate(-90)scale(0.18 -0.18)">
      <defs>
       <path d="M 628 4666 
L 1259 4666 
L 1259 0 
L 628 0 
L 628 4666 
z
" id="DejaVuSans-49" transform="scale(0.015625)"/>
       <path d="M 2375 4863 
L 2375 4384 
L 1825 4384 
Q 1516 4384 1395 4259 
Q 1275 4134 1275 3809 
L 1275 3500 
L 2222 3500 
L 2222 3053 
L 1275 3053 
L 1275 0 
L 697 0 
L 697 3053 
L 147 3053 
L 147 3500 
L 697 3500 
L 697 3744 
Q 697 4328 969 4595 
Q 1241 4863 1831 4863 
L 2375 4863 
z
" id="DejaVuSans-66" transform="scale(0.015625)"/>
       <path d="M 2194 1759 
Q 1497 1759 1228 1600 
Q 959 1441 959 1056 
Q 959 750 1161 570 
Q 1363 391 1709 391 
Q 2188 391 2477 730 
Q 2766 1069 2766 1631 
L 2766 1759 
L 2194 1759 
z
M 3341 1997 
L 3341 0 
L 2766 0 
L 2766 531 
Q 2569 213 2275 61 
Q 1981 -91 1556 -91 
Q 1019 -91 701 211 
Q 384 513 384 1019 
Q 384 1609 779 1909 
Q 1175 2209 1959 2209 
L 2766 2209 
L 2766 2266 
Q 2766 2663 2505 2880 
Q 2244 3097 1772 3097 
Q 1472 3097 1187 3025 
Q 903 2953 641 2809 
L 641 3341 
Q 956 3463 1253 3523 
Q 1550 3584 1831 3584 
Q 2591 3584 2966 3190 
Q 3341 2797 3341 1997 
z
" id="DejaVuSans-61" transform="scale(0.015625)"/>
       <path d="M 3122 3366 
L 3122 2828 
Q 2878 2963 2633 3030 
Q 2388 3097 2138 3097 
Q 1578 3097 1268 2742 
Q 959 2388 959 1747 
Q 959 1106 1268 751 
Q 1578 397 2138 397 
Q 2388 397 2633 464 
Q 2878 531 3122 666 
L 3122 134 
Q 2881 22 2623 -34 
Q 2366 -91 2075 -91 
Q 1284 -91 818 406 
Q 353 903 353 1747 
Q 353 2603 823 3093 
Q 1294 3584 2113 3584 
Q 2378 3584 2631 3529 
Q 2884 3475 3122 3366 
z
" id="DejaVuSans-63" transform="scale(0.015625)"/>
       <path d="M 2906 1791 
Q 2906 2416 2648 2759 
Q 2391 3103 1925 3103 
Q 1463 3103 1205 2759 
Q 947 2416 947 1791 
Q 947 1169 1205 825 
Q 1463 481 1925 481 
Q 2391 481 2648 825 
Q 2906 1169 2906 1791 
z
M 3481 434 
Q 3481 -459 3084 -895 
Q 2688 -1331 1869 -1331 
Q 1566 -1331 1297 -1286 
Q 1028 -1241 775 -1147 
L 775 -588 
Q 1028 -725 1275 -790 
Q 1522 -856 1778 -856 
Q 2344 -856 2625 -561 
Q 2906 -266 2906 331 
L 2906 616 
Q 2728 306 2450 153 
Q 2172 0 1784 0 
Q 1141 0 747 490 
Q 353 981 353 1791 
Q 353 2603 747 3093 
Q 1141 3584 1784 3584 
Q 2172 3584 2450 3431 
Q 2728 3278 2906 2969 
L 2906 3500 
L 3481 3500 
L 3481 434 
z
" id="DejaVuSans-67" transform="scale(0.015625)"/>
       <path d="M 3513 2113 
L 3513 0 
L 2938 0 
L 2938 2094 
Q 2938 2591 2744 2837 
Q 2550 3084 2163 3084 
Q 1697 3084 1428 2787 
Q 1159 2491 1159 1978 
L 1159 0 
L 581 0 
L 581 4863 
L 1159 4863 
L 1159 2956 
Q 1366 3272 1645 3428 
Q 1925 3584 2291 3584 
Q 2894 3584 3203 3211 
Q 3513 2838 3513 2113 
z
" id="DejaVuSans-68" transform="scale(0.015625)"/>
       <path d="M 3328 2828 
Q 3544 3216 3844 3400 
Q 4144 3584 4550 3584 
Q 5097 3584 5394 3201 
Q 5691 2819 5691 2113 
L 5691 0 
L 5113 0 
L 5113 2094 
Q 5113 2597 4934 2840 
Q 4756 3084 4391 3084 
Q 3944 3084 3684 2787 
Q 3425 2491 3425 1978 
L 3425 0 
L 2847 0 
L 2847 2094 
Q 2847 2600 2669 2842 
Q 2491 3084 2119 3084 
Q 1678 3084 1418 2786 
Q 1159 2488 1159 1978 
L 1159 0 
L 581 0 
L 581 3500 
L 1159 3500 
L 1159 2956 
Q 1356 3278 1631 3431 
Q 1906 3584 2284 3584 
Q 2666 3584 2933 3390 
Q 3200 3197 3328 2828 
z
" id="DejaVuSans-6d" transform="scale(0.015625)"/>
      </defs>
      <use xlink:href="#DejaVuSans-49"/>
      <use x="29.492188" xlink:href="#DejaVuSans-6e"/>
      <use x="92.871094" xlink:href="#DejaVuSans-74"/>
      <use x="132.080078" xlink:href="#DejaVuSans-65"/>
      <use x="193.603516" xlink:href="#DejaVuSans-72"/>
      <use x="234.716797" xlink:href="#DejaVuSans-66"/>
      <use x="269.921875" xlink:href="#DejaVuSans-61"/>
      <use x="331.201172" xlink:href="#DejaVuSans-63"/>
      <use x="386.181641" xlink:href="#DejaVuSans-65"/>
      <use x="447.705078" xlink:href="#DejaVuSans-20"/>
      <use x="479.492188" xlink:href="#DejaVuSans-6c"/>
      <use x="507.275391" xlink:href="#DejaVuSans-65"/>
      <use x="568.798828" xlink:href="#DejaVuSans-6e"/>
      <use x="632.177734" xlink:href="#DejaVuSans-67"/>
      <use x="695.654297" xlink:href="#DejaVuSans-74"/>
      <use x="734.863281" xlink:href="#DejaVuSans-68"/>
      <use x="798.242188" xlink:href="#DejaVuSans-20"/>
      <use x="830.029297" xlink:href="#DejaVuSans-28"/>
      <use x="869.042969" xlink:href="#DejaVuSans-6e"/>
      <use x="932.421875" xlink:href="#DejaVuSans-6d"/>
      <use x="1029.833984" xlink:href="#DejaVuSans-29"/>
     </g>
    </g>
   </g>
   <g id="line2d_11">
    <path clip-path="url(#p6f460680d1)" d="M 233.574545 97.134002 
L 236.618182 97.134002 
L 239.661818 97.134002 
L 242.705455 97.134002 
L 245.749091 97.134002 
L 248.792727 97.134002 
L 251.836364 97.134002 
L 254.88 97.134002 
L 257.923636 97.134002 
L 260.967273 97.134002 
L 264.010909 97.134002 
L 267.054545 97.134002 
L 270.098182 97.134002 
L 273.141818 97.134002 
L 276.185455 97.134002 
L 279.229091 97.134002 
L 282.272727 97.134002 
L 285.316364 97.134002 
L 288.36 97.134002 
L 291.403636 97.134002 
L 294.447273 97.134002 
L 297.490909 97.134002 
L 300.534545 97.134002 
L 303.578182 97.134002 
L 306.621818 97.134002 
L 309.665455 97.134002 
L 312.709091 97.134002 
L 315.752727 97.134002 
L 318.796364 97.134002 
L 321.84 97.134002 
L 324.883636 97.134002 
L 327.927273 97.134002 
L 330.970909 97.134002 
L 334.014545 97.134002 
L 337.058182 97.134002 
L 340.101818 97.134002 
L 343.145455 97.134002 
L 346.189091 97.134002 
L 349.232727 97.134002 
L 352.276364 97.134002 
L 355.32 97.134002 
L 358.363636 97.134002 
L 361.407273 97.134002 
L 364.450909 97.134002 
L 367.494545 97.134002 
L 370.538182 97.134002 
L 373.581818 97.134002 
" style="fill:none;stroke:#000000;stroke-dasharray:14.8,6.4;stroke-dashoffset:0;stroke-width:4;"/>
   </g>
   <g id="line2d_12">
    <path clip-path="url(#p6f460680d1)" d="M 169.658182 130.59147 
L 172.701818 130.59147 
L 175.745455 130.59147 
L 178.789091 130.59147 
L 181.832727 130.59147 
L 184.876364 130.59147 
L 187.92 130.59147 
L 190.963636 130.59147 
L 194.007273 130.59147 
L 197.050909 130.59147 
L 200.094545 130.59147 
L 203.138182 130.59147 
L 206.181818 130.59147 
L 209.225455 130.59147 
L 212.269091 130.59147 
L 215.312727 130.59147 
L 218.356364 130.59147 
L 221.4 130.59147 
L 224.443636 130.59147 
L 227.487273 130.59147 
L 230.530909 130.59147 
L 233.574545 130.59147 
L 236.618182 130.59147 
L 239.661818 130.59147 
L 242.705455 130.59147 
L 245.749091 130.59147 
L 248.792727 130.59147 
L 251.836364 130.59147 
L 254.88 130.59147 
L 257.923636 130.59147 
L 260.967273 130.59147 
L 264.010909 130.59147 
L 267.054545 130.59147 
L 270.098182 130.59147 
L 273.141818 130.59147 
L 276.185455 130.59147 
L 279.229091 130.59147 
L 282.272727 130.59147 
L 285.316364 130.59147 
L 288.36 130.59147 
L 291.403636 130.59147 
L 294.447273 130.59147 
L 297.490909 130.59147 
L 300.534545 130.59147 
L 303.578182 130.59147 
L 306.621818 130.59147 
L 309.665455 130.59147 
L 312.709091 130.59147 
L 315.752727 130.59147 
L 318.796364 130.59147 
L 321.84 130.59147 
L 324.883636 130.59147 
L 327.927273 130.59147 
L 330.970909 130.59147 
L 334.014545 130.59147 
L 337.058182 130.59147 
L 340.101818 130.59147 
L 343.145455 130.59147 
L 346.189091 130.59147 
L 349.232727 130.59147 
L 352.276364 130.59147 
L 355.32 130.59147 
L 358.363636 130.59147 
L 361.407273 130.59147 
L 364.450909 130.59147 
L 367.494545 130.59147 
L 370.538182 130.59147 
L 373.581818 130.59147 
" style="fill:none;stroke:#ff0000;stroke-dasharray:4,6.6;stroke-dashoffset:0;stroke-width:4;"/>
   </g>
   <g id="line2d_13">
    <path clip-path="url(#p6f460680d1)" d="M 69.218182 242.116364 
L 72.261818 222.349091 
L 75.305455 214.161218 
L 78.349091 207.878443 
L 81.392727 202.581818 
L 84.436364 197.915398 
L 87.48 193.696632 
L 90.523636 189.817076 
L 93.567273 186.206073 
L 96.610909 182.814545 
L 99.654545 179.606759 
L 102.698182 176.555737 
L 105.741818 173.640522 
L 108.785455 170.844448 
L 111.829091 168.154002 
L 114.872727 165.558046 
L 117.916364 163.047273 
L 120.96 160.61381 
L 124.003636 158.250928 
L 127.047273 155.952819 
L 130.090909 153.714433 
L 133.134545 151.53134 
L 136.178182 149.399636 
L 139.221818 147.315854 
L 142.265455 145.2769 
L 145.309091 143.28 
L 148.352727 141.322654 
L 151.396364 139.402602 
L 154.44 137.517788 
L 157.483636 135.666342 
L 160.527273 133.846552 
L 163.570909 132.056847 
L 166.614545 130.295783 
L 169.658182 128.562027 
L 172.701818 126.854347 
L 175.745455 125.171601 
L 178.789091 123.512727 
L 181.832727 121.876738 
L 184.876364 120.262711 
L 187.92 118.669785 
L 190.963636 117.097154 
L 194.007273 115.544061 
L 197.050909 114.009795 
L 200.094545 112.493688 
L 203.138182 110.99511 
L 206.181818 109.513467 
L 209.225455 108.048197 
L 212.269091 106.598769 
L 215.312727 105.164681 
L 218.356364 103.745455 
L 221.4 102.340638 
L 224.443636 100.9498 
L 227.487273 99.572533 
L 230.530909 98.208446 
L 233.574545 96.857168 
L 236.618182 95.518346 
L 239.661818 94.19164 
L 242.705455 92.876727 
L 245.749091 91.5733 
L 248.792727 90.281061 
L 251.836364 88.999727 
L 254.88 87.729028 
L 257.923636 86.468703 
L 260.967273 85.2185 
L 264.010909 83.978182 
L 267.054545 82.747516 
L 270.098182 81.526281 
L 273.141818 80.314263 
L 276.185455 79.111257 
L 279.229091 77.917064 
L 282.272727 76.731494 
L 285.316364 75.554363 
L 288.36 74.385493 
L 291.403636 73.224711 
L 294.447273 72.071854 
L 297.490909 70.92676 
L 300.534545 69.789275 
L 303.578182 68.659249 
L 306.621818 67.536538 
L 309.665455 66.421001 
L 312.709091 65.312501 
L 315.752727 64.210909 
L 318.796364 63.116096 
L 321.84 62.027938 
L 324.883636 60.946317 
L 327.927273 59.871114 
L 330.970909 58.802218 
L 334.014545 57.739518 
L 337.058182 56.682909 
L 340.101818 55.632286 
L 343.145455 54.587549 
L 346.189091 53.5486 
L 349.232727 52.515344 
L 352.276364 51.487689 
L 355.32 50.465544 
L 358.363636 49.448822 
L 361.407273 48.437436 
L 364.450909 47.431305 
L 367.494545 46.430347 
L 370.538182 45.434483 
L 373.581818 44.443636 
" style="fill:none;stroke:#0000ff;stroke-linecap:square;stroke-width:4;"/>
   </g>
   <g id="patch_3">
    <path d="M 54 252 
L 54 34.56 
" style="fill:none;stroke:#000000;stroke-linecap:square;stroke-linejoin:miter;stroke-width:0.8;"/>
   </g>
   <g id="patch_4">
    <path d="M 388.8 252 
L 388.8 34.56 
" style="fill:none;stroke:#000000;stroke-linecap:square;stroke-linejoin:miter;stroke-width:0.8;"/>
   </g>
   <g id="patch_5">
    <path d="M 54 252 
L 388.8 252 
" style="fill:none;stroke:#000000;stroke-linecap:square;stroke-linejoin:miter;stroke-width:0.8;"/>
   </g>
   <g id="patch_6">
    <path d="M 54 34.56 
L 388.8 34.56 
" style="fill:none;stroke:#000000;stroke-linecap:square;stroke-linejoin:miter;stroke-width:0.8;"/>
   </g>
   <g id="legend_1">
    <g id="line2d_14">
     <path d="M 64.8 50.28 
L 88.8 50.28 
" style="fill:none;stroke:#000000;stroke-dasharray:14.8,6.4;stroke-dashoffset:0;stroke-width:4;"/>
    </g>
    <g id="line2d_15"/>
    <g id="text_13">
     <!-- Wrapped ($d_{tube} = 41 nm$) -->
     <g transform="translate(98.4 54.48)scale(0.12 -0.12)">
      <defs>
       <path d="M 213 4666 
L 850 4666 
L 1831 722 
L 2809 4666 
L 3519 4666 
L 4500 722 
L 5478 4666 
L 6119 4666 
L 4947 0 
L 4153 0 
L 3169 4050 
L 2175 0 
L 1381 0 
L 213 4666 
z
" id="DejaVuSans-57" transform="scale(0.015625)"/>
       <path d="M 2906 2969 
L 2906 4863 
L 3481 4863 
L 3481 0 
L 2906 0 
L 2906 525 
Q 2725 213 2448 61 
Q 2172 -91 1784 -91 
Q 1150 -91 751 415 
Q 353 922 353 1747 
Q 353 2572 751 3078 
Q 1150 3584 1784 3584 
Q 2172 3584 2448 3432 
Q 2725 3281 2906 2969 
z
M 947 1747 
Q 947 1113 1208 752 
Q 1469 391 1925 391 
Q 2381 391 2643 752 
Q 2906 1113 2906 1747 
Q 2906 2381 2643 2742 
Q 2381 3103 1925 3103 
Q 1469 3103 1208 2742 
Q 947 2381 947 1747 
z
" id="DejaVuSans-64" transform="scale(0.015625)"/>
       <path d="M 2675 525 
Q 2444 222 2128 65 
Q 1813 -91 1428 -91 
Q 903 -91 598 267 
Q 294 625 294 1247 
Q 294 1766 478 2236 
Q 663 2706 1013 3078 
Q 1244 3325 1534 3454 
Q 1825 3584 2144 3584 
Q 2481 3584 2739 3421 
Q 2997 3259 3138 2956 
L 3513 4863 
L 4091 4863 
L 3144 0 
L 2566 0 
L 2675 525 
z
M 891 1350 
Q 891 897 1095 644 
Q 1300 391 1663 391 
Q 1931 391 2161 520 
Q 2391 650 2566 903 
Q 2750 1166 2856 1509 
Q 2963 1853 2963 2188 
Q 2963 2622 2758 2865 
Q 2553 3109 2194 3109 
Q 1922 3109 1687 2981 
Q 1453 2853 1288 2613 
Q 1106 2353 998 2009 
Q 891 1666 891 1350 
z
" id="DejaVuSans-Oblique-64" transform="scale(0.015625)"/>
       <path d="M 2706 3500 
L 2619 3053 
L 1472 3053 
L 1100 1153 
Q 1081 1047 1072 975 
Q 1063 903 1063 863 
Q 1063 663 1183 572 
Q 1303 481 1569 481 
L 2150 481 
L 2053 0 
L 1503 0 
Q 991 0 739 200 
Q 488 400 488 806 
Q 488 878 497 964 
Q 506 1050 525 1153 
L 897 3053 
L 409 3053 
L 500 3500 
L 978 3500 
L 1172 4494 
L 1747 4494 
L 1556 3500 
L 2706 3500 
z
" id="DejaVuSans-Oblique-74" transform="scale(0.015625)"/>
       <path d="M 428 1388 
L 838 3500 
L 1416 3500 
L 1006 1409 
Q 975 1256 961 1147 
Q 947 1038 947 966 
Q 947 700 1109 554 
Q 1272 409 1569 409 
Q 2031 409 2368 721 
Q 2706 1034 2809 1563 
L 3194 3500 
L 3769 3500 
L 3091 0 
L 2516 0 
L 2631 550 
Q 2388 244 2052 76 
Q 1716 -91 1338 -91 
Q 878 -91 622 161 
Q 366 413 366 863 
Q 366 956 381 1097 
Q 397 1238 428 1388 
z
" id="DejaVuSans-Oblique-75" transform="scale(0.015625)"/>
       <path d="M 3169 2138 
Q 3169 2591 2961 2847 
Q 2753 3103 2388 3103 
Q 2122 3103 1889 2973 
Q 1656 2844 1484 2597 
Q 1303 2338 1198 1995 
Q 1094 1653 1094 1313 
Q 1094 881 1298 636 
Q 1503 391 1863 391 
Q 2134 391 2365 517 
Q 2597 644 2772 891 
Q 2950 1147 3059 1487 
Q 3169 1828 3169 2138 
z
M 1381 2969 
Q 1594 3256 1914 3420 
Q 2234 3584 2584 3584 
Q 3122 3584 3439 3221 
Q 3756 2859 3756 2241 
Q 3756 1734 3570 1259 
Q 3384 784 3041 416 
Q 2816 172 2522 40 
Q 2228 -91 1906 -91 
Q 1566 -91 1316 65 
Q 1066 222 909 531 
L 806 0 
L 231 0 
L 1178 4863 
L 1753 4863 
L 1381 2969 
z
" id="DejaVuSans-Oblique-62" transform="scale(0.015625)"/>
       <path d="M 3078 2063 
Q 3088 2113 3092 2166 
Q 3097 2219 3097 2272 
Q 3097 2653 2873 2875 
Q 2650 3097 2266 3097 
Q 1838 3097 1509 2826 
Q 1181 2556 1013 2059 
L 3078 2063 
z
M 3578 1613 
L 903 1613 
Q 884 1494 878 1425 
Q 872 1356 872 1306 
Q 872 872 1139 634 
Q 1406 397 1894 397 
Q 2269 397 2603 481 
Q 2938 566 3225 728 
L 3116 159 
Q 2806 34 2476 -28 
Q 2147 -91 1806 -91 
Q 1078 -91 686 257 
Q 294 606 294 1247 
Q 294 1794 489 2264 
Q 684 2734 1063 3103 
Q 1306 3334 1642 3459 
Q 1978 3584 2356 3584 
Q 2950 3584 3301 3228 
Q 3653 2872 3653 2272 
Q 3653 2128 3634 1964 
Q 3616 1800 3578 1613 
z
" id="DejaVuSans-Oblique-65" transform="scale(0.015625)"/>
       <path d="M 678 2906 
L 4684 2906 
L 4684 2381 
L 678 2381 
L 678 2906 
z
M 678 1631 
L 4684 1631 
L 4684 1100 
L 678 1100 
L 678 1631 
z
" id="DejaVuSans-3d" transform="scale(0.015625)"/>
       <path d="M 3566 2113 
L 3156 0 
L 2578 0 
L 2988 2091 
Q 3016 2238 3031 2350 
Q 3047 2463 3047 2528 
Q 3047 2791 2881 2937 
Q 2716 3084 2419 3084 
Q 1956 3084 1622 2776 
Q 1288 2469 1184 1941 
L 800 0 
L 225 0 
L 903 3500 
L 1478 3500 
L 1363 2950 
Q 1603 3253 1940 3418 
Q 2278 3584 2650 3584 
Q 3113 3584 3367 3334 
Q 3622 3084 3622 2631 
Q 3622 2519 3608 2391 
Q 3594 2263 3566 2113 
z
" id="DejaVuSans-Oblique-6e" transform="scale(0.015625)"/>
       <path d="M 5747 2113 
L 5338 0 
L 4763 0 
L 5166 2094 
Q 5191 2228 5203 2325 
Q 5216 2422 5216 2491 
Q 5216 2772 5059 2928 
Q 4903 3084 4622 3084 
Q 4203 3084 3875 2770 
Q 3547 2456 3450 1953 
L 3066 0 
L 2491 0 
L 2900 2094 
Q 2925 2209 2937 2307 
Q 2950 2406 2950 2484 
Q 2950 2769 2794 2926 
Q 2638 3084 2363 3084 
Q 1938 3084 1609 2770 
Q 1281 2456 1184 1953 
L 800 0 
L 225 0 
L 909 3500 
L 1484 3500 
L 1375 2956 
Q 1609 3263 1923 3423 
Q 2238 3584 2597 3584 
Q 2978 3584 3223 3384 
Q 3469 3184 3519 2828 
Q 3781 3197 4126 3390 
Q 4472 3584 4856 3584 
Q 5306 3584 5551 3325 
Q 5797 3066 5797 2591 
Q 5797 2488 5784 2364 
Q 5772 2241 5747 2113 
z
" id="DejaVuSans-Oblique-6d" transform="scale(0.015625)"/>
      </defs>
      <use transform="translate(0 0.015625)" xlink:href="#DejaVuSans-57"/>
      <use transform="translate(98.876953 0.015625)" xlink:href="#DejaVuSans-72"/>
      <use transform="translate(139.990234 0.015625)" xlink:href="#DejaVuSans-61"/>
      <use transform="translate(201.269531 0.015625)" xlink:href="#DejaVuSans-70"/>
      <use transform="translate(264.746094 0.015625)" xlink:href="#DejaVuSans-70"/>
      <use transform="translate(328.222656 0.015625)" xlink:href="#DejaVuSans-65"/>
      <use transform="translate(389.746094 0.015625)" xlink:href="#DejaVuSans-64"/>
      <use transform="translate(453.222656 0.015625)" xlink:href="#DejaVuSans-20"/>
      <use transform="translate(485.009766 0.015625)" xlink:href="#DejaVuSans-28"/>
      <use transform="translate(524.023438 0.015625)" xlink:href="#DejaVuSans-Oblique-64"/>
      <use transform="translate(587.5 -16.390625)scale(0.7)" xlink:href="#DejaVuSans-Oblique-74"/>
      <use transform="translate(614.946289 -16.390625)scale(0.7)" xlink:href="#DejaVuSans-Oblique-75"/>
      <use transform="translate(659.311523 -16.390625)scale(0.7)" xlink:href="#DejaVuSans-Oblique-62"/>
      <use transform="translate(703.745117 -16.390625)scale(0.7)" xlink:href="#DejaVuSans-Oblique-65"/>
      <use transform="translate(769.02832 0.015625)" xlink:href="#DejaVuSans-3d"/>
      <use transform="translate(872.299805 0.015625)" xlink:href="#DejaVuSans-34"/>
      <use transform="translate(935.922852 0.015625)" xlink:href="#DejaVuSans-31"/>
      <use transform="translate(999.545898 0.015625)" xlink:href="#DejaVuSans-Oblique-6e"/>
      <use transform="translate(1062.924805 0.015625)" xlink:href="#DejaVuSans-Oblique-6d"/>
      <use transform="translate(1160.336914 0.015625)" xlink:href="#DejaVuSans-29"/>
     </g>
    </g>
    <g id="line2d_16">
     <path d="M 64.8 67.92 
L 88.8 67.92 
" style="fill:none;stroke:#ff0000;stroke-dasharray:4,6.6;stroke-dashoffset:0;stroke-width:4;"/>
    </g>
    <g id="line2d_17"/>
    <g id="text_14">
     <!-- Wrapped ($d_{tube} = 32 nm$) -->
     <g transform="translate(98.4 72.12)scale(0.12 -0.12)">
      <use transform="translate(0 0.015625)" xlink:href="#DejaVuSans-57"/>
      <use transform="translate(98.876953 0.015625)" xlink:href="#DejaVuSans-72"/>
      <use transform="translate(139.990234 0.015625)" xlink:href="#DejaVuSans-61"/>
      <use transform="translate(201.269531 0.015625)" xlink:href="#DejaVuSans-70"/>
      <use transform="translate(264.746094 0.015625)" xlink:href="#DejaVuSans-70"/>
      <use transform="translate(328.222656 0.015625)" xlink:href="#DejaVuSans-65"/>
      <use transform="translate(389.746094 0.015625)" xlink:href="#DejaVuSans-64"/>
      <use transform="translate(453.222656 0.015625)" xlink:href="#DejaVuSans-20"/>
      <use transform="translate(485.009766 0.015625)" xlink:href="#DejaVuSans-28"/>
      <use transform="translate(524.023438 0.015625)" xlink:href="#DejaVuSans-Oblique-64"/>
      <use transform="translate(587.5 -16.390625)scale(0.7)" xlink:href="#DejaVuSans-Oblique-74"/>
      <use transform="translate(614.946289 -16.390625)scale(0.7)" xlink:href="#DejaVuSans-Oblique-75"/>
      <use transform="translate(659.311523 -16.390625)scale(0.7)" xlink:href="#DejaVuSans-Oblique-62"/>
      <use transform="translate(703.745117 -16.390625)scale(0.7)" xlink:href="#DejaVuSans-Oblique-65"/>
      <use transform="translate(769.02832 0.015625)" xlink:href="#DejaVuSans-3d"/>
      <use transform="translate(872.299805 0.015625)" xlink:href="#DejaVuSans-33"/>
      <use transform="translate(935.922852 0.015625)" xlink:href="#DejaVuSans-32"/>
      <use transform="translate(999.545898 0.015625)" xlink:href="#DejaVuSans-Oblique-6e"/>
      <use transform="translate(1062.924805 0.015625)" xlink:href="#DejaVuSans-Oblique-6d"/>
      <use transform="translate(1160.336914 0.015625)" xlink:href="#DejaVuSans-29"/>
     </g>
    </g>
    <g id="line2d_18">
     <path d="M 64.8 85.558125 
L 88.8 85.558125 
" style="fill:none;stroke:#0000ff;stroke-linecap:square;stroke-width:4;"/>
    </g>
    <g id="line2d_19"/>
    <g id="text_15">
     <!-- Round -->
     <g transform="translate(98.4 89.758125)scale(0.12 -0.12)">
      <defs>
       <path d="M 2841 2188 
Q 3044 2119 3236 1894 
Q 3428 1669 3622 1275 
L 4263 0 
L 3584 0 
L 2988 1197 
Q 2756 1666 2539 1819 
Q 2322 1972 1947 1972 
L 1259 1972 
L 1259 0 
L 628 0 
L 628 4666 
L 2053 4666 
Q 2853 4666 3247 4331 
Q 3641 3997 3641 3322 
Q 3641 2881 3436 2590 
Q 3231 2300 2841 2188 
z
M 1259 4147 
L 1259 2491 
L 2053 2491 
Q 2509 2491 2742 2702 
Q 2975 2913 2975 3322 
Q 2975 3731 2742 3939 
Q 2509 4147 2053 4147 
L 1259 4147 
z
" id="DejaVuSans-52" transform="scale(0.015625)"/>
      </defs>
      <use xlink:href="#DejaVuSans-52"/>
      <use x="64.982422" xlink:href="#DejaVuSans-6f"/>
      <use x="126.164062" xlink:href="#DejaVuSans-75"/>
      <use x="189.542969" xlink:href="#DejaVuSans-6e"/>
      <use x="252.921875" xlink:href="#DejaVuSans-64"/>
     </g>
    </g>
   </g>
  </g>
 </g>
 <defs>
  <clipPath id="p6f460680d1">
   <rect height="217.44" width="334.8" x="54" y="34.56"/>
  </clipPath>
 </defs>
</svg>
