<?xml version="1.0" encoding="utf-8" standalone="no"?>
<!DOCTYPE svg PUBLIC "-//W3C//DTD SVG 1.1//EN"
  "http://www.w3.org/Graphics/SVG/1.1/DTD/svg11.dtd">
<svg height="288pt" version="1.1" viewBox="0 0 432 288" width="432pt" xmlns="http://www.w3.org/2000/svg" xmlns:xlink="http://www.w3.org/1999/xlink">
 <metadata>
  <rdf:RDF xmlns:cc="http://creativecommons.org/ns#" xmlns:dc="http://purl.org/dc/elements/1.1/" xmlns:rdf="http://www.w3.org/1999/02/22-rdf-syntax-ns#">
   <cc:Work>
    <dc:type rdf:resource="http://purl.org/dc/dcmitype/StillImage"/>
    <dc:date>2023-09-19T15:29:41.427326</dc:date>
    <dc:format>image/svg+xml</dc:format>
    <dc:creator>
     <cc:Agent>
      <dc:title>Matplotlib v3.4.3, https://matplotlib.org/</dc:title>
     </cc:Agent>
    </dc:creator>
   </cc:Work>
  </rdf:RDF>
 </metadata>
 <defs>
  <style type="text/css">*{stroke-linecap:butt;stroke-linejoin:round;}</style>
 </defs>
 <g id="figure_1">
  <g id="patch_1">
   <path d="M 0 288 
L 432 288 
L 432 0 
L 0 0 
z
" style="fill:#ffffff;"/>
  </g>
  <g id="axes_1">
   <g id="patch_2">
    <path d="M 54 252 
L 388.8 252 
L 388.8 34.56 
L 54 34.56 
z
" style="fill:#ffffff;"/>
   </g>
   <g id="PathCollection_1">
    <defs>
     <path d="M 0 2.738613 
C 0.726289 2.738613 1.422928 2.450055 1.936492 1.936492 
C 2.450055 1.422928 2.738613 0.726289 2.738613 0 
C 2.738613 -0.726289 2.450055 -1.422928 1.936492 -1.936492 
C 1.422928 -2.450055 0.726289 -2.738613 0 -2.738613 
C -0.726289 -2.738613 -1.422928 -2.450055 -1.936492 -1.936492 
C -2.450055 -1.422928 -2.738613 -0.726289 -2.738613 0 
C -2.738613 0.726289 -2.450055 1.422928 -1.936492 1.936492 
C -1.422928 2.450055 -0.726289 2.738613 0 2.738613 
z
" id="mbf743fcab4" style="stroke:#31688e;"/>
    </defs>
    <g clip-path="url(#p666bc7e618)">
     <use style="fill:#31688e;stroke:#31688e;" x="69.218182" xlink:href="#mbf743fcab4" y="242.116364"/>
     <use style="fill:#31688e;stroke:#31688e;" x="103.036364" xlink:href="#mbf743fcab4" y="241.885376"/>
     <use style="fill:#31688e;stroke:#31688e;" x="136.854545" xlink:href="#mbf743fcab4" y="221.314291"/>
     <use style="fill:#31688e;stroke:#31688e;" x="147" xlink:href="#mbf743fcab4" y="191.680706"/>
     <use style="fill:#31688e;stroke:#31688e;" x="157.145455" xlink:href="#mbf743fcab4" y="139.997624"/>
     <use style="fill:#31688e;stroke:#31688e;" x="170.672727" xlink:href="#mbf743fcab4" y="91.900347"/>
     <use style="fill:#31688e;stroke:#31688e;" x="204.490909" xlink:href="#mbf743fcab4" y="54.681701"/>
     <use style="fill:#31688e;stroke:#31688e;" x="238.309091" xlink:href="#mbf743fcab4" y="48.800813"/>
     <use style="fill:#31688e;stroke:#31688e;" x="272.127273" xlink:href="#mbf743fcab4" y="48.077558"/>
     <use style="fill:#31688e;stroke:#31688e;" x="305.945455" xlink:href="#mbf743fcab4" y="48.234489"/>
     <use style="fill:#31688e;stroke:#31688e;" x="339.763636" xlink:href="#mbf743fcab4" y="48.212956"/>
     <use style="fill:#31688e;stroke:#31688e;" x="373.581818" xlink:href="#mbf743fcab4" y="48.633166"/>
    </g>
   </g>
   <g id="PathCollection_2">
    <defs>
     <path d="M 0 2.738613 
C 0.726289 2.738613 1.422928 2.450055 1.936492 1.936492 
C 2.450055 1.422928 2.738613 0.726289 2.738613 0 
C 2.738613 -0.726289 2.450055 -1.422928 1.936492 -1.936492 
C 1.422928 -2.450055 0.726289 -2.738613 0 -2.738613 
C -0.726289 -2.738613 -1.422928 -2.450055 -1.936492 -1.936492 
C -2.450055 -1.422928 -2.738613 -0.726289 -2.738613 0 
C -2.738613 0.726289 -2.450055 1.422928 -1.936492 1.936492 
C -1.422928 2.450055 -0.726289 2.738613 0 2.738613 
z
" id="mb902c3011d" style="stroke:#35b779;"/>
    </defs>
    <g clip-path="url(#p666bc7e618)">
     <use style="fill:#35b779;stroke:#35b779;" x="130.090909" xlink:href="#mb902c3011d" y="242.004114"/>
     <use style="fill:#35b779;stroke:#35b779;" x="157.145455" xlink:href="#mb902c3011d" y="236.971019"/>
     <use style="fill:#35b779;stroke:#35b779;" x="184.2" xlink:href="#mb902c3011d" y="197.752775"/>
     <use style="fill:#35b779;stroke:#35b779;" x="192.316364" xlink:href="#mb902c3011d" y="167.838176"/>
     <use style="fill:#35b779;stroke:#35b779;" x="200.432727" xlink:href="#mb902c3011d" y="132.029607"/>
     <use style="fill:#35b779;stroke:#35b779;" x="211.254545" xlink:href="#mb902c3011d" y="95.718813"/>
     <use style="fill:#35b779;stroke:#35b779;" x="238.309091" xlink:href="#mb902c3011d" y="61.290235"/>
     <use style="fill:#35b779;stroke:#35b779;" x="265.363636" xlink:href="#mb902c3011d" y="54.498585"/>
     <use style="fill:#35b779;stroke:#35b779;" x="292.418182" xlink:href="#mb902c3011d" y="51.802455"/>
     <use style="fill:#35b779;stroke:#35b779;" x="319.472727" xlink:href="#mb902c3011d" y="51.222748"/>
     <use style="fill:#35b779;stroke:#35b779;" x="346.527273" xlink:href="#mb902c3011d" y="49.336074"/>
     <use style="fill:#35b779;stroke:#35b779;" x="373.581818" xlink:href="#mb902c3011d" y="49.311528"/>
    </g>
   </g>
   <g id="PathCollection_3">
    <defs>
     <path d="M 0 2.738613 
C 0.726289 2.738613 1.422928 2.450055 1.936492 1.936492 
C 2.450055 1.422928 2.738613 0.726289 2.738613 0 
C 2.738613 -0.726289 2.450055 -1.422928 1.936492 -1.936492 
C 1.422928 -2.450055 0.726289 -2.738613 0 -2.738613 
C -0.726289 -2.738613 -1.422928 -2.450055 -1.936492 -1.936492 
C -2.450055 -1.422928 -2.738613 -0.726289 -2.738613 0 
C -2.738613 0.726289 -2.450055 1.422928 -1.936492 1.936492 
C -1.422928 2.450055 -0.726289 2.738613 0 2.738613 
z
" id="me46985d6de" style="stroke:#fde725;"/>
    </defs>
    <g clip-path="url(#p666bc7e618)">
     <use style="fill:#fde725;stroke:#fde725;" x="170.672727" xlink:href="#me46985d6de" y="241.992093"/>
     <use style="fill:#fde725;stroke:#fde725;" x="193.218182" xlink:href="#me46985d6de" y="236.341114"/>
     <use style="fill:#fde725;stroke:#fde725;" x="215.763636" xlink:href="#me46985d6de" y="209.317272"/>
     <use style="fill:#fde725;stroke:#fde725;" x="238.309091" xlink:href="#me46985d6de" y="160.39314"/>
     <use style="fill:#fde725;stroke:#fde725;" x="260.854545" xlink:href="#me46985d6de" y="125.305654"/>
     <use style="fill:#fde725;stroke:#fde725;" x="283.4" xlink:href="#me46985d6de" y="90.680154"/>
     <use style="fill:#fde725;stroke:#fde725;" x="305.945455" xlink:href="#me46985d6de" y="71.962991"/>
     <use style="fill:#fde725;stroke:#fde725;" x="328.490909" xlink:href="#me46985d6de" y="62.218222"/>
     <use style="fill:#fde725;stroke:#fde725;" x="351.036364" xlink:href="#me46985d6de" y="69.914761"/>
     <use style="fill:#fde725;stroke:#fde725;" x="373.581818" xlink:href="#me46985d6de" y="59.532307"/>
    </g>
   </g>
   <g id="matplotlib.axis_1">
    <g id="xtick_1">
     <g id="line2d_1">
      <defs>
       <path d="M 0 0 
L 0 3.5 
" id="mebd91795dc" style="stroke:#000000;stroke-width:0.8;"/>
      </defs>
      <g>
       <use style="stroke:#000000;stroke-width:0.8;" x="130.090909" xlink:href="#mebd91795dc" y="252"/>
      </g>
     </g>
     <g id="text_1">
      <!-- 4.0 -->
      <g transform="translate(117.368409 271.1575)scale(0.16 -0.16)">
       <defs>
        <path d="M 2419 4116 
L 825 1625 
L 2419 1625 
L 2419 4116 
z
M 2253 4666 
L 3047 4666 
L 3047 1625 
L 3713 1625 
L 3713 1100 
L 3047 1100 
L 3047 0 
L 2419 0 
L 2419 1100 
L 313 1100 
L 313 1709 
L 2253 4666 
z
" id="DejaVuSans-34" transform="scale(0.015625)"/>
        <path d="M 684 794 
L 1344 794 
L 1344 0 
L 684 0 
L 684 794 
z
" id="DejaVuSans-2e" transform="scale(0.015625)"/>
        <path d="M 2034 4250 
Q 1547 4250 1301 3770 
Q 1056 3291 1056 2328 
Q 1056 1369 1301 889 
Q 1547 409 2034 409 
Q 2525 409 2770 889 
Q 3016 1369 3016 2328 
Q 3016 3291 2770 3770 
Q 2525 4250 2034 4250 
z
M 2034 4750 
Q 2819 4750 3233 4129 
Q 3647 3509 3647 2328 
Q 3647 1150 3233 529 
Q 2819 -91 2034 -91 
Q 1250 -91 836 529 
Q 422 1150 422 2328 
Q 422 3509 836 4129 
Q 1250 4750 2034 4750 
z
" id="DejaVuSans-30" transform="scale(0.015625)"/>
       </defs>
       <use xlink:href="#DejaVuSans-34"/>
       <use x="63.623047" xlink:href="#DejaVuSans-2e"/>
       <use x="95.410156" xlink:href="#DejaVuSans-30"/>
      </g>
     </g>
    </g>
    <g id="xtick_2">
     <g id="line2d_2">
      <g>
       <use style="stroke:#000000;stroke-width:0.8;" x="211.254545" xlink:href="#mebd91795dc" y="252"/>
      </g>
     </g>
     <g id="text_2">
      <!-- 6.0 -->
      <g transform="translate(198.532045 271.1575)scale(0.16 -0.16)">
       <defs>
        <path d="M 2113 2584 
Q 1688 2584 1439 2293 
Q 1191 2003 1191 1497 
Q 1191 994 1439 701 
Q 1688 409 2113 409 
Q 2538 409 2786 701 
Q 3034 994 3034 1497 
Q 3034 2003 2786 2293 
Q 2538 2584 2113 2584 
z
M 3366 4563 
L 3366 3988 
Q 3128 4100 2886 4159 
Q 2644 4219 2406 4219 
Q 1781 4219 1451 3797 
Q 1122 3375 1075 2522 
Q 1259 2794 1537 2939 
Q 1816 3084 2150 3084 
Q 2853 3084 3261 2657 
Q 3669 2231 3669 1497 
Q 3669 778 3244 343 
Q 2819 -91 2113 -91 
Q 1303 -91 875 529 
Q 447 1150 447 2328 
Q 447 3434 972 4092 
Q 1497 4750 2381 4750 
Q 2619 4750 2861 4703 
Q 3103 4656 3366 4563 
z
" id="DejaVuSans-36" transform="scale(0.015625)"/>
       </defs>
       <use xlink:href="#DejaVuSans-36"/>
       <use x="63.623047" xlink:href="#DejaVuSans-2e"/>
       <use x="95.410156" xlink:href="#DejaVuSans-30"/>
      </g>
     </g>
    </g>
    <g id="xtick_3">
     <g id="line2d_3">
      <g>
       <use style="stroke:#000000;stroke-width:0.8;" x="292.418182" xlink:href="#mebd91795dc" y="252"/>
      </g>
     </g>
     <g id="text_3">
      <!-- 8.0 -->
      <g transform="translate(279.695682 271.1575)scale(0.16 -0.16)">
       <defs>
        <path d="M 2034 2216 
Q 1584 2216 1326 1975 
Q 1069 1734 1069 1313 
Q 1069 891 1326 650 
Q 1584 409 2034 409 
Q 2484 409 2743 651 
Q 3003 894 3003 1313 
Q 3003 1734 2745 1975 
Q 2488 2216 2034 2216 
z
M 1403 2484 
Q 997 2584 770 2862 
Q 544 3141 544 3541 
Q 544 4100 942 4425 
Q 1341 4750 2034 4750 
Q 2731 4750 3128 4425 
Q 3525 4100 3525 3541 
Q 3525 3141 3298 2862 
Q 3072 2584 2669 2484 
Q 3125 2378 3379 2068 
Q 3634 1759 3634 1313 
Q 3634 634 3220 271 
Q 2806 -91 2034 -91 
Q 1263 -91 848 271 
Q 434 634 434 1313 
Q 434 1759 690 2068 
Q 947 2378 1403 2484 
z
M 1172 3481 
Q 1172 3119 1398 2916 
Q 1625 2713 2034 2713 
Q 2441 2713 2670 2916 
Q 2900 3119 2900 3481 
Q 2900 3844 2670 4047 
Q 2441 4250 2034 4250 
Q 1625 4250 1398 4047 
Q 1172 3844 1172 3481 
z
" id="DejaVuSans-38" transform="scale(0.015625)"/>
       </defs>
       <use xlink:href="#DejaVuSans-38"/>
       <use x="63.623047" xlink:href="#DejaVuSans-2e"/>
       <use x="95.410156" xlink:href="#DejaVuSans-30"/>
      </g>
     </g>
    </g>
    <g id="xtick_4">
     <g id="line2d_4">
      <g>
       <use style="stroke:#000000;stroke-width:0.8;" x="373.581818" xlink:href="#mebd91795dc" y="252"/>
      </g>
     </g>
     <g id="text_4">
      <!-- 10.0 -->
      <g transform="translate(355.769318 271.1575)scale(0.16 -0.16)">
       <defs>
        <path d="M 794 531 
L 1825 531 
L 1825 4091 
L 703 3866 
L 703 4441 
L 1819 4666 
L 2450 4666 
L 2450 531 
L 3481 531 
L 3481 0 
L 794 0 
L 794 531 
z
" id="DejaVuSans-31" transform="scale(0.015625)"/>
       </defs>
       <use xlink:href="#DejaVuSans-31"/>
       <use x="63.623047" xlink:href="#DejaVuSans-30"/>
       <use x="127.246094" xlink:href="#DejaVuSans-2e"/>
       <use x="159.033203" xlink:href="#DejaVuSans-30"/>
      </g>
     </g>
    </g>
    <g id="text_5">
     <!-- Concentration $(\times 10^2 /\mu m^2)$  -->
     <g transform="translate(99.45 294.865)scale(0.18 -0.18)">
      <defs>
       <path d="M 4122 4306 
L 4122 3641 
Q 3803 3938 3442 4084 
Q 3081 4231 2675 4231 
Q 1875 4231 1450 3742 
Q 1025 3253 1025 2328 
Q 1025 1406 1450 917 
Q 1875 428 2675 428 
Q 3081 428 3442 575 
Q 3803 722 4122 1019 
L 4122 359 
Q 3791 134 3420 21 
Q 3050 -91 2638 -91 
Q 1578 -91 968 557 
Q 359 1206 359 2328 
Q 359 3453 968 4101 
Q 1578 4750 2638 4750 
Q 3056 4750 3426 4639 
Q 3797 4528 4122 4306 
z
" id="DejaVuSans-43" transform="scale(0.015625)"/>
       <path d="M 1959 3097 
Q 1497 3097 1228 2736 
Q 959 2375 959 1747 
Q 959 1119 1226 758 
Q 1494 397 1959 397 
Q 2419 397 2687 759 
Q 2956 1122 2956 1747 
Q 2956 2369 2687 2733 
Q 2419 3097 1959 3097 
z
M 1959 3584 
Q 2709 3584 3137 3096 
Q 3566 2609 3566 1747 
Q 3566 888 3137 398 
Q 2709 -91 1959 -91 
Q 1206 -91 779 398 
Q 353 888 353 1747 
Q 353 2609 779 3096 
Q 1206 3584 1959 3584 
z
" id="DejaVuSans-6f" transform="scale(0.015625)"/>
       <path d="M 3513 2113 
L 3513 0 
L 2938 0 
L 2938 2094 
Q 2938 2591 2744 2837 
Q 2550 3084 2163 3084 
Q 1697 3084 1428 2787 
Q 1159 2491 1159 1978 
L 1159 0 
L 581 0 
L 581 3500 
L 1159 3500 
L 1159 2956 
Q 1366 3272 1645 3428 
Q 1925 3584 2291 3584 
Q 2894 3584 3203 3211 
Q 3513 2838 3513 2113 
z
" id="DejaVuSans-6e" transform="scale(0.015625)"/>
       <path d="M 3122 3366 
L 3122 2828 
Q 2878 2963 2633 3030 
Q 2388 3097 2138 3097 
Q 1578 3097 1268 2742 
Q 959 2388 959 1747 
Q 959 1106 1268 751 
Q 1578 397 2138 397 
Q 2388 397 2633 464 
Q 2878 531 3122 666 
L 3122 134 
Q 2881 22 2623 -34 
Q 2366 -91 2075 -91 
Q 1284 -91 818 406 
Q 353 903 353 1747 
Q 353 2603 823 3093 
Q 1294 3584 2113 3584 
Q 2378 3584 2631 3529 
Q 2884 3475 3122 3366 
z
" id="DejaVuSans-63" transform="scale(0.015625)"/>
       <path d="M 3597 1894 
L 3597 1613 
L 953 1613 
Q 991 1019 1311 708 
Q 1631 397 2203 397 
Q 2534 397 2845 478 
Q 3156 559 3463 722 
L 3463 178 
Q 3153 47 2828 -22 
Q 2503 -91 2169 -91 
Q 1331 -91 842 396 
Q 353 884 353 1716 
Q 353 2575 817 3079 
Q 1281 3584 2069 3584 
Q 2775 3584 3186 3129 
Q 3597 2675 3597 1894 
z
M 3022 2063 
Q 3016 2534 2758 2815 
Q 2500 3097 2075 3097 
Q 1594 3097 1305 2825 
Q 1016 2553 972 2059 
L 3022 2063 
z
" id="DejaVuSans-65" transform="scale(0.015625)"/>
       <path d="M 1172 4494 
L 1172 3500 
L 2356 3500 
L 2356 3053 
L 1172 3053 
L 1172 1153 
Q 1172 725 1289 603 
Q 1406 481 1766 481 
L 2356 481 
L 2356 0 
L 1766 0 
Q 1100 0 847 248 
Q 594 497 594 1153 
L 594 3053 
L 172 3053 
L 172 3500 
L 594 3500 
L 594 4494 
L 1172 4494 
z
" id="DejaVuSans-74" transform="scale(0.015625)"/>
       <path d="M 2631 2963 
Q 2534 3019 2420 3045 
Q 2306 3072 2169 3072 
Q 1681 3072 1420 2755 
Q 1159 2438 1159 1844 
L 1159 0 
L 581 0 
L 581 3500 
L 1159 3500 
L 1159 2956 
Q 1341 3275 1631 3429 
Q 1922 3584 2338 3584 
Q 2397 3584 2469 3576 
Q 2541 3569 2628 3553 
L 2631 2963 
z
" id="DejaVuSans-72" transform="scale(0.015625)"/>
       <path d="M 2194 1759 
Q 1497 1759 1228 1600 
Q 959 1441 959 1056 
Q 959 750 1161 570 
Q 1363 391 1709 391 
Q 2188 391 2477 730 
Q 2766 1069 2766 1631 
L 2766 1759 
L 2194 1759 
z
M 3341 1997 
L 3341 0 
L 2766 0 
L 2766 531 
Q 2569 213 2275 61 
Q 1981 -91 1556 -91 
Q 1019 -91 701 211 
Q 384 513 384 1019 
Q 384 1609 779 1909 
Q 1175 2209 1959 2209 
L 2766 2209 
L 2766 2266 
Q 2766 2663 2505 2880 
Q 2244 3097 1772 3097 
Q 1472 3097 1187 3025 
Q 903 2953 641 2809 
L 641 3341 
Q 956 3463 1253 3523 
Q 1550 3584 1831 3584 
Q 2591 3584 2966 3190 
Q 3341 2797 3341 1997 
z
" id="DejaVuSans-61" transform="scale(0.015625)"/>
       <path d="M 603 3500 
L 1178 3500 
L 1178 0 
L 603 0 
L 603 3500 
z
M 603 4863 
L 1178 4863 
L 1178 4134 
L 603 4134 
L 603 4863 
z
" id="DejaVuSans-69" transform="scale(0.015625)"/>
       <path id="DejaVuSans-20" transform="scale(0.015625)"/>
       <path d="M 1984 4856 
Q 1566 4138 1362 3434 
Q 1159 2731 1159 2009 
Q 1159 1288 1364 580 
Q 1569 -128 1984 -844 
L 1484 -844 
Q 1016 -109 783 600 
Q 550 1309 550 2009 
Q 550 2706 781 3412 
Q 1013 4119 1484 4856 
L 1984 4856 
z
" id="DejaVuSans-28" transform="scale(0.015625)"/>
       <path d="M 4488 3438 
L 3059 2003 
L 4488 575 
L 4116 197 
L 2681 1631 
L 1247 197 
L 878 575 
L 2303 2003 
L 878 3438 
L 1247 3816 
L 2681 2381 
L 4116 3816 
L 4488 3438 
z
" id="DejaVuSans-d7" transform="scale(0.015625)"/>
       <path d="M 1228 531 
L 3431 531 
L 3431 0 
L 469 0 
L 469 531 
Q 828 903 1448 1529 
Q 2069 2156 2228 2338 
Q 2531 2678 2651 2914 
Q 2772 3150 2772 3378 
Q 2772 3750 2511 3984 
Q 2250 4219 1831 4219 
Q 1534 4219 1204 4116 
Q 875 4013 500 3803 
L 500 4441 
Q 881 4594 1212 4672 
Q 1544 4750 1819 4750 
Q 2544 4750 2975 4387 
Q 3406 4025 3406 3419 
Q 3406 3131 3298 2873 
Q 3191 2616 2906 2266 
Q 2828 2175 2409 1742 
Q 1991 1309 1228 531 
z
" id="DejaVuSans-32" transform="scale(0.015625)"/>
       <path d="M 1625 4666 
L 2156 4666 
L 531 -594 
L 0 -594 
L 1625 4666 
z
" id="DejaVuSans-2f" transform="scale(0.015625)"/>
       <path d="M -84 -1331 
L 856 3500 
L 1434 3500 
L 1009 1322 
Q 997 1256 987 1175 
Q 978 1094 978 1013 
Q 978 722 1161 565 
Q 1344 409 1684 409 
Q 2147 409 2431 671 
Q 2716 934 2816 1459 
L 3213 3500 
L 3788 3500 
L 3266 809 
Q 3253 750 3248 706 
Q 3244 663 3244 628 
Q 3244 531 3283 486 
Q 3322 441 3406 441 
Q 3438 441 3492 456 
Q 3547 472 3647 513 
L 3559 50 
Q 3422 -19 3297 -55 
Q 3172 -91 3053 -91 
Q 2847 -91 2730 40 
Q 2613 172 2613 403 
Q 2438 153 2195 31 
Q 1953 -91 1625 -91 
Q 1334 -91 1117 43 
Q 900 178 831 397 
L 494 -1331 
L -84 -1331 
z
" id="DejaVuSans-Oblique-3bc" transform="scale(0.015625)"/>
       <path d="M 5747 2113 
L 5338 0 
L 4763 0 
L 5166 2094 
Q 5191 2228 5203 2325 
Q 5216 2422 5216 2491 
Q 5216 2772 5059 2928 
Q 4903 3084 4622 3084 
Q 4203 3084 3875 2770 
Q 3547 2456 3450 1953 
L 3066 0 
L 2491 0 
L 2900 2094 
Q 2925 2209 2937 2307 
Q 2950 2406 2950 2484 
Q 2950 2769 2794 2926 
Q 2638 3084 2363 3084 
Q 1938 3084 1609 2770 
Q 1281 2456 1184 1953 
L 800 0 
L 225 0 
L 909 3500 
L 1484 3500 
L 1375 2956 
Q 1609 3263 1923 3423 
Q 2238 3584 2597 3584 
Q 2978 3584 3223 3384 
Q 3469 3184 3519 2828 
Q 3781 3197 4126 3390 
Q 4472 3584 4856 3584 
Q 5306 3584 5551 3325 
Q 5797 3066 5797 2591 
Q 5797 2488 5784 2364 
Q 5772 2241 5747 2113 
z
" id="DejaVuSans-Oblique-6d" transform="scale(0.015625)"/>
       <path d="M 513 4856 
L 1013 4856 
Q 1481 4119 1714 3412 
Q 1947 2706 1947 2009 
Q 1947 1309 1714 600 
Q 1481 -109 1013 -844 
L 513 -844 
Q 928 -128 1133 580 
Q 1338 1288 1338 2009 
Q 1338 2731 1133 3434 
Q 928 4138 513 4856 
z
" id="DejaVuSans-29" transform="scale(0.015625)"/>
      </defs>
      <use transform="translate(0 0.765625)" xlink:href="#DejaVuSans-43"/>
      <use transform="translate(69.824219 0.765625)" xlink:href="#DejaVuSans-6f"/>
      <use transform="translate(131.005859 0.765625)" xlink:href="#DejaVuSans-6e"/>
      <use transform="translate(194.384766 0.765625)" xlink:href="#DejaVuSans-63"/>
      <use transform="translate(249.365234 0.765625)" xlink:href="#DejaVuSans-65"/>
      <use transform="translate(310.888672 0.765625)" xlink:href="#DejaVuSans-6e"/>
      <use transform="translate(374.267578 0.765625)" xlink:href="#DejaVuSans-74"/>
      <use transform="translate(413.476562 0.765625)" xlink:href="#DejaVuSans-72"/>
      <use transform="translate(454.589844 0.765625)" xlink:href="#DejaVuSans-61"/>
      <use transform="translate(515.869141 0.765625)" xlink:href="#DejaVuSans-74"/>
      <use transform="translate(555.078125 0.765625)" xlink:href="#DejaVuSans-69"/>
      <use transform="translate(582.861328 0.765625)" xlink:href="#DejaVuSans-6f"/>
      <use transform="translate(644.042969 0.765625)" xlink:href="#DejaVuSans-6e"/>
      <use transform="translate(707.421875 0.765625)" xlink:href="#DejaVuSans-20"/>
      <use transform="translate(739.208984 0.765625)" xlink:href="#DejaVuSans-28"/>
      <use transform="translate(778.222656 0.765625)" xlink:href="#DejaVuSans-d7"/>
      <use transform="translate(862.011719 0.765625)" xlink:href="#DejaVuSans-31"/>
      <use transform="translate(925.634766 0.765625)" xlink:href="#DejaVuSans-30"/>
      <use transform="translate(990.214844 39.046875)scale(0.7)" xlink:href="#DejaVuSans-32"/>
      <use transform="translate(1037.485352 0.765625)" xlink:href="#DejaVuSans-2f"/>
      <use transform="translate(1071.176758 0.765625)" xlink:href="#DejaVuSans-Oblique-3bc"/>
      <use transform="translate(1134.799805 0.765625)" xlink:href="#DejaVuSans-Oblique-6d"/>
      <use transform="translate(1236.86181 39.046875)scale(0.7)" xlink:href="#DejaVuSans-32"/>
      <use transform="translate(1284.132318 0.765625)" xlink:href="#DejaVuSans-29"/>
      <use transform="translate(1323.14599 0.765625)" xlink:href="#DejaVuSans-20"/>
     </g>
    </g>
   </g>
   <g id="matplotlib.axis_2">
    <g id="ytick_1">
     <g id="line2d_5">
      <defs>
       <path d="M 0 0 
L -3.5 0 
" id="mbfa728aa30" style="stroke:#000000;stroke-width:0.8;"/>
      </defs>
      <g>
       <use style="stroke:#000000;stroke-width:0.8;" x="54" xlink:href="#mbfa728aa30" y="242.116364"/>
      </g>
     </g>
     <g id="text_6">
      <!-- 0.0 -->
      <g transform="translate(21.555 248.195114)scale(0.16 -0.16)">
       <use xlink:href="#DejaVuSans-30"/>
       <use x="63.623047" xlink:href="#DejaVuSans-2e"/>
       <use x="95.410156" xlink:href="#DejaVuSans-30"/>
      </g>
     </g>
    </g>
    <g id="ytick_2">
     <g id="line2d_6">
      <g>
       <use style="stroke:#000000;stroke-width:0.8;" x="54" xlink:href="#mbfa728aa30" y="203.164716"/>
      </g>
     </g>
     <g id="text_7">
      <!-- 0.2 -->
      <g transform="translate(21.555 209.243466)scale(0.16 -0.16)">
       <use xlink:href="#DejaVuSans-30"/>
       <use x="63.623047" xlink:href="#DejaVuSans-2e"/>
       <use x="95.410156" xlink:href="#DejaVuSans-32"/>
      </g>
     </g>
    </g>
    <g id="ytick_3">
     <g id="line2d_7">
      <g>
       <use style="stroke:#000000;stroke-width:0.8;" x="54" xlink:href="#mbfa728aa30" y="164.213069"/>
      </g>
     </g>
     <g id="text_8">
      <!-- 0.4 -->
      <g transform="translate(21.555 170.291819)scale(0.16 -0.16)">
       <use xlink:href="#DejaVuSans-30"/>
       <use x="63.623047" xlink:href="#DejaVuSans-2e"/>
       <use x="95.410156" xlink:href="#DejaVuSans-34"/>
      </g>
     </g>
    </g>
    <g id="ytick_4">
     <g id="line2d_8">
      <g>
       <use style="stroke:#000000;stroke-width:0.8;" x="54" xlink:href="#mbfa728aa30" y="125.261421"/>
      </g>
     </g>
     <g id="text_9">
      <!-- 0.6 -->
      <g transform="translate(21.555 131.340171)scale(0.16 -0.16)">
       <use xlink:href="#DejaVuSans-30"/>
       <use x="63.623047" xlink:href="#DejaVuSans-2e"/>
       <use x="95.410156" xlink:href="#DejaVuSans-36"/>
      </g>
     </g>
    </g>
    <g id="ytick_5">
     <g id="line2d_9">
      <g>
       <use style="stroke:#000000;stroke-width:0.8;" x="54" xlink:href="#mbfa728aa30" y="86.309773"/>
      </g>
     </g>
     <g id="text_10">
      <!-- 0.8 -->
      <g transform="translate(21.555 92.388523)scale(0.16 -0.16)">
       <use xlink:href="#DejaVuSans-30"/>
       <use x="63.623047" xlink:href="#DejaVuSans-2e"/>
       <use x="95.410156" xlink:href="#DejaVuSans-38"/>
      </g>
     </g>
    </g>
    <g id="ytick_6">
     <g id="line2d_10">
      <g>
       <use style="stroke:#000000;stroke-width:0.8;" x="54" xlink:href="#mbfa728aa30" y="47.358126"/>
      </g>
     </g>
     <g id="text_11">
      <!-- 1.0 -->
      <g transform="translate(21.555 53.436876)scale(0.16 -0.16)">
       <use xlink:href="#DejaVuSans-31"/>
       <use x="63.623047" xlink:href="#DejaVuSans-2e"/>
       <use x="95.410156" xlink:href="#DejaVuSans-30"/>
      </g>
     </g>
    </g>
    <g id="text_12">
     <!-- Wrapping probability -->
     <g transform="translate(13.811562 237.210469)rotate(-90)scale(0.18 -0.18)">
      <defs>
       <path d="M 213 4666 
L 850 4666 
L 1831 722 
L 2809 4666 
L 3519 4666 
L 4500 722 
L 5478 4666 
L 6119 4666 
L 4947 0 
L 4153 0 
L 3169 4050 
L 2175 0 
L 1381 0 
L 213 4666 
z
" id="DejaVuSans-57" transform="scale(0.015625)"/>
       <path d="M 1159 525 
L 1159 -1331 
L 581 -1331 
L 581 3500 
L 1159 3500 
L 1159 2969 
Q 1341 3281 1617 3432 
Q 1894 3584 2278 3584 
Q 2916 3584 3314 3078 
Q 3713 2572 3713 1747 
Q 3713 922 3314 415 
Q 2916 -91 2278 -91 
Q 1894 -91 1617 61 
Q 1341 213 1159 525 
z
M 3116 1747 
Q 3116 2381 2855 2742 
Q 2594 3103 2138 3103 
Q 1681 3103 1420 2742 
Q 1159 2381 1159 1747 
Q 1159 1113 1420 752 
Q 1681 391 2138 391 
Q 2594 391 2855 752 
Q 3116 1113 3116 1747 
z
" id="DejaVuSans-70" transform="scale(0.015625)"/>
       <path d="M 2906 1791 
Q 2906 2416 2648 2759 
Q 2391 3103 1925 3103 
Q 1463 3103 1205 2759 
Q 947 2416 947 1791 
Q 947 1169 1205 825 
Q 1463 481 1925 481 
Q 2391 481 2648 825 
Q 2906 1169 2906 1791 
z
M 3481 434 
Q 3481 -459 3084 -895 
Q 2688 -1331 1869 -1331 
Q 1566 -1331 1297 -1286 
Q 1028 -1241 775 -1147 
L 775 -588 
Q 1028 -725 1275 -790 
Q 1522 -856 1778 -856 
Q 2344 -856 2625 -561 
Q 2906 -266 2906 331 
L 2906 616 
Q 2728 306 2450 153 
Q 2172 0 1784 0 
Q 1141 0 747 490 
Q 353 981 353 1791 
Q 353 2603 747 3093 
Q 1141 3584 1784 3584 
Q 2172 3584 2450 3431 
Q 2728 3278 2906 2969 
L 2906 3500 
L 3481 3500 
L 3481 434 
z
" id="DejaVuSans-67" transform="scale(0.015625)"/>
       <path d="M 3116 1747 
Q 3116 2381 2855 2742 
Q 2594 3103 2138 3103 
Q 1681 3103 1420 2742 
Q 1159 2381 1159 1747 
Q 1159 1113 1420 752 
Q 1681 391 2138 391 
Q 2594 391 2855 752 
Q 3116 1113 3116 1747 
z
M 1159 2969 
Q 1341 3281 1617 3432 
Q 1894 3584 2278 3584 
Q 2916 3584 3314 3078 
Q 3713 2572 3713 1747 
Q 3713 922 3314 415 
Q 2916 -91 2278 -91 
Q 1894 -91 1617 61 
Q 1341 213 1159 525 
L 1159 0 
L 581 0 
L 581 4863 
L 1159 4863 
L 1159 2969 
z
" id="DejaVuSans-62" transform="scale(0.015625)"/>
       <path d="M 603 4863 
L 1178 4863 
L 1178 0 
L 603 0 
L 603 4863 
z
" id="DejaVuSans-6c" transform="scale(0.015625)"/>
       <path d="M 2059 -325 
Q 1816 -950 1584 -1140 
Q 1353 -1331 966 -1331 
L 506 -1331 
L 506 -850 
L 844 -850 
Q 1081 -850 1212 -737 
Q 1344 -625 1503 -206 
L 1606 56 
L 191 3500 
L 800 3500 
L 1894 763 
L 2988 3500 
L 3597 3500 
L 2059 -325 
z
" id="DejaVuSans-79" transform="scale(0.015625)"/>
      </defs>
      <use xlink:href="#DejaVuSans-57"/>
      <use x="94.376953" xlink:href="#DejaVuSans-72"/>
      <use x="135.490234" xlink:href="#DejaVuSans-61"/>
      <use x="196.769531" xlink:href="#DejaVuSans-70"/>
      <use x="260.246094" xlink:href="#DejaVuSans-70"/>
      <use x="323.722656" xlink:href="#DejaVuSans-69"/>
      <use x="351.505859" xlink:href="#DejaVuSans-6e"/>
      <use x="414.884766" xlink:href="#DejaVuSans-67"/>
      <use x="478.361328" xlink:href="#DejaVuSans-20"/>
      <use x="510.148438" xlink:href="#DejaVuSans-70"/>
      <use x="573.625" xlink:href="#DejaVuSans-72"/>
      <use x="612.488281" xlink:href="#DejaVuSans-6f"/>
      <use x="673.669922" xlink:href="#DejaVuSans-62"/>
      <use x="737.146484" xlink:href="#DejaVuSans-61"/>
      <use x="798.425781" xlink:href="#DejaVuSans-62"/>
      <use x="861.902344" xlink:href="#DejaVuSans-69"/>
      <use x="889.685547" xlink:href="#DejaVuSans-6c"/>
      <use x="917.46875" xlink:href="#DejaVuSans-69"/>
      <use x="945.251953" xlink:href="#DejaVuSans-74"/>
      <use x="984.460938" xlink:href="#DejaVuSans-79"/>
     </g>
    </g>
   </g>
   <g id="LineCollection_1">
    <path clip-path="url(#p666bc7e618)" d="M 69.218182 242.116364 
L 69.218182 242.116364 
" style="fill:none;stroke:#31688e;stroke-width:2.5;"/>
    <path clip-path="url(#p666bc7e618)" d="M 103.036364 241.939549 
L 103.036364 241.831203 
" style="fill:none;stroke:#31688e;stroke-width:2.5;"/>
    <path clip-path="url(#p666bc7e618)" d="M 136.854545 222.215586 
L 136.854545 220.412997 
" style="fill:none;stroke:#31688e;stroke-width:2.5;"/>
    <path clip-path="url(#p666bc7e618)" d="M 147 193.379674 
L 147 189.981737 
" style="fill:none;stroke:#31688e;stroke-width:2.5;"/>
    <path clip-path="url(#p666bc7e618)" d="M 157.145455 140.617833 
L 157.145455 139.377416 
" style="fill:none;stroke:#31688e;stroke-width:2.5;"/>
    <path clip-path="url(#p666bc7e618)" d="M 170.672727 92.073255 
L 170.672727 91.727439 
" style="fill:none;stroke:#31688e;stroke-width:2.5;"/>
    <path clip-path="url(#p666bc7e618)" d="M 204.490909 54.715031 
L 204.490909 54.64837 
" style="fill:none;stroke:#31688e;stroke-width:2.5;"/>
    <path clip-path="url(#p666bc7e618)" d="M 238.309091 48.853465 
L 238.309091 48.748161 
" style="fill:none;stroke:#31688e;stroke-width:2.5;"/>
    <path clip-path="url(#p666bc7e618)" d="M 272.127273 48.119175 
L 272.127273 48.035941 
" style="fill:none;stroke:#31688e;stroke-width:2.5;"/>
    <path clip-path="url(#p666bc7e618)" d="M 305.945455 48.305301 
L 305.945455 48.163677 
" style="fill:none;stroke:#31688e;stroke-width:2.5;"/>
    <path clip-path="url(#p666bc7e618)" d="M 339.763636 50.113629 
L 339.763636 46.312283 
" style="fill:none;stroke:#31688e;stroke-width:2.5;"/>
    <path clip-path="url(#p666bc7e618)" d="M 373.581818 50.663093 
L 373.581818 46.603239 
" style="fill:none;stroke:#31688e;stroke-width:2.5;"/>
   </g>
   <g id="LineCollection_2">
    <path clip-path="url(#p666bc7e618)" d="M 130.090909 242.04111 
L 130.090909 241.967119 
" style="fill:none;stroke:#35b779;stroke-width:2.5;"/>
    <path clip-path="url(#p666bc7e618)" d="M 157.145455 237.723394 
L 157.145455 236.218644 
" style="fill:none;stroke:#35b779;stroke-width:2.5;"/>
    <path clip-path="url(#p666bc7e618)" d="M 184.2 201.486174 
L 184.2 194.019377 
" style="fill:none;stroke:#35b779;stroke-width:2.5;"/>
    <path clip-path="url(#p666bc7e618)" d="M 192.316364 172.755975 
L 192.316364 162.920377 
" style="fill:none;stroke:#35b779;stroke-width:2.5;"/>
    <path clip-path="url(#p666bc7e618)" d="M 200.432727 134.065557 
L 200.432727 129.993657 
" style="fill:none;stroke:#35b779;stroke-width:2.5;"/>
    <path clip-path="url(#p666bc7e618)" d="M 211.254545 96.720742 
L 211.254545 94.716884 
" style="fill:none;stroke:#35b779;stroke-width:2.5;"/>
    <path clip-path="url(#p666bc7e618)" d="M 238.309091 61.973787 
L 238.309091 60.606682 
" style="fill:none;stroke:#35b779;stroke-width:2.5;"/>
    <path clip-path="url(#p666bc7e618)" d="M 265.363636 54.941963 
L 265.363636 54.055208 
" style="fill:none;stroke:#35b779;stroke-width:2.5;"/>
    <path clip-path="url(#p666bc7e618)" d="M 292.418182 51.931228 
L 292.418182 51.673682 
" style="fill:none;stroke:#35b779;stroke-width:2.5;"/>
    <path clip-path="url(#p666bc7e618)" d="M 319.472727 51.341028 
L 319.472727 51.104468 
" style="fill:none;stroke:#35b779;stroke-width:2.5;"/>
    <path clip-path="url(#p666bc7e618)" d="M 346.527273 52.941601 
L 346.527273 45.730547 
" style="fill:none;stroke:#35b779;stroke-width:2.5;"/>
    <path clip-path="url(#p666bc7e618)" d="M 373.581818 54.179419 
L 373.581818 44.443636 
" style="fill:none;stroke:#35b779;stroke-width:2.5;"/>
   </g>
   <g id="LineCollection_3">
    <path clip-path="url(#p666bc7e618)" d="M 170.672727 242.058441 
L 170.672727 241.925746 
" style="fill:none;stroke:#fde725;stroke-width:2.5;"/>
    <path clip-path="url(#p666bc7e618)" d="M 193.218182 238.203983 
L 193.218182 234.478245 
" style="fill:none;stroke:#fde725;stroke-width:2.5;"/>
    <path clip-path="url(#p666bc7e618)" d="M 215.763636 215.504121 
L 215.763636 203.130423 
" style="fill:none;stroke:#fde725;stroke-width:2.5;"/>
    <path clip-path="url(#p666bc7e618)" d="M 238.309091 172.36026 
L 238.309091 148.42602 
" style="fill:none;stroke:#fde725;stroke-width:2.5;"/>
    <path clip-path="url(#p666bc7e618)" d="M 260.854545 137.609758 
L 260.854545 113.001551 
" style="fill:none;stroke:#fde725;stroke-width:2.5;"/>
    <path clip-path="url(#p666bc7e618)" d="M 283.4 99.825299 
L 283.4 81.53501 
" style="fill:none;stroke:#fde725;stroke-width:2.5;"/>
    <path clip-path="url(#p666bc7e618)" d="M 305.945455 76.457802 
L 305.945455 67.468181 
" style="fill:none;stroke:#fde725;stroke-width:2.5;"/>
    <path clip-path="url(#p666bc7e618)" d="M 328.490909 64.400545 
L 328.490909 60.0359 
" style="fill:none;stroke:#fde725;stroke-width:2.5;"/>
    <path clip-path="url(#p666bc7e618)" d="M 351.036364 73.252423 
L 351.036364 66.577098 
" style="fill:none;stroke:#fde725;stroke-width:2.5;"/>
    <path clip-path="url(#p666bc7e618)" d="M 373.581818 62.044972 
L 373.581818 57.019642 
" style="fill:none;stroke:#fde725;stroke-width:2.5;"/>
   </g>
   <g id="line2d_11">
    <path clip-path="url(#p666bc7e618)" d="M 69.218182 242.116364 
L 103.036364 241.885376 
L 136.854545 221.314291 
L 147 191.680706 
L 157.145455 139.997624 
L 170.672727 91.900347 
L 204.490909 54.681701 
L 238.309091 48.800813 
L 272.127273 48.077558 
L 305.945455 48.234489 
L 339.763636 48.212956 
L 373.581818 48.633166 
" style="fill:none;stroke:#31688e;stroke-linecap:square;stroke-width:2;"/>
   </g>
   <g id="line2d_12">
    <defs>
     <path d="M 4 0 
L -4 -0 
" id="mf1527eca82" style="stroke:#31688e;"/>
    </defs>
    <g clip-path="url(#p666bc7e618)">
     <use style="fill:#31688e;stroke:#31688e;" x="69.218182" xlink:href="#mf1527eca82" y="242.116364"/>
     <use style="fill:#31688e;stroke:#31688e;" x="103.036364" xlink:href="#mf1527eca82" y="241.939549"/>
     <use style="fill:#31688e;stroke:#31688e;" x="136.854545" xlink:href="#mf1527eca82" y="222.215586"/>
     <use style="fill:#31688e;stroke:#31688e;" x="147" xlink:href="#mf1527eca82" y="193.379674"/>
     <use style="fill:#31688e;stroke:#31688e;" x="157.145455" xlink:href="#mf1527eca82" y="140.617833"/>
     <use style="fill:#31688e;stroke:#31688e;" x="170.672727" xlink:href="#mf1527eca82" y="92.073255"/>
     <use style="fill:#31688e;stroke:#31688e;" x="204.490909" xlink:href="#mf1527eca82" y="54.715031"/>
     <use style="fill:#31688e;stroke:#31688e;" x="238.309091" xlink:href="#mf1527eca82" y="48.853465"/>
     <use style="fill:#31688e;stroke:#31688e;" x="272.127273" xlink:href="#mf1527eca82" y="48.119175"/>
     <use style="fill:#31688e;stroke:#31688e;" x="305.945455" xlink:href="#mf1527eca82" y="48.305301"/>
     <use style="fill:#31688e;stroke:#31688e;" x="339.763636" xlink:href="#mf1527eca82" y="50.113629"/>
     <use style="fill:#31688e;stroke:#31688e;" x="373.581818" xlink:href="#mf1527eca82" y="50.663093"/>
    </g>
   </g>
   <g id="line2d_13">
    <g clip-path="url(#p666bc7e618)">
     <use style="fill:#31688e;stroke:#31688e;" x="69.218182" xlink:href="#mf1527eca82" y="242.116364"/>
     <use style="fill:#31688e;stroke:#31688e;" x="103.036364" xlink:href="#mf1527eca82" y="241.831203"/>
     <use style="fill:#31688e;stroke:#31688e;" x="136.854545" xlink:href="#mf1527eca82" y="220.412997"/>
     <use style="fill:#31688e;stroke:#31688e;" x="147" xlink:href="#mf1527eca82" y="189.981737"/>
     <use style="fill:#31688e;stroke:#31688e;" x="157.145455" xlink:href="#mf1527eca82" y="139.377416"/>
     <use style="fill:#31688e;stroke:#31688e;" x="170.672727" xlink:href="#mf1527eca82" y="91.727439"/>
     <use style="fill:#31688e;stroke:#31688e;" x="204.490909" xlink:href="#mf1527eca82" y="54.64837"/>
     <use style="fill:#31688e;stroke:#31688e;" x="238.309091" xlink:href="#mf1527eca82" y="48.748161"/>
     <use style="fill:#31688e;stroke:#31688e;" x="272.127273" xlink:href="#mf1527eca82" y="48.035941"/>
     <use style="fill:#31688e;stroke:#31688e;" x="305.945455" xlink:href="#mf1527eca82" y="48.163677"/>
     <use style="fill:#31688e;stroke:#31688e;" x="339.763636" xlink:href="#mf1527eca82" y="46.312283"/>
     <use style="fill:#31688e;stroke:#31688e;" x="373.581818" xlink:href="#mf1527eca82" y="46.603239"/>
    </g>
   </g>
   <g id="line2d_14">
    <path clip-path="url(#p666bc7e618)" d="M 130.090909 242.004114 
L 157.145455 236.971019 
L 184.2 197.752775 
L 192.316364 167.838176 
L 200.432727 132.029607 
L 211.254545 95.718813 
L 238.309091 61.290235 
L 265.363636 54.498585 
L 292.418182 51.802455 
L 319.472727 51.222748 
L 346.527273 49.336074 
L 373.581818 49.311528 
" style="fill:none;stroke:#35b779;stroke-dasharray:2,3.3;stroke-dashoffset:0;stroke-width:2;"/>
   </g>
   <g id="line2d_15">
    <defs>
     <path d="M 4 0 
L -4 -0 
" id="m0f2304c74c" style="stroke:#35b779;"/>
    </defs>
    <g clip-path="url(#p666bc7e618)">
     <use style="fill:#35b779;stroke:#35b779;" x="130.090909" xlink:href="#m0f2304c74c" y="242.04111"/>
     <use style="fill:#35b779;stroke:#35b779;" x="157.145455" xlink:href="#m0f2304c74c" y="237.723394"/>
     <use style="fill:#35b779;stroke:#35b779;" x="184.2" xlink:href="#m0f2304c74c" y="201.486174"/>
     <use style="fill:#35b779;stroke:#35b779;" x="192.316364" xlink:href="#m0f2304c74c" y="172.755975"/>
     <use style="fill:#35b779;stroke:#35b779;" x="200.432727" xlink:href="#m0f2304c74c" y="134.065557"/>
     <use style="fill:#35b779;stroke:#35b779;" x="211.254545" xlink:href="#m0f2304c74c" y="96.720742"/>
     <use style="fill:#35b779;stroke:#35b779;" x="238.309091" xlink:href="#m0f2304c74c" y="61.973787"/>
     <use style="fill:#35b779;stroke:#35b779;" x="265.363636" xlink:href="#m0f2304c74c" y="54.941963"/>
     <use style="fill:#35b779;stroke:#35b779;" x="292.418182" xlink:href="#m0f2304c74c" y="51.931228"/>
     <use style="fill:#35b779;stroke:#35b779;" x="319.472727" xlink:href="#m0f2304c74c" y="51.341028"/>
     <use style="fill:#35b779;stroke:#35b779;" x="346.527273" xlink:href="#m0f2304c74c" y="52.941601"/>
     <use style="fill:#35b779;stroke:#35b779;" x="373.581818" xlink:href="#m0f2304c74c" y="54.179419"/>
    </g>
   </g>
   <g id="line2d_16">
    <g clip-path="url(#p666bc7e618)">
     <use style="fill:#35b779;stroke:#35b779;" x="130.090909" xlink:href="#m0f2304c74c" y="241.967119"/>
     <use style="fill:#35b779;stroke:#35b779;" x="157.145455" xlink:href="#m0f2304c74c" y="236.218644"/>
     <use style="fill:#35b779;stroke:#35b779;" x="184.2" xlink:href="#m0f2304c74c" y="194.019377"/>
     <use style="fill:#35b779;stroke:#35b779;" x="192.316364" xlink:href="#m0f2304c74c" y="162.920377"/>
     <use style="fill:#35b779;stroke:#35b779;" x="200.432727" xlink:href="#m0f2304c74c" y="129.993657"/>
     <use style="fill:#35b779;stroke:#35b779;" x="211.254545" xlink:href="#m0f2304c74c" y="94.716884"/>
     <use style="fill:#35b779;stroke:#35b779;" x="238.309091" xlink:href="#m0f2304c74c" y="60.606682"/>
     <use style="fill:#35b779;stroke:#35b779;" x="265.363636" xlink:href="#m0f2304c74c" y="54.055208"/>
     <use style="fill:#35b779;stroke:#35b779;" x="292.418182" xlink:href="#m0f2304c74c" y="51.673682"/>
     <use style="fill:#35b779;stroke:#35b779;" x="319.472727" xlink:href="#m0f2304c74c" y="51.104468"/>
     <use style="fill:#35b779;stroke:#35b779;" x="346.527273" xlink:href="#m0f2304c74c" y="45.730547"/>
     <use style="fill:#35b779;stroke:#35b779;" x="373.581818" xlink:href="#m0f2304c74c" y="44.443636"/>
    </g>
   </g>
   <g id="line2d_17">
    <path clip-path="url(#p666bc7e618)" d="M 170.672727 241.992093 
L 193.218182 236.341114 
L 215.763636 209.317272 
L 238.309091 160.39314 
L 260.854545 125.305654 
L 283.4 90.680154 
L 305.945455 71.962991 
L 328.490909 62.218222 
L 351.036364 69.914761 
L 373.581818 59.532307 
" style="fill:none;stroke:#fde725;stroke-dasharray:7.4,3.2;stroke-dashoffset:0;stroke-width:2;"/>
   </g>
   <g id="line2d_18">
    <defs>
     <path d="M 4 0 
L -4 -0 
" id="mb8baccbbaf" style="stroke:#fde725;"/>
    </defs>
    <g clip-path="url(#p666bc7e618)">
     <use style="fill:#fde725;stroke:#fde725;" x="170.672727" xlink:href="#mb8baccbbaf" y="242.058441"/>
     <use style="fill:#fde725;stroke:#fde725;" x="193.218182" xlink:href="#mb8baccbbaf" y="238.203983"/>
     <use style="fill:#fde725;stroke:#fde725;" x="215.763636" xlink:href="#mb8baccbbaf" y="215.504121"/>
     <use style="fill:#fde725;stroke:#fde725;" x="238.309091" xlink:href="#mb8baccbbaf" y="172.36026"/>
     <use style="fill:#fde725;stroke:#fde725;" x="260.854545" xlink:href="#mb8baccbbaf" y="137.609758"/>
     <use style="fill:#fde725;stroke:#fde725;" x="283.4" xlink:href="#mb8baccbbaf" y="99.825299"/>
     <use style="fill:#fde725;stroke:#fde725;" x="305.945455" xlink:href="#mb8baccbbaf" y="76.457802"/>
     <use style="fill:#fde725;stroke:#fde725;" x="328.490909" xlink:href="#mb8baccbbaf" y="64.400545"/>
     <use style="fill:#fde725;stroke:#fde725;" x="351.036364" xlink:href="#mb8baccbbaf" y="73.252423"/>
     <use style="fill:#fde725;stroke:#fde725;" x="373.581818" xlink:href="#mb8baccbbaf" y="62.044972"/>
    </g>
   </g>
   <g id="line2d_19">
    <g clip-path="url(#p666bc7e618)">
     <use style="fill:#fde725;stroke:#fde725;" x="170.672727" xlink:href="#mb8baccbbaf" y="241.925746"/>
     <use style="fill:#fde725;stroke:#fde725;" x="193.218182" xlink:href="#mb8baccbbaf" y="234.478245"/>
     <use style="fill:#fde725;stroke:#fde725;" x="215.763636" xlink:href="#mb8baccbbaf" y="203.130423"/>
     <use style="fill:#fde725;stroke:#fde725;" x="238.309091" xlink:href="#mb8baccbbaf" y="148.42602"/>
     <use style="fill:#fde725;stroke:#fde725;" x="260.854545" xlink:href="#mb8baccbbaf" y="113.001551"/>
     <use style="fill:#fde725;stroke:#fde725;" x="283.4" xlink:href="#mb8baccbbaf" y="81.53501"/>
     <use style="fill:#fde725;stroke:#fde725;" x="305.945455" xlink:href="#mb8baccbbaf" y="67.468181"/>
     <use style="fill:#fde725;stroke:#fde725;" x="328.490909" xlink:href="#mb8baccbbaf" y="60.0359"/>
     <use style="fill:#fde725;stroke:#fde725;" x="351.036364" xlink:href="#mb8baccbbaf" y="66.577098"/>
     <use style="fill:#fde725;stroke:#fde725;" x="373.581818" xlink:href="#mb8baccbbaf" y="57.019642"/>
    </g>
   </g>
   <g id="line2d_20"/>
   <g id="line2d_21"/>
   <g id="line2d_22"/>
   <g id="patch_3">
    <path d="M 54 252 
L 54 34.56 
" style="fill:none;stroke:#000000;stroke-linecap:square;stroke-linejoin:miter;stroke-width:0.8;"/>
   </g>
   <g id="patch_4">
    <path d="M 388.8 252 
L 388.8 34.56 
" style="fill:none;stroke:#000000;stroke-linecap:square;stroke-linejoin:miter;stroke-width:0.8;"/>
   </g>
   <g id="patch_5">
    <path d="M 54 252 
L 388.8 252 
" style="fill:none;stroke:#000000;stroke-linecap:square;stroke-linejoin:miter;stroke-width:0.8;"/>
   </g>
   <g id="patch_6">
    <path d="M 54 34.56 
L 388.8 34.56 
" style="fill:none;stroke:#000000;stroke-linecap:square;stroke-linejoin:miter;stroke-width:0.8;"/>
   </g>
   <g id="legend_1">
    <g id="line2d_23">
     <path d="M 247.82 190.489687 
L 275.82 190.489687 
" style="fill:none;stroke:#31688e;stroke-linecap:square;stroke-width:2;"/>
    </g>
    <g id="line2d_24"/>
    <g id="text_13">
     <!-- $d_{tube} = 38 nm$ -->
     <g transform="translate(287.02 195.389687)scale(0.14 -0.14)">
      <defs>
       <path d="M 2675 525 
Q 2444 222 2128 65 
Q 1813 -91 1428 -91 
Q 903 -91 598 267 
Q 294 625 294 1247 
Q 294 1766 478 2236 
Q 663 2706 1013 3078 
Q 1244 3325 1534 3454 
Q 1825 3584 2144 3584 
Q 2481 3584 2739 3421 
Q 2997 3259 3138 2956 
L 3513 4863 
L 4091 4863 
L 3144 0 
L 2566 0 
L 2675 525 
z
M 891 1350 
Q 891 897 1095 644 
Q 1300 391 1663 391 
Q 1931 391 2161 520 
Q 2391 650 2566 903 
Q 2750 1166 2856 1509 
Q 2963 1853 2963 2188 
Q 2963 2622 2758 2865 
Q 2553 3109 2194 3109 
Q 1922 3109 1687 2981 
Q 1453 2853 1288 2613 
Q 1106 2353 998 2009 
Q 891 1666 891 1350 
z
" id="DejaVuSans-Oblique-64" transform="scale(0.015625)"/>
       <path d="M 2706 3500 
L 2619 3053 
L 1472 3053 
L 1100 1153 
Q 1081 1047 1072 975 
Q 1063 903 1063 863 
Q 1063 663 1183 572 
Q 1303 481 1569 481 
L 2150 481 
L 2053 0 
L 1503 0 
Q 991 0 739 200 
Q 488 400 488 806 
Q 488 878 497 964 
Q 506 1050 525 1153 
L 897 3053 
L 409 3053 
L 500 3500 
L 978 3500 
L 1172 4494 
L 1747 4494 
L 1556 3500 
L 2706 3500 
z
" id="DejaVuSans-Oblique-74" transform="scale(0.015625)"/>
       <path d="M 428 1388 
L 838 3500 
L 1416 3500 
L 1006 1409 
Q 975 1256 961 1147 
Q 947 1038 947 966 
Q 947 700 1109 554 
Q 1272 409 1569 409 
Q 2031 409 2368 721 
Q 2706 1034 2809 1563 
L 3194 3500 
L 3769 3500 
L 3091 0 
L 2516 0 
L 2631 550 
Q 2388 244 2052 76 
Q 1716 -91 1338 -91 
Q 878 -91 622 161 
Q 366 413 366 863 
Q 366 956 381 1097 
Q 397 1238 428 1388 
z
" id="DejaVuSans-Oblique-75" transform="scale(0.015625)"/>
       <path d="M 3169 2138 
Q 3169 2591 2961 2847 
Q 2753 3103 2388 3103 
Q 2122 3103 1889 2973 
Q 1656 2844 1484 2597 
Q 1303 2338 1198 1995 
Q 1094 1653 1094 1313 
Q 1094 881 1298 636 
Q 1503 391 1863 391 
Q 2134 391 2365 517 
Q 2597 644 2772 891 
Q 2950 1147 3059 1487 
Q 3169 1828 3169 2138 
z
M 1381 2969 
Q 1594 3256 1914 3420 
Q 2234 3584 2584 3584 
Q 3122 3584 3439 3221 
Q 3756 2859 3756 2241 
Q 3756 1734 3570 1259 
Q 3384 784 3041 416 
Q 2816 172 2522 40 
Q 2228 -91 1906 -91 
Q 1566 -91 1316 65 
Q 1066 222 909 531 
L 806 0 
L 231 0 
L 1178 4863 
L 1753 4863 
L 1381 2969 
z
" id="DejaVuSans-Oblique-62" transform="scale(0.015625)"/>
       <path d="M 3078 2063 
Q 3088 2113 3092 2166 
Q 3097 2219 3097 2272 
Q 3097 2653 2873 2875 
Q 2650 3097 2266 3097 
Q 1838 3097 1509 2826 
Q 1181 2556 1013 2059 
L 3078 2063 
z
M 3578 1613 
L 903 1613 
Q 884 1494 878 1425 
Q 872 1356 872 1306 
Q 872 872 1139 634 
Q 1406 397 1894 397 
Q 2269 397 2603 481 
Q 2938 566 3225 728 
L 3116 159 
Q 2806 34 2476 -28 
Q 2147 -91 1806 -91 
Q 1078 -91 686 257 
Q 294 606 294 1247 
Q 294 1794 489 2264 
Q 684 2734 1063 3103 
Q 1306 3334 1642 3459 
Q 1978 3584 2356 3584 
Q 2950 3584 3301 3228 
Q 3653 2872 3653 2272 
Q 3653 2128 3634 1964 
Q 3616 1800 3578 1613 
z
" id="DejaVuSans-Oblique-65" transform="scale(0.015625)"/>
       <path d="M 678 2906 
L 4684 2906 
L 4684 2381 
L 678 2381 
L 678 2906 
z
M 678 1631 
L 4684 1631 
L 4684 1100 
L 678 1100 
L 678 1631 
z
" id="DejaVuSans-3d" transform="scale(0.015625)"/>
       <path d="M 2597 2516 
Q 3050 2419 3304 2112 
Q 3559 1806 3559 1356 
Q 3559 666 3084 287 
Q 2609 -91 1734 -91 
Q 1441 -91 1130 -33 
Q 819 25 488 141 
L 488 750 
Q 750 597 1062 519 
Q 1375 441 1716 441 
Q 2309 441 2620 675 
Q 2931 909 2931 1356 
Q 2931 1769 2642 2001 
Q 2353 2234 1838 2234 
L 1294 2234 
L 1294 2753 
L 1863 2753 
Q 2328 2753 2575 2939 
Q 2822 3125 2822 3475 
Q 2822 3834 2567 4026 
Q 2313 4219 1838 4219 
Q 1578 4219 1281 4162 
Q 984 4106 628 3988 
L 628 4550 
Q 988 4650 1302 4700 
Q 1616 4750 1894 4750 
Q 2613 4750 3031 4423 
Q 3450 4097 3450 3541 
Q 3450 3153 3228 2886 
Q 3006 2619 2597 2516 
z
" id="DejaVuSans-33" transform="scale(0.015625)"/>
       <path d="M 3566 2113 
L 3156 0 
L 2578 0 
L 2988 2091 
Q 3016 2238 3031 2350 
Q 3047 2463 3047 2528 
Q 3047 2791 2881 2937 
Q 2716 3084 2419 3084 
Q 1956 3084 1622 2776 
Q 1288 2469 1184 1941 
L 800 0 
L 225 0 
L 903 3500 
L 1478 3500 
L 1363 2950 
Q 1603 3253 1940 3418 
Q 2278 3584 2650 3584 
Q 3113 3584 3367 3334 
Q 3622 3084 3622 2631 
Q 3622 2519 3608 2391 
Q 3594 2263 3566 2113 
z
" id="DejaVuSans-Oblique-6e" transform="scale(0.015625)"/>
      </defs>
      <use transform="translate(0 0.015625)" xlink:href="#DejaVuSans-Oblique-64"/>
      <use transform="translate(63.476562 -16.390625)scale(0.7)" xlink:href="#DejaVuSans-Oblique-74"/>
      <use transform="translate(90.922852 -16.390625)scale(0.7)" xlink:href="#DejaVuSans-Oblique-75"/>
      <use transform="translate(135.288086 -16.390625)scale(0.7)" xlink:href="#DejaVuSans-Oblique-62"/>
      <use transform="translate(179.72168 -16.390625)scale(0.7)" xlink:href="#DejaVuSans-Oblique-65"/>
      <use transform="translate(245.004883 0.015625)" xlink:href="#DejaVuSans-3d"/>
      <use transform="translate(348.276367 0.015625)" xlink:href="#DejaVuSans-33"/>
      <use transform="translate(411.899414 0.015625)" xlink:href="#DejaVuSans-38"/>
      <use transform="translate(475.522461 0.015625)" xlink:href="#DejaVuSans-Oblique-6e"/>
      <use transform="translate(538.901367 0.015625)" xlink:href="#DejaVuSans-Oblique-6d"/>
     </g>
    </g>
    <g id="line2d_25">
     <path d="M 247.82 211.039062 
L 275.82 211.039062 
" style="fill:none;stroke:#35b779;stroke-dasharray:2,3.3;stroke-dashoffset:0;stroke-width:2;"/>
    </g>
    <g id="line2d_26"/>
    <g id="text_14">
     <!-- $d_{tube} = 48 nm$ -->
     <g transform="translate(287.02 215.939062)scale(0.14 -0.14)">
      <use transform="translate(0 0.015625)" xlink:href="#DejaVuSans-Oblique-64"/>
      <use transform="translate(63.476562 -16.390625)scale(0.7)" xlink:href="#DejaVuSans-Oblique-74"/>
      <use transform="translate(90.922852 -16.390625)scale(0.7)" xlink:href="#DejaVuSans-Oblique-75"/>
      <use transform="translate(135.288086 -16.390625)scale(0.7)" xlink:href="#DejaVuSans-Oblique-62"/>
      <use transform="translate(179.72168 -16.390625)scale(0.7)" xlink:href="#DejaVuSans-Oblique-65"/>
      <use transform="translate(245.004883 0.015625)" xlink:href="#DejaVuSans-3d"/>
      <use transform="translate(348.276367 0.015625)" xlink:href="#DejaVuSans-34"/>
      <use transform="translate(411.899414 0.015625)" xlink:href="#DejaVuSans-38"/>
      <use transform="translate(475.522461 0.015625)" xlink:href="#DejaVuSans-Oblique-6e"/>
      <use transform="translate(538.901367 0.015625)" xlink:href="#DejaVuSans-Oblique-6d"/>
     </g>
    </g>
    <g id="line2d_27">
     <path d="M 247.82 231.588437 
L 275.82 231.588437 
" style="fill:none;stroke:#fde725;stroke-dasharray:7.4,3.2;stroke-dashoffset:0;stroke-width:2;"/>
    </g>
    <g id="line2d_28"/>
    <g id="text_15">
     <!-- $d_{tube} = 57 nm$ -->
     <g transform="translate(287.02 236.488438)scale(0.14 -0.14)">
      <defs>
       <path d="M 691 4666 
L 3169 4666 
L 3169 4134 
L 1269 4134 
L 1269 2991 
Q 1406 3038 1543 3061 
Q 1681 3084 1819 3084 
Q 2600 3084 3056 2656 
Q 3513 2228 3513 1497 
Q 3513 744 3044 326 
Q 2575 -91 1722 -91 
Q 1428 -91 1123 -41 
Q 819 9 494 109 
L 494 744 
Q 775 591 1075 516 
Q 1375 441 1709 441 
Q 2250 441 2565 725 
Q 2881 1009 2881 1497 
Q 2881 1984 2565 2268 
Q 2250 2553 1709 2553 
Q 1456 2553 1204 2497 
Q 953 2441 691 2322 
L 691 4666 
z
" id="DejaVuSans-35" transform="scale(0.015625)"/>
       <path d="M 525 4666 
L 3525 4666 
L 3525 4397 
L 1831 0 
L 1172 0 
L 2766 4134 
L 525 4134 
L 525 4666 
z
" id="DejaVuSans-37" transform="scale(0.015625)"/>
      </defs>
      <use transform="translate(0 0.015625)" xlink:href="#DejaVuSans-Oblique-64"/>
      <use transform="translate(63.476562 -16.390625)scale(0.7)" xlink:href="#DejaVuSans-Oblique-74"/>
      <use transform="translate(90.922852 -16.390625)scale(0.7)" xlink:href="#DejaVuSans-Oblique-75"/>
      <use transform="translate(135.288086 -16.390625)scale(0.7)" xlink:href="#DejaVuSans-Oblique-62"/>
      <use transform="translate(179.72168 -16.390625)scale(0.7)" xlink:href="#DejaVuSans-Oblique-65"/>
      <use transform="translate(245.004883 0.015625)" xlink:href="#DejaVuSans-3d"/>
      <use transform="translate(348.276367 0.015625)" xlink:href="#DejaVuSans-35"/>
      <use transform="translate(404.649414 0.015625)" xlink:href="#DejaVuSans-37"/>
      <use transform="translate(468.272461 0.015625)" xlink:href="#DejaVuSans-Oblique-6e"/>
      <use transform="translate(531.651367 0.015625)" xlink:href="#DejaVuSans-Oblique-6d"/>
     </g>
    </g>
   </g>
  </g>
 </g>
 <defs>
  <clipPath id="p666bc7e618">
   <rect height="217.44" width="334.8" x="54" y="34.56"/>
  </clipPath>
 </defs>
</svg>
